<?xml version="1.0" encoding="UTF-8" standalone="no"?>
<svg
   xmlns:dc="http://purl.org/dc/elements/1.1/"
   xmlns:cc="http://creativecommons.org/ns#"
   xmlns:rdf="http://www.w3.org/1999/02/22-rdf-syntax-ns#"
   xmlns:svg="http://www.w3.org/2000/svg"
   xmlns="http://www.w3.org/2000/svg"
   xmlns:sodipodi="http://sodipodi.sourceforge.net/DTD/sodipodi-0.dtd"
   xmlns:inkscape="http://www.inkscape.org/namespaces/inkscape"
   version="1.1"
   id="Layer_1"
   x="0px"
   y="0px"
   width="800"
   height="1024"
   viewBox="0 0 800 1024"
   enable-background="new 0 0 512 512"
   xml:space="preserve"
   inkscape:version="0.48.0 r9654"
   sodipodi:docname="ayinhebrew-x5e2.svg"><title
   id="title3743">Sinai 357</title><metadata
   id="metadata72"><rdf:RDF><cc:Work
       rdf:about=""><dc:format>image/svg+xml</dc:format><dc:type
         rdf:resource="http://purl.org/dc/dcmitype/StillImage" /><dc:title>Sinai 357</dc:title><dc:date>2017</dc:date><dc:creator><cc:Agent><dc:title>Celeste Claire Horner</dc:title></cc:Agent></dc:creator><dc:publisher><cc:Agent><dc:title>beitdina.net</dc:title></cc:Agent></dc:publisher></cc:Work></rdf:RDF></metadata><defs
   id="defs70" /><sodipodi:namedview
   pagecolor="#ffffff"
   bordercolor="#666666"
   borderopacity="1"
   objecttolerance="10"
   gridtolerance="10"
   guidetolerance="10"
   inkscape:pageopacity="0"
   inkscape:pageshadow="2"
   inkscape:window-width="842"
   inkscape:window-height="732"
   id="namedview68"
   showgrid="false"
   inkscape:zoom="0.31234964"
   inkscape:cx="202.40857"
   inkscape:cy="545.74141"
   inkscape:window-x="23"
   inkscape:window-y="23"
   inkscape:window-maximized="0"
   inkscape:current-layer="Layer_1"
   showguides="true"
   inkscape:guide-bbox="true" />
   
	<g
   id="Grid"
   transform="matrix(1.553425,0,0,-1.9949797,0.501992,1023.5025)">
		<rect
   x="0"
   stroke-miterlimit="10"
   width="512"
   height="512"
   id="rect4"
   y="0"
   style="fill:none;stroke:#a9ccdb;stroke-miterlimit:10" />
		<line
   stroke-miterlimit="10"
   x1="0"
   y1="32"
   x2="512"
   y2="32"
   id="line6"
   style="fill:none;stroke:#a9ccdb;stroke-miterlimit:10" />
		<line
   stroke-miterlimit="10"
   x1="0"
   y1="64"
   x2="512"
   y2="64"
   id="line8"
   style="fill:none;stroke:#a9ccdb;stroke-miterlimit:10" />
		<line
   stroke-miterlimit="10"
   x1="0"
   y1="96"
   x2="512"
   y2="96"
   id="line10"
   style="fill:none;stroke:#a9ccdb;stroke-miterlimit:10" />
		<line
   stroke-miterlimit="10"
   x1="0"
   y1="128"
   x2="512"
   y2="128"
   id="line12"
   style="fill:none;stroke:#a9ccdb;stroke-miterlimit:10" />
		<line
   stroke-miterlimit="10"
   x1="0"
   y1="160"
   x2="512"
   y2="160"
   id="line14"
   style="fill:none;stroke:#a9ccdb;stroke-miterlimit:10" />
		<line
   stroke-miterlimit="10"
   x1="0"
   y1="192"
   x2="512"
   y2="192"
   id="line16"
   style="fill:none;stroke:#a9ccdb;stroke-miterlimit:10" />
		<line
   stroke-miterlimit="10"
   x1="0"
   y1="224"
   x2="512"
   y2="224"
   id="line18"
   style="fill:none;stroke:#a9ccdb;stroke-miterlimit:10" />
		<line
   stroke-miterlimit="10"
   x1="0"
   y1="256"
   x2="512"
   y2="256"
   id="line20"
   style="fill:none;stroke:#a9ccdb;stroke-miterlimit:10" />
		<line
   stroke-miterlimit="10"
   x1="0"
   y1="288"
   x2="512"
   y2="288"
   id="line22"
   style="fill:none;stroke:#a9ccdb;stroke-miterlimit:10" />
		<line
   stroke-miterlimit="10"
   x1="0"
   y1="320"
   x2="512"
   y2="320"
   id="line24"
   style="fill:none;stroke:#a9ccdb;stroke-miterlimit:10" />
		<line
   stroke-miterlimit="10"
   x1="0"
   y1="352"
   x2="512"
   y2="352"
   id="line26"
   style="fill:none;stroke:#a9ccdb;stroke-miterlimit:10" />
		<line
   stroke-miterlimit="10"
   x1="0"
   y1="384"
   x2="512"
   y2="384"
   id="line28"
   style="fill:none;stroke:#a9ccdb;stroke-miterlimit:10" />
		<line
   stroke-miterlimit="10"
   x1="0"
   y1="416"
   x2="512"
   y2="416"
   id="line30"
   style="fill:none;stroke:#a9ccdb;stroke-miterlimit:10" />
		<line
   stroke-miterlimit="10"
   x1="0"
   y1="448"
   x2="512"
   y2="448"
   id="line32"
   style="fill:none;stroke:#ff0000;stroke-miterlimit:10" />
		<line
   stroke-miterlimit="10"
   x1="0"
   y1="480"
   x2="512"
   y2="480"
   id="line34"
   style="fill:none;stroke:#a9ccdb;stroke-miterlimit:10" />
		<line
   stroke-miterlimit="10"
   x1="32"
   y1="0"
   x2="32"
   y2="512"
   id="line36"
   style="fill:none;stroke:#a9ccdb;stroke-miterlimit:10" />
		<line
   stroke-miterlimit="10"
   x1="64"
   y1="0"
   x2="64"
   y2="512"
   id="line38"
   style="fill:none;stroke:#a9ccdb;stroke-miterlimit:10" />
		<line
   stroke-miterlimit="10"
   x1="96"
   y1="0"
   x2="96"
   y2="512"
   id="line40"
   style="fill:none;stroke:#a9ccdb;stroke-miterlimit:10" />
		<line
   stroke-miterlimit="10"
   x1="128"
   y1="0"
   x2="128"
   y2="512"
   id="line42"
   style="fill:none;stroke:#a9ccdb;stroke-miterlimit:10" />
		<line
   stroke-miterlimit="10"
   x1="160"
   y1="0"
   x2="160"
   y2="512"
   id="line44"
   style="fill:none;stroke:#a9ccdb;stroke-miterlimit:10" />
		<line
   stroke-miterlimit="10"
   x1="192"
   y1="0"
   x2="192"
   y2="512"
   id="line46"
   style="fill:none;stroke:#a9ccdb;stroke-miterlimit:10" />
		<line
   stroke-miterlimit="10"
   x1="224"
   y1="0"
   x2="224"
   y2="512"
   id="line48"
   style="fill:none;stroke:#a9ccdb;stroke-miterlimit:10" />
		<line
   stroke-miterlimit="10"
   x1="256"
   y1="0"
   x2="256"
   y2="512"
   id="line50"
   style="fill:none;stroke:#a9ccdb;stroke-miterlimit:10" />
		<line
   stroke-miterlimit="10"
   x1="288"
   y1="0"
   x2="288"
   y2="512"
   id="line52"
   style="fill:none;stroke:#a9ccdb;stroke-miterlimit:10" />
		<line
   stroke-miterlimit="10"
   x1="320"
   y1="0"
   x2="320"
   y2="512"
   id="line54"
   style="fill:none;stroke:#a9ccdb;stroke-miterlimit:10" />
		<line
   stroke-miterlimit="10"
   x1="352"
   y1="0"
   x2="352"
   y2="512"
   id="line56"
   style="fill:none;stroke:#a9ccdb;stroke-miterlimit:10" />
		<line
   stroke-miterlimit="10"
   x1="384"
   y1="0"
   x2="384"
   y2="512"
   id="line58"
   style="fill:none;stroke:#a9ccdb;stroke-miterlimit:10" />
		<line
   stroke-miterlimit="10"
   x1="416"
   y1="0"
   x2="416"
   y2="512"
   id="line60"
   style="fill:none;stroke:#a9ccdb;stroke-miterlimit:10" />
		<line
   stroke-miterlimit="10"
   x1="448"
   y1="0"
   x2="448"
   y2="512"
   id="line62"
   style="fill:none;stroke:#a9ccdb;stroke-miterlimit:10" />
		<line
   stroke-miterlimit="10"
   x1="480"
   y1="0"
   x2="480"
   y2="512"
   id="line64"
   style="fill:none;stroke:#a9ccdb;stroke-miterlimit:10" />
	</g>
	

	<path
   style="fill:#0000ca;fill-opacity:0.66521738"
   d="m 231.60275,804.6135 c -14.29026,9.88006 -33.08148,17.39593 -47.14679,29.00181 -24.87655,18.81001 -43.74592,21.45396 -70.27767,27.44422 -4.58244,1.04293 -14.17078,2.94033 -21.307241,4.21643 -19.358589,3.8182 -31.185279,-2.4919 -36.758649,-13.59006 -5.35985,-10.673 -4.93636,-25.77429 0.13329,-40.55437 4.21467,-11.91849 9.26151,-21.89027 15.2682,-30.37091 12.80844,-20.7509 31.27447,-30.84659 51.29549,-37.09591 28.25451,-8.8193 59.60597,-9.97817 82.5235,-22.61382 26.39143,-15.64619 51.14837,-34.99044 75.3084,-49.57935 24.35365,-14.68036 48.68949,-28.65408 72.94266,-41.19806 7.17746,-3.64037 12.50876,-9.44801 18.96769,-11.69123 9.56251,-5.53616 16.56065,-16.27189 11.52945,-25.59726 -21.27829,-23.61451 -31.98727,-51.92827 -42.05261,-79.48623 -12.60924,-34.52289 -20.65565,-71.41239 -34.75168,-108.84524 -8.14177,-20.62032 -8.8261,-35.9124 -29.01672,-50.92447 -6.48974,-2.38701 -11.20651,-6.54794 -14.91547,-11.55691 -3.26787,-4.41325 -5.7534,-9.4848 -7.97998,-14.58144 -1.71383,-4.23692 -3.11955,-9.10065 -4.21202,-14.38515 -5.41444,-37.4333 5.69475,-66.32764 21.49462,-93.29004 8.73072,-14.89892 18.89373,-29.20792 28.49246,-44.04181 7.29475,-13.46023 18.69374,-22.35705 26.65338,-33.46785 2.5009,-3.92687 4.49093,-6.63953 6.21614,-8.38497 4.03388,-4.08118 6.61992,-2.87437 10.90324,0.46313 2.26516,1.76498 5.00499,4.12585 8.68465,6.61564 3.19506,1.98851 6.0645,4.37152 8.46821,7.19558 4.46982,5.27929 2.50237,11.35862 2.18842,17.17737 9.59246,37.06034 25.11265,71.33137 37.67126,106.87105 8.84333,25.02579 14.5062,51.82195 23.04763,75.69681 8.72729,24.8192 14.62511,49.75575 19.25911,75.05575 0.97989,24.96805 -0.63246,57.61972 6.44021,80.38772 3.64683,11.7397 9.60273,20.85166 19.41365,24.92764 10.1676,4.22416 24.47564,3.03949 44.6449,-6.23457 20.16667,-10.97344 44.36904,-26.48529 64.07939,-42.64197 17.13212,-14.04328 30.87054,-28.57373 35.61533,-41.03455 2.02498,-7.38062 12.53051,-20.53127 18.20378,-34.79173 -3.75272,-30.75505 -4.25597,-68.10956 -4.84855,-96.84504 1.33258,-21.64481 -4.22042,-78.21396 3.56991,-94.72742 10.33635,-10.2878 18.7704,-26.66371 27.4069,-42.07786 8.86664,-15.82518 20.84067,-31.30607 32.4121,-37.47484 18.72835,7.27817 39.85662,48.35882 45.90974,77.95485 4.97425,53.9599 -1.49598,138.81966 19.767,183.04649 5.20484,9.58652 12.55342,35.2902 13.64921,47.74182 1.17411,11.90637 -1.16961,17.5636 -4.35866,22.6229 -8.12928,15.03019 -11.50389,35.50916 -24.97581,42.73403 -27.34374,12.14377 -35.98458,15.35011 -61.99009,24.29885 -80.39156,54.45358 -164.12299,100.8542 -245.99636,147.74425 -69.59749,39.85949 -137.85233,80.07264 -201.57162,125.88672 z"
   id="path3841"
   inkscape:connector-curvature="0"
   sodipodi:nodetypes="ccccsccscccccsccsccsccsscccsccsscsccccscccccccsc" /></svg>