<?xml version="1.0" encoding="UTF-8" standalone="no"?>
<svg
   xmlns:dc="http://purl.org/dc/elements/1.1/"
   xmlns:cc="http://creativecommons.org/ns#"
   xmlns:rdf="http://www.w3.org/1999/02/22-rdf-syntax-ns#"
   xmlns:svg="http://www.w3.org/2000/svg"
   xmlns="http://www.w3.org/2000/svg"
   xmlns:sodipodi="http://sodipodi.sourceforge.net/DTD/sodipodi-0.dtd"
   xmlns:inkscape="http://www.inkscape.org/namespaces/inkscape"
   version="1.1"
   id="Layer_1"
   x="0px"
   y="0px"
   width="1000"
   height="1000"
   viewBox="0 0 1000 1000"
   enable-background="new 0 0 512 512"
   xml:space="preserve"
   inkscape:version="0.48.0 r9654"
   sodipodi:docname="bethebrew-x5d1.svg"><title
   id="title3743">Sinai 357</title><metadata
   id="metadata72"><rdf:RDF><cc:Work
       rdf:about=""><dc:format>image/svg+xml</dc:format><dc:type
         rdf:resource="http://purl.org/dc/dcmitype/StillImage" /><dc:title>Sinai 357</dc:title><dc:date>2017</dc:date><dc:creator><cc:Agent><dc:title>Celeste Claire Horner</dc:title></cc:Agent></dc:creator><dc:publisher><cc:Agent><dc:title>beitdina.net</dc:title></cc:Agent></dc:publisher></cc:Work></rdf:RDF></metadata><defs
   id="defs70" /><sodipodi:namedview
   pagecolor="#ffffff"
   bordercolor="#666666"
   borderopacity="1"
   objecttolerance="10"
   gridtolerance="10"
   guidetolerance="10"
   inkscape:pageopacity="0"
   inkscape:pageshadow="2"
   inkscape:window-width="1152"
   inkscape:window-height="814"
   id="namedview68"
   showgrid="false"
   inkscape:zoom="0.18022936"
   inkscape:cx="-1569.9667"
   inkscape:cy="377.8682"
   inkscape:window-x="-8"
   inkscape:window-y="-8"
   inkscape:window-maximized="1"
   inkscape:current-layer="Layer_1" />
   
	<g
   id="Grid"
   transform="matrix(1.949083,0,0,1.9463791,0.47454151,1.9751008)">
		<rect
   x="0"
   stroke-miterlimit="10"
   width="512"
   height="512"
   id="rect4"
   y="0"
   style="fill:none;stroke:#a9ccdb;stroke-miterlimit:10" />
		<line
   stroke-miterlimit="10"
   x1="0"
   y1="32"
   x2="512"
   y2="32"
   id="line6"
   style="fill:none;stroke:#a9ccdb;stroke-miterlimit:10" />
		<line
   stroke-miterlimit="10"
   x1="0"
   y1="64"
   x2="512"
   y2="64"
   id="line8"
   style="fill:none;stroke:#a9ccdb;stroke-miterlimit:10" />
		<line
   stroke-miterlimit="10"
   x1="0"
   y1="96"
   x2="512"
   y2="96"
   id="line10"
   style="fill:none;stroke:#a9ccdb;stroke-miterlimit:10" />
		<line
   stroke-miterlimit="10"
   x1="0"
   y1="128"
   x2="512"
   y2="128"
   id="line12"
   style="fill:none;stroke:#a9ccdb;stroke-miterlimit:10" />
		<line
   stroke-miterlimit="10"
   x1="0"
   y1="160"
   x2="512"
   y2="160"
   id="line14"
   style="fill:none;stroke:#a9ccdb;stroke-miterlimit:10" />
		<line
   stroke-miterlimit="10"
   x1="0"
   y1="192"
   x2="512"
   y2="192"
   id="line16"
   style="fill:none;stroke:#a9ccdb;stroke-miterlimit:10" />
		<line
   stroke-miterlimit="10"
   x1="0"
   y1="224"
   x2="512"
   y2="224"
   id="line18"
   style="fill:none;stroke:#a9ccdb;stroke-miterlimit:10" />
		<line
   stroke-miterlimit="10"
   x1="0"
   y1="256"
   x2="512"
   y2="256"
   id="line20"
   style="fill:none;stroke:#a9ccdb;stroke-miterlimit:10" />
		<line
   stroke-miterlimit="10"
   x1="0"
   y1="288"
   x2="512"
   y2="288"
   id="line22"
   style="fill:none;stroke:#a9ccdb;stroke-miterlimit:10" />
		<line
   stroke-miterlimit="10"
   x1="0"
   y1="320"
   x2="512"
   y2="320"
   id="line24"
   style="fill:none;stroke:#a9ccdb;stroke-miterlimit:10" />
		<line
   stroke-miterlimit="10"
   x1="0"
   y1="352"
   x2="512"
   y2="352"
   id="line26"
   style="fill:none;stroke:#a9ccdb;stroke-miterlimit:10" />
		<line
   stroke-miterlimit="10"
   x1="0"
   y1="384"
   x2="512"
   y2="384"
   id="line28"
   style="fill:none;stroke:#a9ccdb;stroke-miterlimit:10" />
		<line
   stroke-miterlimit="10"
   x1="0"
   y1="416"
   x2="512"
   y2="416"
   id="line30"
   style="fill:none;stroke:#a9ccdb;stroke-miterlimit:10" />
		<line
   stroke-miterlimit="10"
   x1="0"
   y1="448"
   x2="512"
   y2="448"
   id="line32"
   style="fill:none;stroke:#ff0000;stroke-miterlimit:10" />
		<line
   stroke-miterlimit="10"
   x1="0"
   y1="480"
   x2="512"
   y2="480"
   id="line34"
   style="fill:none;stroke:#a9ccdb;stroke-miterlimit:10" />
		<line
   stroke-miterlimit="10"
   x1="32"
   y1="0"
   x2="32"
   y2="512"
   id="line36"
   style="fill:none;stroke:#a9ccdb;stroke-miterlimit:10" />
		<line
   stroke-miterlimit="10"
   x1="64"
   y1="0"
   x2="64"
   y2="512"
   id="line38"
   style="fill:none;stroke:#a9ccdb;stroke-miterlimit:10" />
		<line
   stroke-miterlimit="10"
   x1="96"
   y1="0"
   x2="96"
   y2="512"
   id="line40"
   style="fill:none;stroke:#a9ccdb;stroke-miterlimit:10" />
		<line
   stroke-miterlimit="10"
   x1="128"
   y1="0"
   x2="128"
   y2="512"
   id="line42"
   style="fill:none;stroke:#a9ccdb;stroke-miterlimit:10" />
		<line
   stroke-miterlimit="10"
   x1="160"
   y1="0"
   x2="160"
   y2="512"
   id="line44"
   style="fill:none;stroke:#a9ccdb;stroke-miterlimit:10" />
		<line
   stroke-miterlimit="10"
   x1="192"
   y1="0"
   x2="192"
   y2="512"
   id="line46"
   style="fill:none;stroke:#a9ccdb;stroke-miterlimit:10" />
		<line
   stroke-miterlimit="10"
   x1="224"
   y1="0"
   x2="224"
   y2="512"
   id="line48"
   style="fill:none;stroke:#a9ccdb;stroke-miterlimit:10" />
		<line
   stroke-miterlimit="10"
   x1="256"
   y1="0"
   x2="256"
   y2="512"
   id="line50"
   style="fill:none;stroke:#a9ccdb;stroke-miterlimit:10" />
		<line
   stroke-miterlimit="10"
   x1="288"
   y1="0"
   x2="288"
   y2="512"
   id="line52"
   style="fill:none;stroke:#a9ccdb;stroke-miterlimit:10" />
		<line
   stroke-miterlimit="10"
   x1="320"
   y1="0"
   x2="320"
   y2="512"
   id="line54"
   style="fill:none;stroke:#a9ccdb;stroke-miterlimit:10" />
		<line
   stroke-miterlimit="10"
   x1="352"
   y1="0"
   x2="352"
   y2="512"
   id="line56"
   style="fill:none;stroke:#a9ccdb;stroke-miterlimit:10" />
		<line
   stroke-miterlimit="10"
   x1="384"
   y1="0"
   x2="384"
   y2="512"
   id="line58"
   style="fill:none;stroke:#a9ccdb;stroke-miterlimit:10" />
		<line
   stroke-miterlimit="10"
   x1="416"
   y1="0"
   x2="416"
   y2="512"
   id="line60"
   style="fill:none;stroke:#a9ccdb;stroke-miterlimit:10" />
		<line
   stroke-miterlimit="10"
   x1="448"
   y1="0"
   x2="448"
   y2="512"
   id="line62"
   style="fill:none;stroke:#a9ccdb;stroke-miterlimit:10" />
		<line
   stroke-miterlimit="10"
   x1="480"
   y1="0"
   x2="480"
   y2="512"
   id="line64"
   style="fill:none;stroke:#a9ccdb;stroke-miterlimit:10" />
	</g>
	

<path
   style="fill:#82532d"
   d="m 91.471975,67.766451 c -32.47185,-7.54053 -36.55989,16.65025 -29.5415,30.77598 13.85685,21.318159 25.22341,29.781609 52.218945,46.243539 7.07432,4.90443 21.88545,11.92541 37.9107,18.43495 23.22623,7.95945 46.40866,14.93677 69.48369,21.0135 22.00416,5.79467 43.91044,10.77037 65.66396,14.99786 44.59535,8.5753 89.05537,12.13985 128.06613,13.60301 33.41388,1.22969 69.8592,2.27723 103.73768,3.88686 64.10766,3.04582 119.0243,8.10424 126.81766,20.21766 -6.13675,13.39284 -20.40346,61.0072 -21.37192,75.51745 -0.22183,21.22839 -21.53876,44.06363 -27.11346,63.2928 -5.4881,18.93044 -12.83017,42.122 -20.56932,60.40755 -4.41247,10.4255 -10.9157,27.71631 -15.31631,38.25949 -6.8922,16.51267 -11.47698,26.44956 -16.64033,43.99907 -10.05308,30.77319 -23.20112,52.34259 -46.80132,56.35489 -21.84939,-1.71338 -43.95101,-6.16331 -65.89993,-11.538 -38.91391,-8.12517 -81.99777,-23.47036 -122.92382,-29.09879 -21.00472,-2.88871 -41.44104,-3.21792 -60.45352,1.30209 -21.23829,4.77906 -33.42895,16.35133 -41.14915,30.4887 -9.45253,19.93558 -15.39559,41.11553 -20.44543,62.187 -2.2744,17.80853 -9.40459,38.95349 -15.58609,59.85476 -7.14921,24.17333 -13.02946,48.02071 -8.66124,66.00371 5.85957,22.42392 22.25454,39.98081 42.54148,63.95475 23.33884,27.5605 50.71167,55.93353 72.64634,48.69162 8.92482,-5.11499 15.79704,-12.3718 19.32813,-20.88352 4.1746,-10.98889 4.50389,-23.3574 7.09272,-34.83799 2.9734,-19.46308 6.16015,-39.2231 10.04245,-58.73805 4.3536,-21.88403 9.58189,-43.45989 16.3649,-63.96323 1.10993,-8.20794 5.05282,-13.11862 10.39995,-15.99722 9.13286,-4.91664 22.36223,-3.90524 32.56936,-3.26981 1.62456,0.19428 2.57102,3.16621 4.22409,3.36724 17.99641,2.18854 37.97478,5.50244 55.56092,7.81804 2.20001,0.28969 5.08871,-2.15623 7.27855,-1.77983 5.81957,-0.29018 7.84287,0.40235 13.68968,0.64675 14.11987,0.59023 28.53917,2.56686 42.99972,5.33708 1.33767,0.25626 3.72146,3.2773 5.06979,3.51621 21.63128,4.07265 39.42504,9.05605 58.21763,12.56835 17.5908,3.28769 29.84566,5.91769 48.64917,14.25334 7.09414,3.20282 13.1004,4.50047 18.19106,2.91484 4.11657,-1.28222 7.63441,-4.44987 10.64462,-10.02017 19.13678,-79.40827 42.7413,-172.46607 74.45777,-234.96507 8.70875,-16.85835 29.17977,-34.83712 35.03741,-54.74247 4.4232,-16.05442 8.86377,-30.18817 13.39931,-43.92131 5.33085,-16.14122 10.79289,-31.729 16.51213,-49.2314 4.32235,-22.7692 28.72739,-70.151 24.74102,-99.79932 -1.88529,-14.02169 -7.87744,-31.58342 -17.08197,-40.19883 -12.06412,-11.29198 -27.26379,-19.12981 -37.33863,-26.63155 -21.40128,-9.96489 -34.23629,-14.3852 -56.85108,-19.61475 -12.13211,-2.80549 -35.97002,-9.79552 -45.52311,-9.1408 -5.42669,0.71006 -10.57204,-1.53897 -23.36684,-3.14768 -52.915,-6.05508 -104.83891,-11.06546 -155.7433,-15.89978 -70.15,-6.66204 -138.36387,-12.989699 -204.5671,-21.256239 -47.81539,-5.97047 -94.5815,-12.9523 -140.27122,-21.80199 -2.1766,-0.48244 -15.82976,-0.22648 -30.340375,0.56881 z"
   id="path3768"
   inkscape:connector-curvature="0"
   sodipodi:nodetypes="ccccsccsccssscccscccscccccscscsscsscscscccscsscsccssccc" /></svg>