<?xml version="1.0" encoding="UTF-8" standalone="no"?>
<svg
   xmlns:dc="http://purl.org/dc/elements/1.1/"
   xmlns:cc="http://creativecommons.org/ns#"
   xmlns:rdf="http://www.w3.org/1999/02/22-rdf-syntax-ns#"
   xmlns:svg="http://www.w3.org/2000/svg"
   xmlns="http://www.w3.org/2000/svg"
   xmlns:sodipodi="http://sodipodi.sourceforge.net/DTD/sodipodi-0.dtd"
   xmlns:inkscape="http://www.inkscape.org/namespaces/inkscape"
   version="1.1"
   id="Layer_1"
   x="0px"
   y="0px"
   width="1024"
   height="1000"
   viewBox="0 0 1024 1000"
   enable-background="new 0 0 512 512"
   xml:space="preserve"
   inkscape:version="0.48.0 r9654"
   sodipodi:docname="betphoenician-x10901.svg"><title
   id="title3743">Sinai 357</title><metadata
   id="metadata72"><rdf:RDF><cc:Work
       rdf:about=""><dc:format>image/svg+xml</dc:format><dc:type
         rdf:resource="http://purl.org/dc/dcmitype/StillImage" /><dc:title>Sinai 357</dc:title><dc:date>2017</dc:date><dc:creator><cc:Agent><dc:title>Celeste Claire Horner</dc:title></cc:Agent></dc:creator><dc:publisher><cc:Agent><dc:title>beitdina.net</dc:title></cc:Agent></dc:publisher></cc:Work></rdf:RDF></metadata><defs
   id="defs70" /><sodipodi:namedview
   pagecolor="#ffffff"
   bordercolor="#666666"
   borderopacity="1"
   objecttolerance="10"
   gridtolerance="10"
   guidetolerance="10"
   inkscape:pageopacity="0"
   inkscape:pageshadow="2"
   inkscape:window-width="1152"
   inkscape:window-height="814"
   id="namedview68"
   showgrid="false"
   inkscape:zoom="0.25488281"
   inkscape:cx="-988.64643"
   inkscape:cy="799.42165"
   inkscape:window-x="-8"
   inkscape:window-y="-8"
   inkscape:window-maximized="1"
   inkscape:current-layer="Layer_1" />
   
	<g
   id="Grid"
   transform="matrix(1.9797045,0,0,1.9463791,0.47454151,5.8984726)">
		<rect
   x="0"
   stroke-miterlimit="10"
   width="512"
   height="512"
   id="rect4"
   y="0"
   style="fill:none;stroke:#a9ccdb;stroke-miterlimit:10" />
		<line
   stroke-miterlimit="10"
   x1="0"
   y1="32"
   x2="512"
   y2="32"
   id="line6"
   style="fill:none;stroke:#a9ccdb;stroke-miterlimit:10" />
		<line
   stroke-miterlimit="10"
   x1="0"
   y1="64"
   x2="512"
   y2="64"
   id="line8"
   style="fill:none;stroke:#a9ccdb;stroke-miterlimit:10" />
		<line
   stroke-miterlimit="10"
   x1="0"
   y1="96"
   x2="512"
   y2="96"
   id="line10"
   style="fill:none;stroke:#a9ccdb;stroke-miterlimit:10" />
		<line
   stroke-miterlimit="10"
   x1="0"
   y1="128"
   x2="512"
   y2="128"
   id="line12"
   style="fill:none;stroke:#a9ccdb;stroke-miterlimit:10" />
		<line
   stroke-miterlimit="10"
   x1="0"
   y1="160"
   x2="512"
   y2="160"
   id="line14"
   style="fill:none;stroke:#a9ccdb;stroke-miterlimit:10" />
		<line
   stroke-miterlimit="10"
   x1="0"
   y1="192"
   x2="512"
   y2="192"
   id="line16"
   style="fill:none;stroke:#a9ccdb;stroke-miterlimit:10" />
		<line
   stroke-miterlimit="10"
   x1="0"
   y1="224"
   x2="512"
   y2="224"
   id="line18"
   style="fill:none;stroke:#a9ccdb;stroke-miterlimit:10" />
		<line
   stroke-miterlimit="10"
   x1="0"
   y1="256"
   x2="512"
   y2="256"
   id="line20"
   style="fill:none;stroke:#a9ccdb;stroke-miterlimit:10" />
		<line
   stroke-miterlimit="10"
   x1="0"
   y1="288"
   x2="512"
   y2="288"
   id="line22"
   style="fill:none;stroke:#a9ccdb;stroke-miterlimit:10" />
		<line
   stroke-miterlimit="10"
   x1="0"
   y1="320"
   x2="512"
   y2="320"
   id="line24"
   style="fill:none;stroke:#a9ccdb;stroke-miterlimit:10" />
		<line
   stroke-miterlimit="10"
   x1="0"
   y1="352"
   x2="512"
   y2="352"
   id="line26"
   style="fill:none;stroke:#a9ccdb;stroke-miterlimit:10" />
		<line
   stroke-miterlimit="10"
   x1="0"
   y1="384"
   x2="512"
   y2="384"
   id="line28"
   style="fill:none;stroke:#a9ccdb;stroke-miterlimit:10" />
		<line
   stroke-miterlimit="10"
   x1="0"
   y1="416"
   x2="512"
   y2="416"
   id="line30"
   style="fill:none;stroke:#a9ccdb;stroke-miterlimit:10" />
		<line
   stroke-miterlimit="10"
   x1="0"
   y1="448"
   x2="512"
   y2="448"
   id="line32"
   style="fill:none;stroke:#ff0000;stroke-miterlimit:10" />
		<line
   stroke-miterlimit="10"
   x1="0"
   y1="480"
   x2="512"
   y2="480"
   id="line34"
   style="fill:none;stroke:#a9ccdb;stroke-miterlimit:10" />
		<line
   stroke-miterlimit="10"
   x1="32"
   y1="0"
   x2="32"
   y2="512"
   id="line36"
   style="fill:none;stroke:#a9ccdb;stroke-miterlimit:10" />
		<line
   stroke-miterlimit="10"
   x1="64"
   y1="0"
   x2="64"
   y2="512"
   id="line38"
   style="fill:none;stroke:#a9ccdb;stroke-miterlimit:10" />
		<line
   stroke-miterlimit="10"
   x1="96"
   y1="0"
   x2="96"
   y2="512"
   id="line40"
   style="fill:none;stroke:#a9ccdb;stroke-miterlimit:10" />
		<line
   stroke-miterlimit="10"
   x1="128"
   y1="0"
   x2="128"
   y2="512"
   id="line42"
   style="fill:none;stroke:#a9ccdb;stroke-miterlimit:10" />
		<line
   stroke-miterlimit="10"
   x1="160"
   y1="0"
   x2="160"
   y2="512"
   id="line44"
   style="fill:none;stroke:#a9ccdb;stroke-miterlimit:10" />
		<line
   stroke-miterlimit="10"
   x1="192"
   y1="0"
   x2="192"
   y2="512"
   id="line46"
   style="fill:none;stroke:#a9ccdb;stroke-miterlimit:10" />
		<line
   stroke-miterlimit="10"
   x1="224"
   y1="0"
   x2="224"
   y2="512"
   id="line48"
   style="fill:none;stroke:#a9ccdb;stroke-miterlimit:10" />
		<line
   stroke-miterlimit="10"
   x1="256"
   y1="0"
   x2="256"
   y2="512"
   id="line50"
   style="fill:none;stroke:#a9ccdb;stroke-miterlimit:10" />
		<line
   stroke-miterlimit="10"
   x1="288"
   y1="0"
   x2="288"
   y2="512"
   id="line52"
   style="fill:none;stroke:#a9ccdb;stroke-miterlimit:10" />
		<line
   stroke-miterlimit="10"
   x1="320"
   y1="0"
   x2="320"
   y2="512"
   id="line54"
   style="fill:none;stroke:#a9ccdb;stroke-miterlimit:10" />
		<line
   stroke-miterlimit="10"
   x1="352"
   y1="0"
   x2="352"
   y2="512"
   id="line56"
   style="fill:none;stroke:#a9ccdb;stroke-miterlimit:10" />
		<line
   stroke-miterlimit="10"
   x1="384"
   y1="0"
   x2="384"
   y2="512"
   id="line58"
   style="fill:none;stroke:#a9ccdb;stroke-miterlimit:10" />
		<line
   stroke-miterlimit="10"
   x1="416"
   y1="0"
   x2="416"
   y2="512"
   id="line60"
   style="fill:none;stroke:#a9ccdb;stroke-miterlimit:10" />
		<line
   stroke-miterlimit="10"
   x1="448"
   y1="0"
   x2="448"
   y2="512"
   id="line62"
   style="fill:none;stroke:#a9ccdb;stroke-miterlimit:10" />
		<line
   stroke-miterlimit="10"
   x1="480"
   y1="0"
   x2="480"
   y2="512"
   id="line64"
   style="fill:none;stroke:#a9ccdb;stroke-miterlimit:10" />
	</g>
	


<path
   style="fill:#82532d"
   d="m 129.09705,70.175201 c -17.60518,1.514178 -19.28526,20.070285 -14.03404,31.709169 12.43024,21.05877 22.62655,29.41924 46.84285,45.68087 6.34595,4.84476 19.63222,11.78031 34.00755,18.21066 20.83509,7.86259 41.63062,14.75505 62.33004,20.75784 19.73877,5.72415 39.38967,10.6393 58.90344,14.81534 40.00421,8.47098 79.88683,11.99217 114.88124,13.43752 29.97367,1.21474 62.66693,2.24952 93.05733,3.83958 57.50761,3.00875 106.7703,8.00562 113.76113,19.97164 -5.95001,25.51989 -14.12021,51.64536 -22.31751,76.95294 -9.75472,26.81768 -17.5736,54.6852 -25.00092,82.19374 -7.69549,28.50176 -14.97065,56.61817 -23.54315,82.78223 -13.23759,39.98598 -29.62322,74.01538 -53.34578,86.8528 -19.05434,9.79336 -42.23127,3.03859 -67.5023,-6.45856 -34.90776,-8.02629 -73.55595,-23.18479 -110.26826,-28.74474 -18.84219,-2.85355 -37.17469,-3.17876 -54.22954,1.28626 -19.0519,4.7209 -29.98727,16.15238 -36.9128,30.11773 -8.47938,19.69302 -13.81054,40.61526 -18.34051,61.43035 -6.23735,23.37727 -10.37019,48.84531 -11.32036,74.00822 -1.60757,42.57311 5.89544,84.2728 27.73107,113.4955 20.93606,27.22516 45.49071,55.25295 65.1671,48.09918 8.00608,-5.05277 14.17072,-12.22126 17.3381,-20.62944 3.74504,-10.85519 4.04042,-23.07321 6.36269,-34.41409 2.66715,-19.22627 5.52581,-38.74586 9.00848,-58.0234 3.90523,-21.61775 8.59539,-42.93108 14.67993,-63.18495 0.99584,-8.10808 4.53264,-12.959 9.32935,-15.80258 8.19249,-4.85682 20.05987,-3.85773 29.21617,-3.23002 1.45723,0.19194 2.30624,3.12768 3.78921,3.32627 16.14347,2.1619 34.06506,5.4355 49.84059,7.72292 1.97349,0.28617 4.56492,-2.13001 6.52918,-1.75818 5.22049,-0.28666 7.03549,0.39746 12.28024,0.63888 12.66615,0.58306 25.60098,2.53563 38.57271,5.27213 1.19996,0.25315 3.33849,3.23743 4.54792,3.47342 19.40431,4.0231 35.366,8.94588 52.22378,12.41546 15.7799,3.24768 26.77303,5.84569 43.64052,14.0799 6.3639,3.16386 11.75161,4.4457 16.31823,2.87938 3.69286,-1.26663 6.84835,-4.39574 9.54876,-9.89824 21.8821,-51.62452 39.71493,-105.28125 56.38866,-158.05131 17.31211,-54.79033 33.37467,-108.62481 51.4227,-158.23626 22.87171,-57.29817 42.18168,-112.65229 39.43644,-160.49936 -1.69121,-13.85107 -7.0663,-31.19913 -15.32335,-39.70973 -10.82203,-11.15457 -24.45684,-18.89704 -33.49445,-26.30751 -19.19776,-9.84366 -30.71128,-14.21018 -50.99784,-19.37608 -10.88318,-2.77137 -32.26681,-9.67634 -40.83623,-9.0296 -4.86807,0.70144 -9.48371,-1.52024 -20.9613,-3.10936 -47.46711,-5.98142 -94.04517,-10.93083 -139.70869,-15.70633 -62.92785,-6.581 -124.1186,-12.83166 -183.50602,-20.997607 -44.11865,-6.45366 -83.11258,-14.268728 -122.21806,-19.027825 -15.01899,-1.065234 -29.16729,-4.25935 -43.2943,-3.254757 z"
   id="path3768-1"
   inkscape:connector-curvature="0"
   sodipodi:nodetypes="ccccsccsccscccscccsccccscscsscsscscscsccscsccsccc" />
</svg>