<?xml version="1.0" encoding="UTF-8" standalone="no"?>
<svg
   xmlns:dc="http://purl.org/dc/elements/1.1/"
   xmlns:cc="http://creativecommons.org/ns#"
   xmlns:rdf="http://www.w3.org/1999/02/22-rdf-syntax-ns#"
   xmlns:svg="http://www.w3.org/2000/svg"
   xmlns="http://www.w3.org/2000/svg"
   xmlns:sodipodi="http://sodipodi.sourceforge.net/DTD/sodipodi-0.dtd"
   xmlns:inkscape="http://www.inkscape.org/namespaces/inkscape"
   version="1.1"
   id="Layer_1"
   x="0px"
   y="0px"
   width="800"
   height="1000"
   viewBox="0 0 800 1000"
   enable-background="new 0 0 512 512"
   xml:space="preserve"
   inkscape:version="0.48.0 r9654"
   sodipodi:docname="dalhebrew-x5d3.svg"><title
   id="title3743">Sinai 357</title><metadata
   id="metadata72"><rdf:RDF><cc:Work
       rdf:about=""><dc:format>image/svg+xml</dc:format><dc:type
         rdf:resource="http://purl.org/dc/dcmitype/StillImage" /><dc:title>Sinai 357</dc:title><dc:date>2017</dc:date><dc:creator><cc:Agent><dc:title>Celeste Claire Horner</dc:title></cc:Agent></dc:creator><dc:publisher><cc:Agent><dc:title>beitdina.net</dc:title></cc:Agent></dc:publisher></cc:Work></rdf:RDF></metadata><defs
   id="defs70" /><sodipodi:namedview
   pagecolor="#ffffff"
   bordercolor="#666666"
   borderopacity="1"
   objecttolerance="10"
   gridtolerance="10"
   guidetolerance="10"
   inkscape:pageopacity="0"
   inkscape:pageshadow="2"
   inkscape:window-width="1152"
   inkscape:window-height="814"
   id="namedview68"
   showgrid="false"
   inkscape:zoom="0.22627416"
   inkscape:cx="-1343.6245"
   inkscape:cy="432.33286"
   inkscape:window-x="-8"
   inkscape:window-y="-8"
   inkscape:window-maximized="1"
   inkscape:current-layer="Layer_1" />
   
	<g
   id="Grid"
   transform="matrix(1.5527409,0,0,1.9463791,4.8939593,2.3372608)">
		<rect
   x="0"
   stroke-miterlimit="10"
   width="512"
   height="512"
   id="rect4"
   y="0"
   style="fill:none;stroke:#a9ccdb;stroke-miterlimit:10" />
		<line
   stroke-miterlimit="10"
   x1="0"
   y1="32"
   x2="512"
   y2="32"
   id="line6"
   style="fill:none;stroke:#a9ccdb;stroke-miterlimit:10" />
		<line
   stroke-miterlimit="10"
   x1="0"
   y1="64"
   x2="512"
   y2="64"
   id="line8"
   style="fill:none;stroke:#a9ccdb;stroke-miterlimit:10" />
		<line
   stroke-miterlimit="10"
   x1="0"
   y1="96"
   x2="512"
   y2="96"
   id="line10"
   style="fill:none;stroke:#a9ccdb;stroke-miterlimit:10" />
		<line
   stroke-miterlimit="10"
   x1="0"
   y1="128"
   x2="512"
   y2="128"
   id="line12"
   style="fill:none;stroke:#a9ccdb;stroke-miterlimit:10" />
		<line
   stroke-miterlimit="10"
   x1="0"
   y1="160"
   x2="512"
   y2="160"
   id="line14"
   style="fill:none;stroke:#a9ccdb;stroke-miterlimit:10" />
		<line
   stroke-miterlimit="10"
   x1="0"
   y1="192"
   x2="512"
   y2="192"
   id="line16"
   style="fill:none;stroke:#a9ccdb;stroke-miterlimit:10" />
		<line
   stroke-miterlimit="10"
   x1="0"
   y1="224"
   x2="512"
   y2="224"
   id="line18"
   style="fill:none;stroke:#a9ccdb;stroke-miterlimit:10" />
		<line
   stroke-miterlimit="10"
   x1="0"
   y1="256"
   x2="512"
   y2="256"
   id="line20"
   style="fill:none;stroke:#a9ccdb;stroke-miterlimit:10" />
		<line
   stroke-miterlimit="10"
   x1="0"
   y1="288"
   x2="512"
   y2="288"
   id="line22"
   style="fill:none;stroke:#a9ccdb;stroke-miterlimit:10" />
		<line
   stroke-miterlimit="10"
   x1="0"
   y1="320"
   x2="512"
   y2="320"
   id="line24"
   style="fill:none;stroke:#a9ccdb;stroke-miterlimit:10" />
		<line
   stroke-miterlimit="10"
   x1="0"
   y1="352"
   x2="512"
   y2="352"
   id="line26"
   style="fill:none;stroke:#a9ccdb;stroke-miterlimit:10" />
		<line
   stroke-miterlimit="10"
   x1="0"
   y1="384"
   x2="512"
   y2="384"
   id="line28"
   style="fill:none;stroke:#a9ccdb;stroke-miterlimit:10" />
		<line
   stroke-miterlimit="10"
   x1="0"
   y1="416"
   x2="512"
   y2="416"
   id="line30"
   style="fill:none;stroke:#a9ccdb;stroke-miterlimit:10" />
		<line
   stroke-miterlimit="10"
   x1="0"
   y1="448"
   x2="512"
   y2="448"
   id="line32"
   style="fill:none;stroke:#ff0000;stroke-miterlimit:10" />
		<line
   stroke-miterlimit="10"
   x1="0"
   y1="480"
   x2="512"
   y2="480"
   id="line34"
   style="fill:none;stroke:#a9ccdb;stroke-miterlimit:10" />
		<line
   stroke-miterlimit="10"
   x1="32"
   y1="0"
   x2="32"
   y2="512"
   id="line36"
   style="fill:none;stroke:#a9ccdb;stroke-miterlimit:10" />
		<line
   stroke-miterlimit="10"
   x1="64"
   y1="0"
   x2="64"
   y2="512"
   id="line38"
   style="fill:none;stroke:#a9ccdb;stroke-miterlimit:10" />
		<line
   stroke-miterlimit="10"
   x1="96"
   y1="0"
   x2="96"
   y2="512"
   id="line40"
   style="fill:none;stroke:#a9ccdb;stroke-miterlimit:10" />
		<line
   stroke-miterlimit="10"
   x1="128"
   y1="0"
   x2="128"
   y2="512"
   id="line42"
   style="fill:none;stroke:#a9ccdb;stroke-miterlimit:10" />
		<line
   stroke-miterlimit="10"
   x1="160"
   y1="0"
   x2="160"
   y2="512"
   id="line44"
   style="fill:none;stroke:#a9ccdb;stroke-miterlimit:10" />
		<line
   stroke-miterlimit="10"
   x1="192"
   y1="0"
   x2="192"
   y2="512"
   id="line46"
   style="fill:none;stroke:#a9ccdb;stroke-miterlimit:10" />
		<line
   stroke-miterlimit="10"
   x1="224"
   y1="0"
   x2="224"
   y2="512"
   id="line48"
   style="fill:none;stroke:#a9ccdb;stroke-miterlimit:10" />
		<line
   stroke-miterlimit="10"
   x1="256"
   y1="0"
   x2="256"
   y2="512"
   id="line50"
   style="fill:none;stroke:#a9ccdb;stroke-miterlimit:10" />
		<line
   stroke-miterlimit="10"
   x1="288"
   y1="0"
   x2="288"
   y2="512"
   id="line52"
   style="fill:none;stroke:#a9ccdb;stroke-miterlimit:10" />
		<line
   stroke-miterlimit="10"
   x1="320"
   y1="0"
   x2="320"
   y2="512"
   id="line54"
   style="fill:none;stroke:#a9ccdb;stroke-miterlimit:10" />
		<line
   stroke-miterlimit="10"
   x1="352"
   y1="0"
   x2="352"
   y2="512"
   id="line56"
   style="fill:none;stroke:#a9ccdb;stroke-miterlimit:10" />
		<line
   stroke-miterlimit="10"
   x1="384"
   y1="0"
   x2="384"
   y2="512"
   id="line58"
   style="fill:none;stroke:#a9ccdb;stroke-miterlimit:10" />
		<line
   stroke-miterlimit="10"
   x1="416"
   y1="0"
   x2="416"
   y2="512"
   id="line60"
   style="fill:none;stroke:#a9ccdb;stroke-miterlimit:10" />
		<line
   stroke-miterlimit="10"
   x1="448"
   y1="0"
   x2="448"
   y2="512"
   id="line62"
   style="fill:none;stroke:#a9ccdb;stroke-miterlimit:10" />
		<line
   stroke-miterlimit="10"
   x1="480"
   y1="0"
   x2="480"
   y2="512"
   id="line64"
   style="fill:none;stroke:#a9ccdb;stroke-miterlimit:10" />
	</g>
    
	 
<path
   style="fill:#5aa7d0;fill-opacity:0.73478262"
   d="m 483.71987,73.377901 c -2.34644,1.90492 -3.10746,4.15514 -3.55661,6.41236 -0.50535,2.53979 -0.61587,5.08836 -2.14575,7.16381 -29.4671,21.089839 -57.30252,57.286099 -71.34231,82.109709 -3.8634,7.59466 -6.52297,14.60109 -8.48934,22.87569 -2.29714,20.62427 -5.10471,41.24753 -8.01708,61.52757 -3.25959,22.69788 -6.65046,44.96584 -9.60392,66.32411 -2.95843,21.4826 -5.59247,42.87851 -7.43293,63.97135 -1.82345,20.89804 -2.86791,41.49857 -2.67705,61.59117 0.25368,19.74937 0.99885,39.28214 1.61959,58.51231 1.7197,26.62108 -4.15798,38.22001 -14.80465,42.51486 -18.16234,-0.15613 -36.86376,-0.82828 -55.75507,-1.99983 -46.4682,-2.88174 -94.08534,-8.78507 -137.65471,-17.46255 -10.37304,-2.68869 -17.51731,-8.4516 -24.58701,-13.29418 -5.70368,-5.42876 -12.51122,-5.24418 -18.22939,-8.01424 -5.85122,-3.70198 -11.99843,-10.05595 -18.84639,-10.23232 -4.388585,1.26524 -10.913794,2.22791 -16.551158,4.18936 -5.338569,1.85749 -9.880915,4.61069 -11.058448,9.36482 -2.374252,8.78597 -1.869838,16.48075 -0.510935,23.81087 1.775366,7.71084 3.021313,14.75394 4.695637,21.63546 0.843479,3.46672 1.795675,6.89244 2.979043,10.34187 15.70685,45.67285 40.659831,72.77883 32.280051,126.41955 1.2436,9.38329 -4.6581,16.46424 -4.9946,24.29017 -0.7072,7.78603 -2.1528,15.38457 -3.8807,22.25543 -1.5813,16.73768 -7.973296,30.95899 -11.723596,46.08467 -2.442,10.00332 -3.3965,18.95862 -0.8492,25.46502 3.2334,6.70173 5.1372,4.90313 9.437796,5.14892 4.1656,-0.17912 10.48,0.6632 12.8872,-2.05162 3.5878,-4.46617 7.1915,-2.44424 9.9014,-2.40569 1.3504,0.0191 3.9727,-0.87899 5.6571,0.82585 2.6311,2.88965 4.6102,0.25035 8.8289,2.64988 3.5029,1.19239 10.7672,-2.01954 11.7272,-4.87192 1.8645,-4.38473 6.8866,-1.89282 8.0937,-1.3701 7.3933,0.86201 7.9277,-2.99211 12.4558,-7.28718 4.4591,-2.76774 5.2418,-4.50576 6.5407,-9.01974 2.2152,-6.36234 3.4111,-11.80635 5.1877,-17.60628 0.6069,-2.01433 0.736,-4.58278 1.516,-6.62251 2.1061,-5.5078 3.8293,-11.07259 3.8293,-12.36618 5.5286,-10.48373 6.1524,-23.48435 5.4189,-35.04546 -0.4635,-7.0864 -1.2811,-14.20371 -1.4509,-21.26337 0.8901,-6.12065 -0.384,-11.18803 -1.3679,-16.44613 -1.7138,-9.20479 -0.049,-16.96552 -2.3239,-21.74703 -2.56,-4.92933 -1.7857,-7.65033 0.7381,-10.44969 1.9558,-2.16933 2.5688,-5.42691 5.8883,-8.75451 2.7052,-2.46551 4.207,-5.31323 5.3691,-8.19613 7.46966,2.64248 15.71006,5.0383 24.09471,6.43063 9.35358,1.55323 18.8867,1.85764 27.72964,-0.13747 7.98916,-1.82868 15.92986,-4.19574 25.79186,-2.78577 9.13948,1.5609 18.05027,-1.2785 29.26162,3.85916 15.42526,7.0687 28.58099,21.51792 40.07585,33.34133 7.2346,4.5691 12.24108,10.10012 18.81348,19.54744 7.53494,14.16505 16.67517,45.80654 22.16702,62.14807 8.48667,13.18234 3.07812,28.96717 13.04431,38.7642 3.60739,3.41898 7.47872,6.35131 11.20311,7.3977 4.57367,1.24955 9.1849,1.54348 12.07547,4.53033 5.15143,2.82219 12.33457,4.11089 20.05256,4.05206 15.08958,-0.11501 32.22365,-5.3809 40.21583,-14.40778 3.14477,-3.66568 8.52128,-9.51056 8.41442,-15.73714 14.5967,-8.89935 19.44151,-12.5219 20.58517,-31.28353 4.18776,-5.82949 5.42257,-11.66785 3.87967,-15.89731 -2.72342,-7.46551 -11.76379,-12.2557 -11.7954,-19.83563 0.46675,-6.63915 1.89084,-14.31574 3.16465,-17.05912 3.96911,-8.54825 -23.01372,-71.1315 -27.2407,-86.80265 -0.80966,-3.00172 -3.56591,-7.17954 -6.12502,-9.28402 -5.08748,-4.1837 -3.76528,-8.51035 -3.76528,-18.26934 0,-3.26844 1.36336,-11.8838 3.0297,-19.14528 0.80325,-3.79176 0.12881,-24.22535 0.30766,-28.13599 16.51813,-91.53993 28.89664,-177.78321 33.54069,-254.9016 1.22975,-20.46307 18.84841,-66.38463 21.83657,-86.07274 1.50416,-11.19319 13.39035,-28.41495 10.63605,-36.68864 -2.37421,-3.92668 -0.79637,-7.22997 -0.44046,-9.45509 0.37181,-3.77697 0.03,-9.0346 -1.14867,-11.6324 1.16249,-2.67886 0.88614,-6.21887 0.43716,-9.60478 -0.47196,-3.55912 -1.13464,-6.94798 -0.51743,-8.98752 2.90696,-9.56711 -2.38729,-13.84326 -9.56598,-19.486709 -8.56845,-6.73596 -11.5729,-10.83133 -14.243,-10.83133 -3.853,-1.58388 -8.80229,-4.49866 -11.19749,-7.81328 -1.42251,-2.07131 -2.98719,-3.89289 -5.26137,-4.72285 -7.94853,-3.11805 -12.2223,-3.13679 -16.25393,-0.071 z"
   id="path3771"
   inkscape:connector-curvature="0"
   sodipodi:nodetypes="cscccscscccsccccsccsccccccccscccccccscccccsccsccsccccccscccscsssscccccccscsccccc" /></svg>