<?xml version="1.0" encoding="UTF-8" standalone="no"?>
<svg
   xmlns:dc="http://purl.org/dc/elements/1.1/"
   xmlns:cc="http://creativecommons.org/ns#"
   xmlns:rdf="http://www.w3.org/1999/02/22-rdf-syntax-ns#"
   xmlns:svg="http://www.w3.org/2000/svg"
   xmlns="http://www.w3.org/2000/svg"
   xmlns:sodipodi="http://sodipodi.sourceforge.net/DTD/sodipodi-0.dtd"
   xmlns:inkscape="http://www.inkscape.org/namespaces/inkscape"
   version="1.1"
   id="Layer_1"
   x="0px"
   y="0px"
   width="1024"
   height="1024"
   viewBox="0 0 1024 1024"
   enable-background="new 0 0 512 512"
   xml:space="preserve"
   inkscape:version="0.48.0 r9654"
   sodipodi:docname="finalkafhebrew-x5da.svg"><title
   id="title3743">Sinai 357</title><metadata
   id="metadata72"><rdf:RDF><cc:Work
       rdf:about=""><dc:format>image/svg+xml</dc:format><dc:type
         rdf:resource="http://purl.org/dc/dcmitype/StillImage" /><dc:title>Sinai 357</dc:title><dc:date>2017</dc:date><dc:creator><cc:Agent><dc:title>Celeste Claire Horner</dc:title></cc:Agent></dc:creator><dc:publisher><cc:Agent><dc:title>beitdina.net</dc:title></cc:Agent></dc:publisher></cc:Work></rdf:RDF></metadata><defs
   id="defs70" /><sodipodi:namedview
   pagecolor="#ffffff"
   bordercolor="#666666"
   borderopacity="1"
   objecttolerance="10"
   gridtolerance="10"
   guidetolerance="10"
   inkscape:pageopacity="0"
   inkscape:pageshadow="2"
   inkscape:window-width="1152"
   inkscape:window-height="814"
   id="namedview68"
   showgrid="false"
   inkscape:zoom="0.25488281"
   inkscape:cx="-332.31317"
   inkscape:cy="561.80687"
   inkscape:window-x="-8"
   inkscape:window-y="-8"
   inkscape:window-maximized="1"
   inkscape:current-layer="Layer_1" />
   
	<g
   id="Grid"
   transform="matrix(2.0004581,0,0,2.0004578,0.50019527,4.8138064)">
		<rect
   x="0"
   stroke-miterlimit="10"
   width="512"
   height="512"
   id="rect4"
   y="0"
   style="fill:none;stroke:#a9ccdb;stroke-miterlimit:10" />
		<line
   stroke-miterlimit="10"
   x1="0"
   y1="32"
   x2="512"
   y2="32"
   id="line6"
   style="fill:none;stroke:#a9ccdb;stroke-miterlimit:10" />
		<line
   stroke-miterlimit="10"
   x1="0"
   y1="64"
   x2="512"
   y2="64"
   id="line8"
   style="fill:none;stroke:#a9ccdb;stroke-miterlimit:10" />
		<line
   stroke-miterlimit="10"
   x1="0"
   y1="96"
   x2="512"
   y2="96"
   id="line10"
   style="fill:none;stroke:#a9ccdb;stroke-miterlimit:10" />
		<line
   stroke-miterlimit="10"
   x1="0"
   y1="128"
   x2="512"
   y2="128"
   id="line12"
   style="fill:none;stroke:#a9ccdb;stroke-miterlimit:10" />
		<line
   stroke-miterlimit="10"
   x1="0"
   y1="160"
   x2="512"
   y2="160"
   id="line14"
   style="fill:none;stroke:#a9ccdb;stroke-miterlimit:10" />
		<line
   stroke-miterlimit="10"
   x1="0"
   y1="192"
   x2="512"
   y2="192"
   id="line16"
   style="fill:none;stroke:#a9ccdb;stroke-miterlimit:10" />
		<line
   stroke-miterlimit="10"
   x1="0"
   y1="224"
   x2="512"
   y2="224"
   id="line18"
   style="fill:none;stroke:#a9ccdb;stroke-miterlimit:10" />
		<line
   stroke-miterlimit="10"
   x1="0"
   y1="256"
   x2="512"
   y2="256"
   id="line20"
   style="fill:none;stroke:#a9ccdb;stroke-miterlimit:10" />
		<line
   stroke-miterlimit="10"
   x1="0"
   y1="288"
   x2="512"
   y2="288"
   id="line22"
   style="fill:none;stroke:#a9ccdb;stroke-miterlimit:10" />
		<line
   stroke-miterlimit="10"
   x1="0"
   y1="320"
   x2="512"
   y2="320"
   id="line24"
   style="fill:none;stroke:#a9ccdb;stroke-miterlimit:10" />
		<line
   stroke-miterlimit="10"
   x1="0"
   y1="352"
   x2="512"
   y2="352"
   id="line26"
   style="fill:none;stroke:#a9ccdb;stroke-miterlimit:10" />
		<line
   stroke-miterlimit="10"
   x1="0"
   y1="384"
   x2="512"
   y2="384"
   id="line28"
   style="fill:none;stroke:#a9ccdb;stroke-miterlimit:10" />
		<line
   stroke-miterlimit="10"
   x1="0"
   y1="416"
   x2="512"
   y2="416"
   id="line30"
   style="fill:none;stroke:#a9ccdb;stroke-miterlimit:10" />
		<line
   stroke-miterlimit="10"
   x1="0"
   y1="448"
   x2="512"
   y2="448"
   id="line32"
   style="fill:none;stroke:#ff0000;stroke-miterlimit:10" />
		<line
   stroke-miterlimit="10"
   x1="0"
   y1="480"
   x2="512"
   y2="480"
   id="line34"
   style="fill:none;stroke:#a9ccdb;stroke-miterlimit:10" />
		<line
   stroke-miterlimit="10"
   x1="32"
   y1="0"
   x2="32"
   y2="512"
   id="line36"
   style="fill:none;stroke:#a9ccdb;stroke-miterlimit:10" />
		<line
   stroke-miterlimit="10"
   x1="64"
   y1="0"
   x2="64"
   y2="512"
   id="line38"
   style="fill:none;stroke:#a9ccdb;stroke-miterlimit:10" />
		<line
   stroke-miterlimit="10"
   x1="96"
   y1="0"
   x2="96"
   y2="512"
   id="line40"
   style="fill:none;stroke:#a9ccdb;stroke-miterlimit:10" />
		<line
   stroke-miterlimit="10"
   x1="128"
   y1="0"
   x2="128"
   y2="512"
   id="line42"
   style="fill:none;stroke:#a9ccdb;stroke-miterlimit:10" />
		<line
   stroke-miterlimit="10"
   x1="160"
   y1="0"
   x2="160"
   y2="512"
   id="line44"
   style="fill:none;stroke:#a9ccdb;stroke-miterlimit:10" />
		<line
   stroke-miterlimit="10"
   x1="192"
   y1="0"
   x2="192"
   y2="512"
   id="line46"
   style="fill:none;stroke:#a9ccdb;stroke-miterlimit:10" />
		<line
   stroke-miterlimit="10"
   x1="224"
   y1="0"
   x2="224"
   y2="512"
   id="line48"
   style="fill:none;stroke:#a9ccdb;stroke-miterlimit:10" />
		<line
   stroke-miterlimit="10"
   x1="256"
   y1="0"
   x2="256"
   y2="512"
   id="line50"
   style="fill:none;stroke:#a9ccdb;stroke-miterlimit:10" />
		<line
   stroke-miterlimit="10"
   x1="288"
   y1="0"
   x2="288"
   y2="512"
   id="line52"
   style="fill:none;stroke:#a9ccdb;stroke-miterlimit:10" />
		<line
   stroke-miterlimit="10"
   x1="320"
   y1="0"
   x2="320"
   y2="512"
   id="line54"
   style="fill:none;stroke:#a9ccdb;stroke-miterlimit:10" />
		<line
   stroke-miterlimit="10"
   x1="352"
   y1="0"
   x2="352"
   y2="512"
   id="line56"
   style="fill:none;stroke:#a9ccdb;stroke-miterlimit:10" />
		<line
   stroke-miterlimit="10"
   x1="384"
   y1="0"
   x2="384"
   y2="512"
   id="line58"
   style="fill:none;stroke:#a9ccdb;stroke-miterlimit:10" />
		<line
   stroke-miterlimit="10"
   x1="416"
   y1="0"
   x2="416"
   y2="512"
   id="line60"
   style="fill:none;stroke:#a9ccdb;stroke-miterlimit:10" />
		<line
   stroke-miterlimit="10"
   x1="448"
   y1="0"
   x2="448"
   y2="512"
   id="line62"
   style="fill:none;stroke:#a9ccdb;stroke-miterlimit:10" />
		<line
   stroke-miterlimit="10"
   x1="480"
   y1="0"
   x2="480"
   y2="512"
   id="line64"
   style="fill:none;stroke:#a9ccdb;stroke-miterlimit:10" />
	</g>
    
	<path
   style="fill:#9f4b11"
   d="m 376.11921,54.228356 c 28.01238,97.732394 45.93971,179.894014 35.27715,271.298924 -8.42248,65.9537 -21.08026,132.56554 -32.87516,191.91757 -4.33026,21.78733 -8.84918,43.47451 -10.77617,63.24394 -0.53315,5.57961 -0.88106,10.92682 -1.00588,15.96178 0.29086,3.75562 -0.99772,7.46382 -1.75325,10.77506 -2.91278,12.81446 -4.42443,26.56792 -3.92806,37.6402 0.30118,6.14825 0.38359,13.25673 2.48134,17.7657 2.19151,8.20701 -5.55154,14.31809 -8.82999,21.01306 -1.95175,4.23616 -2.89189,8.87822 -6.09363,12.01869 -5.07165,2.5916 -12.44224,8.16967 -19.17479,12.41498 -0.61069,0.40263 -1.19127,0.78214 -1.7495,1.13955 -4.34745,2.78345 -7.33988,4.22628 -12.6501,4.80508 -15.8849,-0.18471 -35.48578,1.04821 -49.744,0.72888 -10.89285,-0.25561 -21.18848,-1.24026 -29.61189,-5.80954 -2.71996,-1.54476 -5.40563,-3.26346 -8.08677,-5.14988 -3.50991,-2.02073 -5.39256,-2.51892 -9.55673,-3.04099 l -15.91172,0.98084 c -21.5695,1.59283 -44.29253,-0.066 -65.39422,-0.6162 -11.93403,-0.38694 -21.57276,-0.40604 -33.57714,-0.40604 -2.23715,0.0453 -3.903644,0.80576 -5.709514,1.69702 -2.02572,0.8929 -3.95922,1.18193 -5.84864,1.92715 -3.01546,1.13033 -5.62685,2.39942 -8.41614,2.48145 -3.04944,0.0555 -5.07989,0.60081 -5.68296,1.16741 -0.99103,0.88708 -5.794214,-0.0585 -7.001714,0.81197 -4.27222,1.1745 -6.180071,3.0725 -6.634259,5.40069 -1.02307,5.24431 5.329565,12.67141 8.649403,18.9293 0.2042,0.40486 0.41724,0.82823 0.63809,1.27541 0.17943,0.35913 0.36017,0.71839 0.54212,1.07772 5.70949,11.27536 12.61795,22.61514 18.19742,31.86844 1.27922,2.12406 1.29349,3.94961 3.1201,5.32037 0.09701,0.13734 0.193583,0.27579 0.289569,0.41534 1.944429,2.82678 3.647816,6.101 3.847851,9.61715 0.189503,4.96779 1.852274,10.8399 2.185194,15.3781 -0.0821,1.10083 0.29687,2.03474 0.66336,2.96331 4.66484,12.1791 4.28885,24.09862 7.28815,35.31177 0.0834,0.3119 0.16948,0.62327 0.25831,0.93408 6.2728,12.89573 11.4869,25.77254 18.79264,37.09979 0.14926,0.23142 0.29939,0.46218 0.45042,0.69229 2.43253,3.70623 5.09851,7.24128 8.11017,10.55064 4.49248,4.95105 8.15186,10.6914 13.0081,14.54989 0.49937,0.37621 0.98944,0.77482 1.43734,1.14496 2.02823,1.57455 3.48775,3.33437 5.23112,4.99329 0,2.93102 -0.004,2.49895 7.04959,2.49895 6.74211,0 6.70344,0.35522 6.70314,-2.17361 1.40527,-2.19542 3.6059,-3.62937 5.08546,-5.52474 0.22929,-0.29616 0.45833,-0.59547 0.68712,-0.89747 5.17943,-7.6864 10.93552,-14.39161 15.96848,-21.31493 0.20686,-0.28513 0.41275,-0.5705 0.61766,-0.85588 2.70493,-3.76699 5.24132,-7.53523 7.62384,-10.76726 0.44885,-0.55492 0.8071,-1.12533 1.1449,-1.69436 5.61346,-9.5141 8.86708,-17.40823 13.26286,-27.87153 0.38912,-0.88715 0.7753,-1.41772 1.13427,-1.77495 1.02909,-1.0241 1.83454,-0.6236 1.84459,-3.11568 0.12972,-2.13983 0.43047,-3.11273 1.98861,-4.22043 4.56594,-6.57752 8.86829,-14.19815 13.19107,-21.68783 1.93286,-3.32824 3.09784,-7.12941 6.78163,-10.89547 5.43411,-5.55547 9.19024,-10.68777 11.85576,-14.45971 1.04463,-0.79834 1.91441,-1.72526 2.14327,-2.6614 0.58259,-6.63675 8.78479,-7.10187 11.34444,-6.98712 21.57969,0.4002 45.69351,-1.21846 63.98522,0.53656 14.50897,-1.18198 15.86772,10.46079 21.74458,20.40631 7.29674,9.96184 14.15619,28.95974 22.72728,43.75719 6.82564,9.49759 10.97952,17.79674 19.91137,23.08423 6.51975,3.86403 12.44004,7.46105 19.25127,12.13904 5.95114,2.79917 13.99331,7.24033 21.99284,10.87136 7.96036,3.61325 15.8785,6.42429 21.65192,6.01684 13.56426,-1.23476 24.89722,-10.30053 16.47995,-20.33356 -7.48083,-11.07326 2.51226,-21.2915 5.14756,-31.43318 1.51721,-5.89645 2.40526,-12.25945 3.36185,-18.52977 -0.027,-1.38672 1.55107,-4.13143 2.79285,-6.75862 0.49368,-2.46073 1.31928,-4.81447 2.3562,-7.08836 5.23391,-11.47759 15.85176,-20.92071 16.3447,-31.81888 1.04682,-6.85472 0.47199,-13.12539 0.87318,-19.37499 0.68549,-8.71444 0.47698,-17.3011 -0.89002,-20.1503 -8.82703,-7.04788 -18.76388,-15.67616 -25.44448,-23.65413 -0.43188,-0.52465 -0.79769,-1.05498 -1.10735,-1.58968 -1.45665,-2.51521 -1.67104,-5.1269 -1.67794,-7.69645 -0.13396,-8.55279 -1.221,-12.34663 3.65217,-18.22195 5.01431,-12.61939 9.81668,-24.94917 13.85348,-36.92756 21.64288,-64.50343 2.18891,-133.35379 20.42845,-191.83571 12.61758,-40.53776 14.91622,-89.81797 17.62579,-126.93619 1.00984,-21.48749 0.22368,-44.77287 -2.62065,-68.37641 -2.42862,-20.1537 -6.35773,-40.53936 -11.95055,-60.23583 -6.28043,-22.11807 -14.6588,-43.36708 -25.3662,-62.44269 C 465.44265,91.548936 428.38431,59.125536 376.11923,54.228336 z"
   id="path3767"
   inkscape:connector-curvature="0"
   sodipodi:nodetypes="cccccccccccscccccccccccccsccsccscccscssccccsccccscccscccsccccccccscccccsccccscccccssscc" />
</svg>