<?xml version="1.0" encoding="UTF-8" standalone="no"?>
<svg
   xmlns:dc="http://purl.org/dc/elements/1.1/"
   xmlns:cc="http://creativecommons.org/ns#"
   xmlns:rdf="http://www.w3.org/1999/02/22-rdf-syntax-ns#"
   xmlns:svg="http://www.w3.org/2000/svg"
   xmlns="http://www.w3.org/2000/svg"
   xmlns:sodipodi="http://sodipodi.sourceforge.net/DTD/sodipodi-0.dtd"
   xmlns:inkscape="http://www.inkscape.org/namespaces/inkscape"
   version="1.1"
   id="Layer_1"
   x="0px"
   y="0px"
   width="1024"
   height="1024"
   viewBox="0 0 1024 1024"
   enable-background="new 0 0 512 512"
   xml:space="preserve"
   inkscape:version="0.48.0 r9654"
   sodipodi:docname="finaltsadihebrew-x5e5.svg"><title
   id="title3743">Sinai 357</title><metadata
   id="metadata72"><rdf:RDF><cc:Work
       rdf:about=""><dc:format>image/svg+xml</dc:format><dc:type
         rdf:resource="http://purl.org/dc/dcmitype/StillImage" /><dc:title>Sinai 357</dc:title><dc:date>2017</dc:date><dc:creator><cc:Agent><dc:title>Celeste Claire Horner</dc:title></cc:Agent></dc:creator><dc:publisher><cc:Agent><dc:title>beitdina.net</dc:title></cc:Agent></dc:publisher></cc:Work></rdf:RDF></metadata><defs
   id="defs70" /><sodipodi:namedview
   pagecolor="#ffffff"
   bordercolor="#666666"
   borderopacity="1"
   objecttolerance="10"
   gridtolerance="10"
   guidetolerance="10"
   inkscape:pageopacity="0"
   inkscape:pageshadow="2"
   inkscape:window-width="1152"
   inkscape:window-height="814"
   id="namedview68"
   showgrid="false"
   inkscape:zoom="0.30615806"
   inkscape:cx="-689.90342"
   inkscape:cy="474.78999"
   inkscape:window-x="-8"
   inkscape:window-y="-8"
   inkscape:window-maximized="1"
   inkscape:current-layer="Layer_1" />
   
	<g
   id="Grid"
   transform="matrix(2.0004581,0,0,2.0004578,0.50019527,4.8138064)">
		<rect
   x="0"
   stroke-miterlimit="10"
   width="512"
   height="512"
   id="rect4"
   y="0"
   style="fill:none;stroke:#a9ccdb;stroke-miterlimit:10" />
		<line
   stroke-miterlimit="10"
   x1="0"
   y1="32"
   x2="512"
   y2="32"
   id="line6"
   style="fill:none;stroke:#a9ccdb;stroke-miterlimit:10" />
		<line
   stroke-miterlimit="10"
   x1="0"
   y1="64"
   x2="512"
   y2="64"
   id="line8"
   style="fill:none;stroke:#a9ccdb;stroke-miterlimit:10" />
		<line
   stroke-miterlimit="10"
   x1="0"
   y1="96"
   x2="512"
   y2="96"
   id="line10"
   style="fill:none;stroke:#a9ccdb;stroke-miterlimit:10" />
		<line
   stroke-miterlimit="10"
   x1="0"
   y1="128"
   x2="512"
   y2="128"
   id="line12"
   style="fill:none;stroke:#a9ccdb;stroke-miterlimit:10" />
		<line
   stroke-miterlimit="10"
   x1="0"
   y1="160"
   x2="512"
   y2="160"
   id="line14"
   style="fill:none;stroke:#a9ccdb;stroke-miterlimit:10" />
		<line
   stroke-miterlimit="10"
   x1="0"
   y1="192"
   x2="512"
   y2="192"
   id="line16"
   style="fill:none;stroke:#a9ccdb;stroke-miterlimit:10" />
		<line
   stroke-miterlimit="10"
   x1="0"
   y1="224"
   x2="512"
   y2="224"
   id="line18"
   style="fill:none;stroke:#a9ccdb;stroke-miterlimit:10" />
		<line
   stroke-miterlimit="10"
   x1="0"
   y1="256"
   x2="512"
   y2="256"
   id="line20"
   style="fill:none;stroke:#a9ccdb;stroke-miterlimit:10" />
		<line
   stroke-miterlimit="10"
   x1="0"
   y1="288"
   x2="512"
   y2="288"
   id="line22"
   style="fill:none;stroke:#a9ccdb;stroke-miterlimit:10" />
		<line
   stroke-miterlimit="10"
   x1="0"
   y1="320"
   x2="512"
   y2="320"
   id="line24"
   style="fill:none;stroke:#a9ccdb;stroke-miterlimit:10" />
		<line
   stroke-miterlimit="10"
   x1="0"
   y1="352"
   x2="512"
   y2="352"
   id="line26"
   style="fill:none;stroke:#a9ccdb;stroke-miterlimit:10" />
		<line
   stroke-miterlimit="10"
   x1="0"
   y1="384"
   x2="512"
   y2="384"
   id="line28"
   style="fill:none;stroke:#a9ccdb;stroke-miterlimit:10" />
		<line
   stroke-miterlimit="10"
   x1="0"
   y1="416"
   x2="512"
   y2="416"
   id="line30"
   style="fill:none;stroke:#a9ccdb;stroke-miterlimit:10" />
		<line
   stroke-miterlimit="10"
   x1="0"
   y1="448"
   x2="512"
   y2="448"
   id="line32"
   style="fill:none;stroke:#ff0000;stroke-miterlimit:10" />
		<line
   stroke-miterlimit="10"
   x1="0"
   y1="480"
   x2="512"
   y2="480"
   id="line34"
   style="fill:none;stroke:#a9ccdb;stroke-miterlimit:10" />
		<line
   stroke-miterlimit="10"
   x1="32"
   y1="0"
   x2="32"
   y2="512"
   id="line36"
   style="fill:none;stroke:#a9ccdb;stroke-miterlimit:10" />
		<line
   stroke-miterlimit="10"
   x1="64"
   y1="0"
   x2="64"
   y2="512"
   id="line38"
   style="fill:none;stroke:#a9ccdb;stroke-miterlimit:10" />
		<line
   stroke-miterlimit="10"
   x1="96"
   y1="0"
   x2="96"
   y2="512"
   id="line40"
   style="fill:none;stroke:#a9ccdb;stroke-miterlimit:10" />
		<line
   stroke-miterlimit="10"
   x1="128"
   y1="0"
   x2="128"
   y2="512"
   id="line42"
   style="fill:none;stroke:#a9ccdb;stroke-miterlimit:10" />
		<line
   stroke-miterlimit="10"
   x1="160"
   y1="0"
   x2="160"
   y2="512"
   id="line44"
   style="fill:none;stroke:#a9ccdb;stroke-miterlimit:10" />
		<line
   stroke-miterlimit="10"
   x1="192"
   y1="0"
   x2="192"
   y2="512"
   id="line46"
   style="fill:none;stroke:#a9ccdb;stroke-miterlimit:10" />
		<line
   stroke-miterlimit="10"
   x1="224"
   y1="0"
   x2="224"
   y2="512"
   id="line48"
   style="fill:none;stroke:#a9ccdb;stroke-miterlimit:10" />
		<line
   stroke-miterlimit="10"
   x1="256"
   y1="0"
   x2="256"
   y2="512"
   id="line50"
   style="fill:none;stroke:#a9ccdb;stroke-miterlimit:10" />
		<line
   stroke-miterlimit="10"
   x1="288"
   y1="0"
   x2="288"
   y2="512"
   id="line52"
   style="fill:none;stroke:#a9ccdb;stroke-miterlimit:10" />
		<line
   stroke-miterlimit="10"
   x1="320"
   y1="0"
   x2="320"
   y2="512"
   id="line54"
   style="fill:none;stroke:#a9ccdb;stroke-miterlimit:10" />
		<line
   stroke-miterlimit="10"
   x1="352"
   y1="0"
   x2="352"
   y2="512"
   id="line56"
   style="fill:none;stroke:#a9ccdb;stroke-miterlimit:10" />
		<line
   stroke-miterlimit="10"
   x1="384"
   y1="0"
   x2="384"
   y2="512"
   id="line58"
   style="fill:none;stroke:#a9ccdb;stroke-miterlimit:10" />
		<line
   stroke-miterlimit="10"
   x1="416"
   y1="0"
   x2="416"
   y2="512"
   id="line60"
   style="fill:none;stroke:#a9ccdb;stroke-miterlimit:10" />
		<line
   stroke-miterlimit="10"
   x1="448"
   y1="0"
   x2="448"
   y2="512"
   id="line62"
   style="fill:none;stroke:#a9ccdb;stroke-miterlimit:10" />
		<line
   stroke-miterlimit="10"
   x1="480"
   y1="0"
   x2="480"
   y2="512"
   id="line64"
   style="fill:none;stroke:#a9ccdb;stroke-miterlimit:10" />
	</g>
	
<path
   sodipodi:nodetypes="ccscccsccccccccccccccscccccccscssccsssssccsccccc"
   inkscape:connector-curvature="0"
   id="path3768-1"
   d="m 79.500989,871.18153 c 19.599304,33.23967 53.621451,36.1804 82.970651,11.43252 18.83637,-19.11867 22.684,-38.14772 29.58469,-61.27511 3.65393,-12.24602 5.89742,-24.83166 7.00875,-37.52146 3.57139,-41.8816 1.42593,-89.20698 23.39121,-109.02138 7.6746,-5.69152 53.0474,0.74822 57.9315,5.65452 9.1037,6.32275 13.4635,20.94066 24.3144,24.83223 33.1117,11.87511 40.2582,4.55569 63.1882,26.69789 -0.6898,9.79021 -2.1885,19.68023 -0.6716,29.31238 3.4699,19.72288 13.2583,45.32056 27.4355,62.23817 8.7798,10.80982 20.7056,16.90059 33.6204,20.33847 12.0509,3.16345 23.6345,3.88513 30.4589,3.58964 17.0007,-5.57661 19.1995,-16.26059 19.5422,-27.28143 0.9703,-12.88455 -2.4763,-28.18293 4.927,-35.43627 8.0919,-6.49955 8.6698,-13.12197 6.9933,-21.91842 -1.8949,-9.04196 5.1364,-11.90861 12.8412,-14.73723 13.0754,-5.01714 12.1848,-11.70651 21.0685,-19.5267 8.3308,-7.30254 20.1617,-16.22051 22.1727,-21.01905 3.0998,-6.00384 3.6353,-11.54496 3.2742,-17.24977 -0.6812,-11.55423 -4.8291,-21.05642 -8.1102,-32.32298 -1.4419,-4.6215 -5.0046,-7.8395 -7.2916,-12.27643 -8.26,-15.82568 -52.1818,-16.94441 -70.8635,-18.27663 -17.5128,-1.24884 -35.6639,3.33496 -47.0653,12.74754 -6.8168,7.87353 -29.6709,10.1244 -48.6036,5.98952 -9.3836,-0.27812 -18.5167,-1.54941 -27.4108,-3.57394 -16.1818,-7.37592 -35.8862,-11.95385 -49.7126,-18.82255 -11.4205,-5.79353 -22.3987,-12.16213 -32.9674,-18.40725 -12.0142,-7.20809 -16.3135,-13.35182 -13.4319,-23.43185 15.6063,-60.87858 57.0092,-223.98641 67.2529,-277.69876 3.0434,-15.82838 6.0122,-31.66311 8.722,-47.54048 2.3434,-13.73108 4.4931,-27.49405 6.3294,-41.31239 2.37915,-22.6087 3.57187,-52.1154 1.71422,-81.37406 -1.10637,-17.4256 -3.29472,-34.763221 -6.95881,-50.503251 -5.58295,-23.983 -14.59204,-44.25694 -28.42021,-55.48174 -11.9337,-8.2771 -30.2664,-10.7949 -34.1022,15.379 1.0375,42.5465 -0.7781,83.340101 -4.9508,123.578671 -1.4374,13.8602 -3.1544,27.6546 -5.1308,41.43207 -1.9308,13.45998 -4.1093,26.90381 -6.5165,40.37715 -2.7281,15.26943 -5.7499,30.57675 -9.0379,45.9884 -3.2076,15.0347 -6.6688,30.1687 -10.3576,45.46367 -3.7743,15.64977 -7.7873,31.46808 -12.0116,47.52098 -13.498,48.18562 -63.9663,183.64836 -80.0128,226.74569 -5.4709,7.9412 -8.54886,21.49115 -10.96385,36.97784 -3.19888,20.51354 -5.23455,44.42518 -10.1276,63.20098 -3.09608,18.34838 -11.752894,22.97771 -21.318271,30.72672 -13.796555,10.60576 -19.370639,30.46985 -21.605329,45.2922 -1.759345,18.70886 -1.745647,36.8137 2.790599,53.4726 2.494695,9.12095 5.962541,18.0282 10.11035,27.02028 z"
   style="fill:#584fc5;fill-opacity:0.62608696" /></svg>