<?xml version="1.0" encoding="UTF-8" standalone="no"?>
<svg
   xmlns:dc="http://purl.org/dc/elements/1.1/"
   xmlns:cc="http://creativecommons.org/ns#"
   xmlns:rdf="http://www.w3.org/1999/02/22-rdf-syntax-ns#"
   xmlns:svg="http://www.w3.org/2000/svg"
   xmlns="http://www.w3.org/2000/svg"
   xmlns:sodipodi="http://sodipodi.sourceforge.net/DTD/sodipodi-0.dtd"
   xmlns:inkscape="http://www.inkscape.org/namespaces/inkscape"
   version="1.1"
   id="Layer_1"
   x="0px"
   y="0px"
   width="1024"
   height="1024"
   viewBox="0 0 1024 1024"
   enable-background="new 0 0 512 512"
   xml:space="preserve"
   inkscape:version="0.48.0 r9654"
   sodipodi:docname="finalmemhebrew-x5dd.svg"><title
   id="title3743">Sinai 357</title><metadata
   id="metadata72"><rdf:RDF><cc:Work
       rdf:about=""><dc:format>image/svg+xml</dc:format><dc:type
         rdf:resource="http://purl.org/dc/dcmitype/StillImage" /><dc:title>Sinai 357</dc:title><dc:date>2017</dc:date><dc:creator><cc:Agent><dc:title>Celeste Claire Horner</dc:title></cc:Agent></dc:creator><dc:publisher><cc:Agent><dc:title>beitdina.net</dc:title></cc:Agent></dc:publisher></cc:Work></rdf:RDF></metadata><defs
   id="defs70" /><sodipodi:namedview
   pagecolor="#ffffff"
   bordercolor="#666666"
   borderopacity="1"
   objecttolerance="10"
   gridtolerance="10"
   guidetolerance="10"
   inkscape:pageopacity="0"
   inkscape:pageshadow="2"
   inkscape:window-width="1152"
   inkscape:window-height="814"
   id="namedview68"
   showgrid="false"
   inkscape:zoom="0.26003743"
   inkscape:cx="619.50274"
   inkscape:cy="298.4317"
   inkscape:window-x="-8"
   inkscape:window-y="-8"
   inkscape:window-maximized="1"
   inkscape:current-layer="Layer_1" />
   
	<g
   id="Grid"
   transform="matrix(2.0004581,0,0,2.0004578,0.50019527,4.8138064)">
		<rect
   x="0"
   stroke-miterlimit="10"
   width="512"
   height="512"
   id="rect4"
   y="0"
   style="fill:none;stroke:#a9ccdb;stroke-miterlimit:10" />
		<line
   stroke-miterlimit="10"
   x1="0"
   y1="32"
   x2="512"
   y2="32"
   id="line6"
   style="fill:none;stroke:#a9ccdb;stroke-miterlimit:10" />
		<line
   stroke-miterlimit="10"
   x1="0"
   y1="64"
   x2="512"
   y2="64"
   id="line8"
   style="fill:none;stroke:#a9ccdb;stroke-miterlimit:10" />
		<line
   stroke-miterlimit="10"
   x1="0"
   y1="96"
   x2="512"
   y2="96"
   id="line10"
   style="fill:none;stroke:#a9ccdb;stroke-miterlimit:10" />
		<line
   stroke-miterlimit="10"
   x1="0"
   y1="128"
   x2="512"
   y2="128"
   id="line12"
   style="fill:none;stroke:#a9ccdb;stroke-miterlimit:10" />
		<line
   stroke-miterlimit="10"
   x1="0"
   y1="160"
   x2="512"
   y2="160"
   id="line14"
   style="fill:none;stroke:#a9ccdb;stroke-miterlimit:10" />
		<line
   stroke-miterlimit="10"
   x1="0"
   y1="192"
   x2="512"
   y2="192"
   id="line16"
   style="fill:none;stroke:#a9ccdb;stroke-miterlimit:10" />
		<line
   stroke-miterlimit="10"
   x1="0"
   y1="224"
   x2="512"
   y2="224"
   id="line18"
   style="fill:none;stroke:#a9ccdb;stroke-miterlimit:10" />
		<line
   stroke-miterlimit="10"
   x1="0"
   y1="256"
   x2="512"
   y2="256"
   id="line20"
   style="fill:none;stroke:#a9ccdb;stroke-miterlimit:10" />
		<line
   stroke-miterlimit="10"
   x1="0"
   y1="288"
   x2="512"
   y2="288"
   id="line22"
   style="fill:none;stroke:#a9ccdb;stroke-miterlimit:10" />
		<line
   stroke-miterlimit="10"
   x1="0"
   y1="320"
   x2="512"
   y2="320"
   id="line24"
   style="fill:none;stroke:#a9ccdb;stroke-miterlimit:10" />
		<line
   stroke-miterlimit="10"
   x1="0"
   y1="352"
   x2="512"
   y2="352"
   id="line26"
   style="fill:none;stroke:#a9ccdb;stroke-miterlimit:10" />
		<line
   stroke-miterlimit="10"
   x1="0"
   y1="384"
   x2="512"
   y2="384"
   id="line28"
   style="fill:none;stroke:#a9ccdb;stroke-miterlimit:10" />
		<line
   stroke-miterlimit="10"
   x1="0"
   y1="416"
   x2="512"
   y2="416"
   id="line30"
   style="fill:none;stroke:#a9ccdb;stroke-miterlimit:10" />
		<line
   stroke-miterlimit="10"
   x1="0"
   y1="448"
   x2="512"
   y2="448"
   id="line32"
   style="fill:none;stroke:#ff0000;stroke-miterlimit:10" />
		<line
   stroke-miterlimit="10"
   x1="0"
   y1="480"
   x2="512"
   y2="480"
   id="line34"
   style="fill:none;stroke:#a9ccdb;stroke-miterlimit:10" />
		<line
   stroke-miterlimit="10"
   x1="32"
   y1="0"
   x2="32"
   y2="512"
   id="line36"
   style="fill:none;stroke:#a9ccdb;stroke-miterlimit:10" />
		<line
   stroke-miterlimit="10"
   x1="64"
   y1="0"
   x2="64"
   y2="512"
   id="line38"
   style="fill:none;stroke:#a9ccdb;stroke-miterlimit:10" />
		<line
   stroke-miterlimit="10"
   x1="96"
   y1="0"
   x2="96"
   y2="512"
   id="line40"
   style="fill:none;stroke:#a9ccdb;stroke-miterlimit:10" />
		<line
   stroke-miterlimit="10"
   x1="128"
   y1="0"
   x2="128"
   y2="512"
   id="line42"
   style="fill:none;stroke:#a9ccdb;stroke-miterlimit:10" />
		<line
   stroke-miterlimit="10"
   x1="160"
   y1="0"
   x2="160"
   y2="512"
   id="line44"
   style="fill:none;stroke:#a9ccdb;stroke-miterlimit:10" />
		<line
   stroke-miterlimit="10"
   x1="192"
   y1="0"
   x2="192"
   y2="512"
   id="line46"
   style="fill:none;stroke:#a9ccdb;stroke-miterlimit:10" />
		<line
   stroke-miterlimit="10"
   x1="224"
   y1="0"
   x2="224"
   y2="512"
   id="line48"
   style="fill:none;stroke:#a9ccdb;stroke-miterlimit:10" />
		<line
   stroke-miterlimit="10"
   x1="256"
   y1="0"
   x2="256"
   y2="512"
   id="line50"
   style="fill:none;stroke:#a9ccdb;stroke-miterlimit:10" />
		<line
   stroke-miterlimit="10"
   x1="288"
   y1="0"
   x2="288"
   y2="512"
   id="line52"
   style="fill:none;stroke:#a9ccdb;stroke-miterlimit:10" />
		<line
   stroke-miterlimit="10"
   x1="320"
   y1="0"
   x2="320"
   y2="512"
   id="line54"
   style="fill:none;stroke:#a9ccdb;stroke-miterlimit:10" />
		<line
   stroke-miterlimit="10"
   x1="352"
   y1="0"
   x2="352"
   y2="512"
   id="line56"
   style="fill:none;stroke:#a9ccdb;stroke-miterlimit:10" />
		<line
   stroke-miterlimit="10"
   x1="384"
   y1="0"
   x2="384"
   y2="512"
   id="line58"
   style="fill:none;stroke:#a9ccdb;stroke-miterlimit:10" />
		<line
   stroke-miterlimit="10"
   x1="416"
   y1="0"
   x2="416"
   y2="512"
   id="line60"
   style="fill:none;stroke:#a9ccdb;stroke-miterlimit:10" />
		<line
   stroke-miterlimit="10"
   x1="448"
   y1="0"
   x2="448"
   y2="512"
   id="line62"
   style="fill:none;stroke:#a9ccdb;stroke-miterlimit:10" />
		<line
   stroke-miterlimit="10"
   x1="480"
   y1="0"
   x2="480"
   y2="512"
   id="line64"
   style="fill:none;stroke:#a9ccdb;stroke-miterlimit:10" />
	</g>
	

<path
   style="fill:#37cfe5;fill-opacity:0.66956518"
   d="m 268.34793,571.13888 c -18.56928,-16.3673 -27.9356,-24.9993 -48.58121,-25.71212 -38.76686,4.25333 -53.96473,-23.38071 -86.24341,-31.21324 -18.38489,-4.49935 -30.22913,-2.00449 -34.62304,3.89432 -15.444485,1.67377 -22.64468,9.68865 -25.898497,20.34328 -4.002329,13.10563 -2.033784,30.20521 -2.093008,44.41033 -0.01933,13.93191 0.745034,27.75747 2.361068,42.11056 0.37822,14.99649 2.024262,28.82967 5.461693,42.01322 3.782951,17.68117 12.435769,31.85592 23.086084,45.15443 7.82747,9.77376 16.73389,19.07423 25.57898,28.94554 7.8676,5.58112 16.56604,18.074 23.67137,22.85568 7.3566,2.90759 14.10134,3.6839 20.20522,2.73398 7.8772,-1.22591 14.68707,-5.32679 20.3673,-11.43212 4.81616,-5.61088 9.26749,-12.78118 12.80836,-19.96359 5.18737,-10.52224 8.42063,-21.07044 7.98417,-26.77955 -0.81287,-10.63263 -12.90571,-7.29914 -17.04214,-17.56052 3.57031,-14.02324 16.68567,-13.94134 21.85281,-5.99893 5.25939,4.37803 11.30136,7.25265 17.76006,5.80065 7.26156,-1.63249 7.10482,-1.49655 9.73678,-7.75317 2.85065,-7.26193 3.54618,-16.15706 8.1934,-13.1791 1.47883,1.43268 12.34255,6.41588 12.64894,16.0156 0.0782,9.18543 -0.66032,17.83 -0.0762,21.88105 1.05657,7.32707 4.00446,5.5508 6.66763,6.77046 0.19283,0.90494 5.13916,4.36823 5.18313,7.93791 -0.13638,1.38401 0.13404,2.67612 0.46418,3.92437 0.33626,1.26761 0.10585,2.96632 0.20458,4.19384 -0.11054,1.19932 -0.0728,1.8142 0,3.02241 0.0776,1.2971 0.92794,5.99182 1.28631,7.47577 -0.13419,15.28999 -7.45284,19.32546 2.75447,32.1829 0.92083,1.12276 3.59631,8.80893 3.75998,9.40341 12.81292,12.67256 22.22589,33.86721 34.13591,48.03139 1.73326,2.05723 3.69022,4.08132 5.78873,5.9307 3.87339,3.41356 8.22901,6.23189 12.5502,7.56472 9.38025,2.66859 19.13574,0.10592 27.83917,-6.39974 3.53416,-2.6806 6.76058,-5.51042 9.54451,-7.72509 2.01152,-1.61468 3.83653,-3.33336 5.16326,-5.47042 1.10919,-1.79537 2.0662,-3.48979 3.11895,-4.16142 0.92715,-0.58744 1.85583,-1.11344 1.97034,-1.94835 0.13167,-1.68716 0.47193,-3.03584 1.06285,-4.16161 0.93448,-1.77961 0.58717,-3.91424 2.95861,-5.03815 6.66233,-10.65849 6.7286,-23.84603 3.61257,-36.17619 -2.34999,-6.98953 -3.66527,-14.38113 -8.78368,-19.08653 -4.20755,-3.83614 -10.03434,-6.85306 -9.77661,-10.61946 3.29097,-7.6606 5.80332,-16.00366 9.99473,-22.80021 3.84615,-5.4313 8.42754,-9.11922 13.43224,-11.35611 8.82675,-3.94518 18.97026,-3.37677 28.71924,0.10143 20.61479,9.72443 46.03217,11.39835 66.53095,15.47094 4.21912,7.43024 23.39232,11.79088 24.9744,15.04526 7.35906,7.10367 18.99803,11.50818 31.03235,13.80458 20.08103,3.83188 41.26287,1.79396 45.49737,-3.36768 12.45503,-22.8962 22.42705,-31.30665 36.3807,-48.33345 48.33835,-137.10205 67.8243,-293.1287 70.36911,-418.94462 0.0682,-5.43036 -0.0753,-7.00002 -0.65395,-9.31991 -0.4423,-5.57981 -2.80906,-3.60654 -2.88689,-8.33559 -0.0282,-1.37154 -1.00995,-1.48943 -1.85106,-2.8255 -17.04722,-24.0611 -36.51753,-46.52084 -59.46701,-62.18169 -34.84558,-23.77881 -75.20207,-36.90347 -107.45935,-55.79417 -25.90439,-16.44652 -26.3798,-46.704444 -62.7939,-56.704754 -36.99048,-15.24465 -51.66509,-29.41484 -85.62659,-13.63337 -15.40393,13.70392 -10.41537,36.665944 -14.85404,54.689174 -7.25984,29.47864 -12.8202,58.83839 -19.53102,88.03758 3.50898,15.01408 4.87703,30.0413 3.84143,43.93241 1.5624,21.82675 -0.39413,43.13717 -4.51909,63.97767 -4.34309,21.94257 -11.09001,43.36421 -18.6645,64.3191 -16.49593,45.63616 -32.10992,88.09718 -40.17421,129.8655 -5.81786,24.23914 -1.11181,50.54088 -18.95473,52.13619 z M 594.51048,310.61299 c -4.52058,23.46464 -8.20029,49.36937 -11.98895,76.10553 -1.7862,12.60494 -3.5966,25.39469 -5.53077,38.20067 -5.30867,35.14846 -11.54961,70.4192 -20.78085,102.32669 -10.83676,37.45696 -25.79445,70.27904 -48.20249,92.82743 -6.1867,5.82427 -27.95279,12.72094 -42.51751,9.37469 -11.95672,-4.5723 -23.84828,-8.62252 -33.75181,-13.91146 -13.07656,-6.98348 -22.68711,-16.12658 -24.40518,-31.48267 -2.52616,-19.23227 2.55747,-48.83208 3.21008,-67.63327 1.63497,-47.10149 15.50929,-87.99499 26.00724,-132.05295 4.3554,-18.27883 8.79157,-36.27494 12.7426,-53.97108 6.29328,-29.57196 11.47471,-60.8864 19.21284,-85.49209 4.00032,-5.72053 10.32341,-7.43715 16.63322,-7.74483 3.40565,-0.16607 6.80742,0.0783 9.83803,0.32512 3.18919,0.25974 6.13595,0.68618 8.89092,1.2695 6.76945,1.43333 12.38087,3.8139 17.58558,6.99596 21.57128,17.78354 66.70356,37.20478 73.05705,64.86276 z"
   id="path3768"
   inkscape:connector-curvature="0"
   sodipodi:nodetypes="ccccscccsccscssccscccsccsccccccsccccccscccccscccsccccccscccsccsscccsssccscsscsssccc" /></svg>