<?xml version="1.0" encoding="UTF-8" standalone="no"?>
<svg
   xmlns:dc="http://purl.org/dc/elements/1.1/"
   xmlns:cc="http://creativecommons.org/ns#"
   xmlns:rdf="http://www.w3.org/1999/02/22-rdf-syntax-ns#"
   xmlns:svg="http://www.w3.org/2000/svg"
   xmlns="http://www.w3.org/2000/svg"
   xmlns:sodipodi="http://sodipodi.sourceforge.net/DTD/sodipodi-0.dtd"
   xmlns:inkscape="http://www.inkscape.org/namespaces/inkscape"
   version="1.1"
   id="Layer_1"
   x="0px"
   y="0px"
   width="700"
   height="1024"
   viewBox="0 0 700 1024"
   enable-background="new 0 0 512 512"
   xml:space="preserve"
   inkscape:version="0.48.0 r9654"
   sodipodi:docname="finalpehebrew-x5e.svg"><title
   id="title3743">Sinai 357</title><metadata
   id="metadata72"><rdf:RDF><cc:Work
       rdf:about=""><dc:format>image/svg+xml</dc:format><dc:type
         rdf:resource="http://purl.org/dc/dcmitype/StillImage" /><dc:title>Sinai 357</dc:title><dc:date>2017</dc:date><dc:creator><cc:Agent><dc:title>Celeste Claire Horner</dc:title></cc:Agent></dc:creator><dc:publisher><cc:Agent><dc:title>beitdina.net</dc:title></cc:Agent></dc:publisher></cc:Work></rdf:RDF></metadata><defs
   id="defs70" /><sodipodi:namedview
   pagecolor="#ffffff"
   bordercolor="#666666"
   borderopacity="1"
   objecttolerance="10"
   gridtolerance="10"
   guidetolerance="10"
   inkscape:pageopacity="0"
   inkscape:pageshadow="2"
   inkscape:window-width="1045"
   inkscape:window-height="781"
   id="namedview68"
   showgrid="false"
   inkscape:zoom="0.30310517"
   inkscape:cx="-257.10864"
   inkscape:cy="355.28504"
   inkscape:window-x="91"
   inkscape:window-y="47"
   inkscape:window-maximized="0"
   inkscape:current-layer="Layer_1" />
   
	<g
   id="Grid"
   transform="matrix(1.3757667,0,0,2.0004578,0.50019527,4.813853)">
		<rect
   x="0"
   stroke-miterlimit="10"
   width="512"
   height="512"
   id="rect4"
   y="0"
   style="fill:none;stroke:#a9ccdb;stroke-miterlimit:10" />
		<line
   stroke-miterlimit="10"
   x1="0"
   y1="32"
   x2="512"
   y2="32"
   id="line6"
   style="fill:none;stroke:#a9ccdb;stroke-miterlimit:10" />
		<line
   stroke-miterlimit="10"
   x1="0"
   y1="64"
   x2="512"
   y2="64"
   id="line8"
   style="fill:none;stroke:#a9ccdb;stroke-miterlimit:10" />
		<line
   stroke-miterlimit="10"
   x1="0"
   y1="96"
   x2="512"
   y2="96"
   id="line10"
   style="fill:none;stroke:#a9ccdb;stroke-miterlimit:10" />
		<line
   stroke-miterlimit="10"
   x1="0"
   y1="128"
   x2="512"
   y2="128"
   id="line12"
   style="fill:none;stroke:#a9ccdb;stroke-miterlimit:10" />
		<line
   stroke-miterlimit="10"
   x1="0"
   y1="160"
   x2="512"
   y2="160"
   id="line14"
   style="fill:none;stroke:#a9ccdb;stroke-miterlimit:10" />
		<line
   stroke-miterlimit="10"
   x1="0"
   y1="192"
   x2="512"
   y2="192"
   id="line16"
   style="fill:none;stroke:#a9ccdb;stroke-miterlimit:10" />
		<line
   stroke-miterlimit="10"
   x1="0"
   y1="224"
   x2="512"
   y2="224"
   id="line18"
   style="fill:none;stroke:#a9ccdb;stroke-miterlimit:10" />
		<line
   stroke-miterlimit="10"
   x1="0"
   y1="256"
   x2="512"
   y2="256"
   id="line20"
   style="fill:none;stroke:#a9ccdb;stroke-miterlimit:10" />
		<line
   stroke-miterlimit="10"
   x1="0"
   y1="288"
   x2="512"
   y2="288"
   id="line22"
   style="fill:none;stroke:#a9ccdb;stroke-miterlimit:10" />
		<line
   stroke-miterlimit="10"
   x1="0"
   y1="320"
   x2="512"
   y2="320"
   id="line24"
   style="fill:none;stroke:#a9ccdb;stroke-miterlimit:10" />
		<line
   stroke-miterlimit="10"
   x1="0"
   y1="352"
   x2="512"
   y2="352"
   id="line26"
   style="fill:none;stroke:#a9ccdb;stroke-miterlimit:10" />
		<line
   stroke-miterlimit="10"
   x1="0"
   y1="384"
   x2="512"
   y2="384"
   id="line28"
   style="fill:none;stroke:#a9ccdb;stroke-miterlimit:10" />
		<line
   stroke-miterlimit="10"
   x1="0"
   y1="416"
   x2="512"
   y2="416"
   id="line30"
   style="fill:none;stroke:#a9ccdb;stroke-miterlimit:10" />
		<line
   stroke-miterlimit="10"
   x1="0"
   y1="448"
   x2="512"
   y2="448"
   id="line32"
   style="fill:none;stroke:#ff0000;stroke-miterlimit:10" />
		<line
   stroke-miterlimit="10"
   x1="0"
   y1="480"
   x2="512"
   y2="480"
   id="line34"
   style="fill:none;stroke:#a9ccdb;stroke-miterlimit:10" />
		<line
   stroke-miterlimit="10"
   x1="32"
   y1="0"
   x2="32"
   y2="512"
   id="line36"
   style="fill:none;stroke:#a9ccdb;stroke-miterlimit:10" />
		<line
   stroke-miterlimit="10"
   x1="64"
   y1="0"
   x2="64"
   y2="512"
   id="line38"
   style="fill:none;stroke:#a9ccdb;stroke-miterlimit:10" />
		<line
   stroke-miterlimit="10"
   x1="96"
   y1="0"
   x2="96"
   y2="512"
   id="line40"
   style="fill:none;stroke:#a9ccdb;stroke-miterlimit:10" />
		<line
   stroke-miterlimit="10"
   x1="128"
   y1="0"
   x2="128"
   y2="512"
   id="line42"
   style="fill:none;stroke:#a9ccdb;stroke-miterlimit:10" />
		<line
   stroke-miterlimit="10"
   x1="160"
   y1="0"
   x2="160"
   y2="512"
   id="line44"
   style="fill:none;stroke:#a9ccdb;stroke-miterlimit:10" />
		<line
   stroke-miterlimit="10"
   x1="192"
   y1="0"
   x2="192"
   y2="512"
   id="line46"
   style="fill:none;stroke:#a9ccdb;stroke-miterlimit:10" />
		<line
   stroke-miterlimit="10"
   x1="224"
   y1="0"
   x2="224"
   y2="512"
   id="line48"
   style="fill:none;stroke:#a9ccdb;stroke-miterlimit:10" />
		<line
   stroke-miterlimit="10"
   x1="256"
   y1="0"
   x2="256"
   y2="512"
   id="line50"
   style="fill:none;stroke:#a9ccdb;stroke-miterlimit:10" />
		<line
   stroke-miterlimit="10"
   x1="288"
   y1="0"
   x2="288"
   y2="512"
   id="line52"
   style="fill:none;stroke:#a9ccdb;stroke-miterlimit:10" />
		<line
   stroke-miterlimit="10"
   x1="320"
   y1="0"
   x2="320"
   y2="512"
   id="line54"
   style="fill:none;stroke:#a9ccdb;stroke-miterlimit:10" />
		<line
   stroke-miterlimit="10"
   x1="352"
   y1="0"
   x2="352"
   y2="512"
   id="line56"
   style="fill:none;stroke:#a9ccdb;stroke-miterlimit:10" />
		<line
   stroke-miterlimit="10"
   x1="384"
   y1="0"
   x2="384"
   y2="512"
   id="line58"
   style="fill:none;stroke:#a9ccdb;stroke-miterlimit:10" />
		<line
   stroke-miterlimit="10"
   x1="416"
   y1="0"
   x2="416"
   y2="512"
   id="line60"
   style="fill:none;stroke:#a9ccdb;stroke-miterlimit:10" />
		<line
   stroke-miterlimit="10"
   x1="448"
   y1="0"
   x2="448"
   y2="512"
   id="line62"
   style="fill:none;stroke:#a9ccdb;stroke-miterlimit:10" />
		<line
   stroke-miterlimit="10"
   x1="480"
   y1="0"
   x2="480"
   y2="512"
   id="line64"
   style="fill:none;stroke:#a9ccdb;stroke-miterlimit:10" />
	</g>
	
 
     
 <path
   style="fill:#985827;fill-opacity:0.76521738"
   d="m 97.717667,244.87607 c 17.222003,23.96935 38.475023,32.07589 60.140423,34.74237 21.501,6.27446 82.1732,8.21001 106.4365,6.33446 30.0158,-0.029 64.9152,-11.72169 91.5466,-0.63354 10.0237,4.57854 23.7142,14.4956 29.1972,24.83666 1.7945,3.53515 3.2101,7.1789 4.9287,10.93491 3.1196,6.83584 5.3218,13.56527 6.907,20.34055 3.2513,13.89612 3.9073,27.98514 4.56,43.58076 1.9423,22.20656 2.1554,43.95176 -1.0884,64.36635 -22.6771,88.28409 -58.3165,159.59221 -92.7349,228.7778 -4.3418,8.66002 -10.1471,16.9527 -13.1621,24.80909 -4.0865,10.37044 -11.4234,17.43236 -15.5299,23.90968 -3.5556,5.60848 -8.1733,9.33712 -15.6795,10.45781 -9.6336,1.30116 -19.9851,-2.60308 -26.8024,-8.33774 -6.7129,-5.791 -26.05666,-14.31877 -31.69036,-25.13601 -7.7261,-12.94062 -10.09228,-30.16127 -11.73798,-46.39145 -0.4049,-5.40886 -0.58322,-12.11254 -0.71772,-17.67469 11.92107,-23.1383 41.33108,-27.17743 58.27144,-44.87776 2.36456,-2.39264 4.00612,-8.37429 4.95314,-14.60754 0.76125,-5.26361 0.72943,-11.38394 0.14764,-17.51981 -0.80631,-8.76948 -2.47941,-16.88151 -5.71208,-24.22248 -3.56958,-6.80652 -9.1362,-14.20147 -15.62338,-20.81268 -9.51909,-9.7011 -21.0203,-17.71469 -31.10245,-19.70547 -14.02323,-2.53949 -29.29306,2.01647 -46.21035,12.03932 -26.96234,18.08084 -45.14564,37.65422 -49.70428,59.86142 -3.79921,18.50767 3.62826,38.84473 6.85599,61.67182 2.92811,20.76584 5.2208,41.26319 8.89461,60.47704 4.5832,22.64907 8.95733,42.34105 17.99813,59.78564 5.36872,8.8568 10.78654,17.58931 16.31971,26.19314 3.22008,5.00707 6.47923,9.97056 9.7905,14.8896 11.68474,17.35817 24.01862,34.16285 37.57553,50.37596 4.48915,5.36871 9.11241,10.67255 13.89061,15.91015 4.3834,9.12142 10.253,15.84667 15.8933,20.81161 10.1683,8.95066 18.8417,11.21894 29.3685,12.45318 10.1086,1.11804 20.4386,1.78952 30.5846,1.84355 11.3461,0.0604 22.4622,-0.65127 32.7812,-2.37406 7.4231,-1.26601 13.29,-3.0687 19.9659,-10.31961 9.5898,-12.62016 22.0455,-23.91256 30.1083,-38.17403 6.9939,-12.4174 15.9111,-37.01779 21.3238,-46.68628 4.2226,-14.56873 8.3134,-28.18664 12.3872,-41.30826 5.9721,-19.23568 11.9077,-37.40483 18.1684,-55.93944 5.1259,-15.17527 6.4866,-20.02012 12.2467,-36.47131 1.1712,-9.64324 7.2999,-29.52648 9.949,-38.59727 5.0991,-17.45939 12.0642,-34.04061 17.5392,-50.44516 1.2458,-3.73867 2.485,-7.49123 3.7135,-11.25569 5.7021,-17.47215 11.1755,-35.20048 16.0205,-52.98512 5.3126,-19.5012 9.8696,-39.0701 13.144,-58.4432 1.3445,-13.66751 3.6313,-26.01158 5.8335,-38.72918 2.3395,-11.76131 3.5672,-23.28242 3.9203,-34.20352 0.5004,-15.83185 -0.2335,-37.15514 -0.7268,-45.5263 -2.1716,-9.01657 -5.2765,-18.89819 -9.0431,-28.7423 -7.213,-21.71909 -15.5058,-35.43135 -26.5364,-47.37866 -12.402,-13.23755 -20.8686,-24.07129 -30.2495,-32.87763 -7.9497,-7.46283 -16.556,-13.46969 -28.7703,-18.24967 -27.3469,-10.58637 -57.5159,-15.60517 -31.3073,-11.30615 -14.3582,-1.89709 -31.2264,-6.30538 -44.4181,-9.396 -33.4592,-7.83896 -64.6215,-19.57087 -100.8681,-35.46879 -40.44205,-18.2537 -124.83062,-40.16412 -152.402203,-30.61044 -7.59499,2.6317 -12.75626,6.24273 -14.412,10.79139 -7.18214,13.86271 -13.02965,32.93254 -12.8073,48.94376 0.35735,11.44168 30.67358,52.36071 37.67528,66.26922 z"
   id="path3813"
   inkscape:connector-curvature="0"
   sodipodi:nodetypes="ccccccsccccscccccccccsccscccssscscsccccsscscssccccccsccscsccc" /></svg>