<?xml version="1.0" encoding="UTF-8" standalone="no"?>
<svg
   xmlns:dc="http://purl.org/dc/elements/1.1/"
   xmlns:cc="http://creativecommons.org/ns#"
   xmlns:rdf="http://www.w3.org/1999/02/22-rdf-syntax-ns#"
   xmlns:svg="http://www.w3.org/2000/svg"
   xmlns="http://www.w3.org/2000/svg"
   xmlns:sodipodi="http://sodipodi.sourceforge.net/DTD/sodipodi-0.dtd"
   xmlns:inkscape="http://www.inkscape.org/namespaces/inkscape"
   version="1.1"
   id="Layer_1"
   x="0px"
   y="0px"
   width="1024"
   height="900"
   viewBox="0 0 1024 900"
   enable-background="new 0 0 512 512"
   xml:space="preserve"
   inkscape:version="0.48.0 r9654"
   sodipodi:docname="hephoenician-x10904.svg"><title
   id="title3743">Sinai 357</title><metadata
   id="metadata72"><rdf:RDF><cc:Work
       rdf:about=""><dc:format>image/svg+xml</dc:format><dc:type
         rdf:resource="http://purl.org/dc/dcmitype/StillImage" /><dc:title>Sinai 357</dc:title><dc:date>2017</dc:date><dc:creator><cc:Agent><dc:title>Celeste Claire Horner</dc:title></cc:Agent></dc:creator><dc:publisher><cc:Agent><dc:title>beitdina.net</dc:title></cc:Agent></dc:publisher></cc:Work></rdf:RDF></metadata><defs
   id="defs70" /><sodipodi:namedview
   pagecolor="#ffffff"
   bordercolor="#666666"
   borderopacity="1"
   objecttolerance="10"
   gridtolerance="10"
   guidetolerance="10"
   inkscape:pageopacity="0"
   inkscape:pageshadow="2"
   inkscape:window-width="1013"
   inkscape:window-height="710"
   id="namedview68"
   showgrid="false"
   inkscape:zoom="0.25488281"
   inkscape:cx="104.28386"
   inkscape:cy="425.19318"
   inkscape:window-x="79"
   inkscape:window-y="76"
   inkscape:window-maximized="0"
   inkscape:current-layer="Layer_1" />
   
	<g
   id="Grid"
   transform="matrix(1.9988492,0,0,1.7551819,2.4343167,-0.0362728)">
		<rect
   x="0"
   stroke-miterlimit="10"
   width="512"
   height="512"
   id="rect4"
   y="0"
   style="fill:none;stroke:#a9ccdb;stroke-miterlimit:10" />
		<line
   stroke-miterlimit="10"
   x1="0"
   y1="32"
   x2="512"
   y2="32"
   id="line6"
   style="fill:none;stroke:#a9ccdb;stroke-miterlimit:10" />
		<line
   stroke-miterlimit="10"
   x1="0"
   y1="64"
   x2="512"
   y2="64"
   id="line8"
   style="fill:none;stroke:#a9ccdb;stroke-miterlimit:10" />
		<line
   stroke-miterlimit="10"
   x1="0"
   y1="96"
   x2="512"
   y2="96"
   id="line10"
   style="fill:none;stroke:#a9ccdb;stroke-miterlimit:10" />
		<line
   stroke-miterlimit="10"
   x1="0"
   y1="128"
   x2="512"
   y2="128"
   id="line12"
   style="fill:none;stroke:#a9ccdb;stroke-miterlimit:10" />
		<line
   stroke-miterlimit="10"
   x1="0"
   y1="160"
   x2="512"
   y2="160"
   id="line14"
   style="fill:none;stroke:#a9ccdb;stroke-miterlimit:10" />
		<line
   stroke-miterlimit="10"
   x1="0"
   y1="192"
   x2="512"
   y2="192"
   id="line16"
   style="fill:none;stroke:#a9ccdb;stroke-miterlimit:10" />
		<line
   stroke-miterlimit="10"
   x1="0"
   y1="224"
   x2="512"
   y2="224"
   id="line18"
   style="fill:none;stroke:#a9ccdb;stroke-miterlimit:10" />
		<line
   stroke-miterlimit="10"
   x1="0"
   y1="256"
   x2="512"
   y2="256"
   id="line20"
   style="fill:none;stroke:#a9ccdb;stroke-miterlimit:10" />
		<line
   stroke-miterlimit="10"
   x1="0"
   y1="288"
   x2="512"
   y2="288"
   id="line22"
   style="fill:none;stroke:#a9ccdb;stroke-miterlimit:10" />
		<line
   stroke-miterlimit="10"
   x1="0"
   y1="320"
   x2="512"
   y2="320"
   id="line24"
   style="fill:none;stroke:#a9ccdb;stroke-miterlimit:10" />
		<line
   stroke-miterlimit="10"
   x1="0"
   y1="352"
   x2="512"
   y2="352"
   id="line26"
   style="fill:none;stroke:#a9ccdb;stroke-miterlimit:10" />
		<line
   stroke-miterlimit="10"
   x1="0"
   y1="384"
   x2="512"
   y2="384"
   id="line28"
   style="fill:none;stroke:#a9ccdb;stroke-miterlimit:10" />
		<line
   stroke-miterlimit="10"
   x1="0"
   y1="416"
   x2="512"
   y2="416"
   id="line30"
   style="fill:none;stroke:#a9ccdb;stroke-miterlimit:10" />
		<line
   stroke-miterlimit="10"
   x1="0"
   y1="448"
   x2="512"
   y2="448"
   id="line32"
   style="fill:none;stroke:#ff0000;stroke-miterlimit:10" />
		<line
   stroke-miterlimit="10"
   x1="0"
   y1="480"
   x2="512"
   y2="480"
   id="line34"
   style="fill:none;stroke:#a9ccdb;stroke-miterlimit:10" />
		<line
   stroke-miterlimit="10"
   x1="32"
   y1="0"
   x2="32"
   y2="512"
   id="line36"
   style="fill:none;stroke:#a9ccdb;stroke-miterlimit:10" />
		<line
   stroke-miterlimit="10"
   x1="64"
   y1="0"
   x2="64"
   y2="512"
   id="line38"
   style="fill:none;stroke:#a9ccdb;stroke-miterlimit:10" />
		<line
   stroke-miterlimit="10"
   x1="96"
   y1="0"
   x2="96"
   y2="512"
   id="line40"
   style="fill:none;stroke:#a9ccdb;stroke-miterlimit:10" />
		<line
   stroke-miterlimit="10"
   x1="128"
   y1="0"
   x2="128"
   y2="512"
   id="line42"
   style="fill:none;stroke:#a9ccdb;stroke-miterlimit:10" />
		<line
   stroke-miterlimit="10"
   x1="160"
   y1="0"
   x2="160"
   y2="512"
   id="line44"
   style="fill:none;stroke:#a9ccdb;stroke-miterlimit:10" />
		<line
   stroke-miterlimit="10"
   x1="192"
   y1="0"
   x2="192"
   y2="512"
   id="line46"
   style="fill:none;stroke:#a9ccdb;stroke-miterlimit:10" />
		<line
   stroke-miterlimit="10"
   x1="224"
   y1="0"
   x2="224"
   y2="512"
   id="line48"
   style="fill:none;stroke:#a9ccdb;stroke-miterlimit:10" />
		<line
   stroke-miterlimit="10"
   x1="256"
   y1="0"
   x2="256"
   y2="512"
   id="line50"
   style="fill:none;stroke:#a9ccdb;stroke-miterlimit:10" />
		<line
   stroke-miterlimit="10"
   x1="288"
   y1="0"
   x2="288"
   y2="512"
   id="line52"
   style="fill:none;stroke:#a9ccdb;stroke-miterlimit:10" />
		<line
   stroke-miterlimit="10"
   x1="320"
   y1="0"
   x2="320"
   y2="512"
   id="line54"
   style="fill:none;stroke:#a9ccdb;stroke-miterlimit:10" />
		<line
   stroke-miterlimit="10"
   x1="352"
   y1="0"
   x2="352"
   y2="512"
   id="line56"
   style="fill:none;stroke:#a9ccdb;stroke-miterlimit:10" />
		<line
   stroke-miterlimit="10"
   x1="384"
   y1="0"
   x2="384"
   y2="512"
   id="line58"
   style="fill:none;stroke:#a9ccdb;stroke-miterlimit:10" />
		<line
   stroke-miterlimit="10"
   x1="416"
   y1="0"
   x2="416"
   y2="512"
   id="line60"
   style="fill:none;stroke:#a9ccdb;stroke-miterlimit:10" />
		<line
   stroke-miterlimit="10"
   x1="448"
   y1="0"
   x2="448"
   y2="512"
   id="line62"
   style="fill:none;stroke:#a9ccdb;stroke-miterlimit:10" />
		<line
   stroke-miterlimit="10"
   x1="480"
   y1="0"
   x2="480"
   y2="512"
   id="line64"
   style="fill:none;stroke:#a9ccdb;stroke-miterlimit:10" />
	</g>
    

	<path
   style="fill:#33b2d8;fill-opacity:0.63478262"
   d="m 211.95049,20.025137 c -9.59644,16.97841 -22.39508,43.51699 -12.8517,57.6056 4.36802,18.0672 11.85988,25.744223 21.70242,40.169213 7.60666,5.8878 14.17653,13.01203 20.40598,20.25052 8.44629,9.81449 16.26678,19.83906 25.19726,27.27668 19.75514,18.38603 38.25986,34.21347 55.38175,50.27445 2.44205,2.29149 4.92721,4.64901 7.47736,7.09926 6.81531,6.54833 14.09481,13.75898 22.25624,22.14172 5.71687,5.79953 12.12009,10.91175 20.12747,13.94612 4.59459,2.85474 8.4395,10.56886 10.226,18.50994 1.99427,8.86458 1.42352,18.01197 -3.53271,20.99831 -6.71594,3.88954 -14.88162,5.32502 -23.21073,4.91138 -36.45696,-10.87064 -68.66393,-41.86382 -95.84005,-65.30433 -4.31145,-3.93301 -8.36983,-8.2419 -12.20054,-12.60408 -8.08949,-9.63706 -15.90699,-19.45207 -23.64095,-29.15161 -10.52122,-13.19518 -20.88785,-26.17667 -31.57435,-38.2058 -8.94482,-8.35095 -22.22634,-22.67456 -28.5063,-23.41268 -20.07197,0.99221 -28.55593,7.66883 -32.61995,18.41888 -1.4666,5.78472 -2.78874,11.71131 -3.77231,17.64384 -1.51564,9.14177 -2.22735,18.29763 -1.42489,26.97023 2.01631,20.52032 11.54698,38.94207 22.86708,55.3496 12.0386,11.80642 22.88442,22.03879 33.60534,31.42688 4.39636,3.84981 8.77172,7.55764 13.19972,11.17382 12.89674,10.53228 26.24001,20.2871 41.84921,30.50777 9.68817,6.32748 13.48138,13.91573 20.70851,21.03356 23.11841,9.07853 16.22895,23.32208 25.8748,37.76286 5.19045,0.86824 7.64547,4.963 13.26409,8.86653 12.37109,8.59491 25.49084,20.69518 13.80842,26.71293 -12.11398,7.49891 -13.89341,31.39936 -22.86841,32.28959 -6.1509,14.67319 -21.01824,8.52719 -25.50401,0.6086 -4.68449,-8.26937 -8.74394,-20.6112 -12.76925,-19.80205 -5.64861,-1.60744 -10.19884,-2.16139 -15.77724,-5.46621 -9.15038,-4.41531 -17.58693,-8.50052 -23.54742,-15.59572 -10.48745,-12.48394 -16.21668,-29.92551 -25.4746,-43.68972 -10.1005,-15.07153 -21.15291,-29.00656 -31.01394,-42.90422 -9.52116,-13.2985 -22.86636,-28.37144 -34.33381,-32.76772 -14.60452,-3.13531 -27.577414,-1.1071 -37.333957,5.79145 -7.993918,5.65225 -13.828645,14.57404 -16.632521,26.6041 -3.78004,17.7852 6.30336,38.87565 11.18093,53.93181 11.67312,35.00546 28.652658,57.97605 53.646578,77.30383 24.37214,16.92218 53.06348,35.5104 78.94793,41.09814 12.14374,2.30297 14.8663,-3.58076 22.1803,0.82572 9.26169,14.8651 -0.91946,37.23308 7.43308,49.47319 3.95923,5.39264 15.05057,4.15305 16.74563,7.45422 0,3.61405 -1.91635,8.39811 -8.21912,18.70211 -9.15847,14.97238 -10.11131,18.82974 -7.23805,29.30114 2.48769,5.30096 4.61682,8.59233 6.61775,11.28334 13.20698,32.17666 22.0495,70.64128 38.33584,99.01554 -0.26026,9.4756 -5.42631,7.82258 -3.005,17.2497 4.88877,18.76966 31.34867,25.48251 39.88325,35.80209 5.0796,6.7495 5.49511,15.55849 12.81421,16.91945 1.7901,0.31629 4.40848,2.30537 5.81865,4.42035 1.75485,2.63188 13.85278,14.46958 19.15131,15.02859 7.66758,0.80912 7.78117,0.74161 11.91683,-7.09624 1.50282,-3.7054 4.07796,-7.51509 7.12417,-11.34396 5.67213,-7.12938 12.97753,-14.32511 18.03463,-21.03722 1.59273,-2.05207 2.73144,-4.3822 4.06143,-6.44468 1.27647,-1.97948 2.72913,-3.71241 4.92848,-4.71635 2.65394,-1.17639 4.4876,-4.50181 7.20803,-13.07248 2.00676,-6.32216 -3.88493,-22.8525 -2.2806,-24.06386 1.60434,-1.21135 3.85227,-5.45284 4.99541,-9.42545 2.02053,-7.02218 4.39523,-8.80392 7.44785,-5.58853 0.82064,0.86434 1.51018,3.3911 1.53239,5.61468 1.05539,10.58334 11.56002,11.60612 13.31057,10.89689 1.89662,1.64581 10.61175,11.50751 12.84951,13.58238 10.53849,8.60504 16.20993,18.32996 22.87601,27.38798 4.00994,5.4488 8.3798,10.65628 14.3855,15.23351 5.06523,3.8469 15.43098,7.38025 19.52229,13.94889 4.40464,2.86228 4.33542,1.48792 6.93083,1.34143 1.22234,-0.069 2.02374,-1.55228 6.02243,0.90855 3.14866,1.93772 4.87938,-0.22952 7.41933,0.76935 0.89569,0.35224 0.13259,-1.25353 1.72699,0.51475 0.54953,1.47359 12.07755,9.49604 17.9807,9.35147 1.02211,-0.0249 4.50659,-2.00021 7.74328,-4.38921 5.16069,-3.80911 5.88491,-5.11413 5.88491,-10.60367 0,-6.19986 3.40401,-18.18612 5.16469,-18.18612 1.66976,0 5.22771,-14.96092 5.11569,-21.51095 -0.26505,-15.49618 -6.40265,-36.3018 -12.50682,-42.39645 -2.52322,-2.51928 -6.16142,-7.64936 -8.0849,-11.40018 -4.83342,-7.5194 -15.73238,-18.04245 -20.25017,-23.9966 -2.04414,-12.70022 -9.27603,-14.71571 -18.25889,-17.15495 -4.46393,-1.21218 -6.84051,-2.96262 -9.87885,-5.32139 -1.79558,-1.97306 -23.88221,-1.84427 -22.12317,-3.71968 0.63508,-14.10705 -6.41435,-17.46144 -5.84415,-35.74604 0.72038,-23.10029 6.29992,-63.75186 11.98552,-82.27436 3.4563,-8.384 0.21443,-18.4305 4.0576,-27.69228 20.17779,-48.62745 51.01339,-106.22389 61.54618,-154.32205 12.82682,-37.07589 26.08335,-79.39304 23.44198,-115.5482 -17.06519,-36.8839 -43.86755,-62.94848 -79.39339,-75.67676 -16.19383,-5.77121 -30.93248,-7.88694 -37.90382,-2.62591 -0.74871,2.25846 -27.24909,-3.67915 -31.08761,3.69876 -2.16387,3.75497 -11.5617,19.04015 -13.18574,20.81533 -4.99651,6.62817 -10.07859,-1.84858 -13.71834,-4.168 -14.4389,-14.97761 -44.31025,-22.98013 -51.14075,-40.87677 -1.08789,-9.47679 -4.75235,-16.85649 -10.0788,-22.33363 -6.32513,-6.504083 -14.99389,-10.325263 -24.47478,-11.789273 -14.41434,-1.9107 -12.3251,-12.29806 -17.14577,-18.81255 -9.59249,-13.40571 -20.52093,-17.15453 -31.06794,-26.20557 -11.05194,-5.6665 -10.15749,-22.90194 -15.64343,-20.98634 -6.64694,2.36575 -11.70432,1.14285 -18.68674,-4.5185 -9.56841,-7.75822 -15.17807,-8.38599 -20.27379,-2.26868 z"
   id="path3760"
   inkscape:connector-curvature="0"
   sodipodi:nodetypes="cccsccsccsccccscccsccsscccsccsccscccscccccccsccccccsscscscsssscccsccssscssssssccsccscsccccccccsccccssc" /></svg>