<?xml version="1.0" encoding="UTF-8" standalone="no"?>
<svg
   xmlns:dc="http://purl.org/dc/elements/1.1/"
   xmlns:cc="http://creativecommons.org/ns#"
   xmlns:rdf="http://www.w3.org/1999/02/22-rdf-syntax-ns#"
   xmlns:svg="http://www.w3.org/2000/svg"
   xmlns="http://www.w3.org/2000/svg"
   xmlns:sodipodi="http://sodipodi.sourceforge.net/DTD/sodipodi-0.dtd"
   xmlns:inkscape="http://www.inkscape.org/namespaces/inkscape"
   version="1.1"
   id="Layer_1"
   x="0px"
   y="0px"
   width="700"
   height="1024"
   viewBox="0 0 700 1024"
   enable-background="new 0 0 512 512"
   xml:space="preserve"
   inkscape:version="0.48.0 r9654"
   sodipodi:docname="hethebrew-x5d7.svg"><title
   id="title3743">Sinai 357</title><metadata
   id="metadata72"><rdf:RDF><cc:Work
       rdf:about=""><dc:format>image/svg+xml</dc:format><dc:type
         rdf:resource="http://purl.org/dc/dcmitype/StillImage" /><dc:title>Sinai 357</dc:title><dc:date>2017</dc:date><dc:creator><cc:Agent><dc:title>Celeste Claire Horner</dc:title></cc:Agent></dc:creator><dc:publisher><cc:Agent><dc:title>beitdina.net</dc:title></cc:Agent></dc:publisher></cc:Work></rdf:RDF></metadata><defs
   id="defs70" /><sodipodi:namedview
   pagecolor="#ffffff"
   bordercolor="#666666"
   borderopacity="1"
   objecttolerance="10"
   gridtolerance="10"
   guidetolerance="10"
   inkscape:pageopacity="0"
   inkscape:pageshadow="2"
   inkscape:window-width="1152"
   inkscape:window-height="814"
   id="namedview68"
   showgrid="false"
   inkscape:zoom="0.18022937"
   inkscape:cx="11.577081"
   inkscape:cy="-156.23232"
   inkscape:window-x="-8"
   inkscape:window-y="-8"
   inkscape:window-maximized="1"
   inkscape:current-layer="Layer_1" />
   
	<g
   id="Grid"
   transform="matrix(1.3671726,0,0,2.0005106,3.2501362,4.7867728)">
		<rect
   x="0"
   stroke-miterlimit="10"
   width="512"
   height="512"
   id="rect4"
   y="0"
   style="fill:none;stroke:#a9ccdb;stroke-miterlimit:10" />
		<line
   stroke-miterlimit="10"
   x1="0"
   y1="32"
   x2="512"
   y2="32"
   id="line6"
   style="fill:none;stroke:#a9ccdb;stroke-miterlimit:10" />
		<line
   stroke-miterlimit="10"
   x1="0"
   y1="64"
   x2="512"
   y2="64"
   id="line8"
   style="fill:none;stroke:#a9ccdb;stroke-miterlimit:10" />
		<line
   stroke-miterlimit="10"
   x1="0"
   y1="96"
   x2="512"
   y2="96"
   id="line10"
   style="fill:none;stroke:#a9ccdb;stroke-miterlimit:10" />
		<line
   stroke-miterlimit="10"
   x1="0"
   y1="128"
   x2="512"
   y2="128"
   id="line12"
   style="fill:none;stroke:#a9ccdb;stroke-miterlimit:10" />
		<line
   stroke-miterlimit="10"
   x1="0"
   y1="160"
   x2="512"
   y2="160"
   id="line14"
   style="fill:none;stroke:#a9ccdb;stroke-miterlimit:10" />
		<line
   stroke-miterlimit="10"
   x1="0"
   y1="192"
   x2="512"
   y2="192"
   id="line16"
   style="fill:none;stroke:#a9ccdb;stroke-miterlimit:10" />
		<line
   stroke-miterlimit="10"
   x1="0"
   y1="224"
   x2="512"
   y2="224"
   id="line18"
   style="fill:none;stroke:#a9ccdb;stroke-miterlimit:10" />
		<line
   stroke-miterlimit="10"
   x1="0"
   y1="256"
   x2="512"
   y2="256"
   id="line20"
   style="fill:none;stroke:#a9ccdb;stroke-miterlimit:10" />
		<line
   stroke-miterlimit="10"
   x1="0"
   y1="288"
   x2="512"
   y2="288"
   id="line22"
   style="fill:none;stroke:#a9ccdb;stroke-miterlimit:10" />
		<line
   stroke-miterlimit="10"
   x1="0"
   y1="320"
   x2="512"
   y2="320"
   id="line24"
   style="fill:none;stroke:#a9ccdb;stroke-miterlimit:10" />
		<line
   stroke-miterlimit="10"
   x1="0"
   y1="352"
   x2="512"
   y2="352"
   id="line26"
   style="fill:none;stroke:#a9ccdb;stroke-miterlimit:10" />
		<line
   stroke-miterlimit="10"
   x1="0"
   y1="384"
   x2="512"
   y2="384"
   id="line28"
   style="fill:none;stroke:#a9ccdb;stroke-miterlimit:10" />
		<line
   stroke-miterlimit="10"
   x1="0"
   y1="416"
   x2="512"
   y2="416"
   id="line30"
   style="fill:none;stroke:#a9ccdb;stroke-miterlimit:10" />
		<line
   stroke-miterlimit="10"
   x1="0"
   y1="448"
   x2="512"
   y2="448"
   id="line32"
   style="fill:none;stroke:#ff0000;stroke-miterlimit:10" />
		<line
   stroke-miterlimit="10"
   x1="0"
   y1="480"
   x2="512"
   y2="480"
   id="line34"
   style="fill:none;stroke:#a9ccdb;stroke-miterlimit:10" />
		<line
   stroke-miterlimit="10"
   x1="32"
   y1="0"
   x2="32"
   y2="512"
   id="line36"
   style="fill:none;stroke:#a9ccdb;stroke-miterlimit:10" />
		<line
   stroke-miterlimit="10"
   x1="64"
   y1="0"
   x2="64"
   y2="512"
   id="line38"
   style="fill:none;stroke:#a9ccdb;stroke-miterlimit:10" />
		<line
   stroke-miterlimit="10"
   x1="96"
   y1="0"
   x2="96"
   y2="512"
   id="line40"
   style="fill:none;stroke:#a9ccdb;stroke-miterlimit:10" />
		<line
   stroke-miterlimit="10"
   x1="128"
   y1="0"
   x2="128"
   y2="512"
   id="line42"
   style="fill:none;stroke:#a9ccdb;stroke-miterlimit:10" />
		<line
   stroke-miterlimit="10"
   x1="160"
   y1="0"
   x2="160"
   y2="512"
   id="line44"
   style="fill:none;stroke:#a9ccdb;stroke-miterlimit:10" />
		<line
   stroke-miterlimit="10"
   x1="192"
   y1="0"
   x2="192"
   y2="512"
   id="line46"
   style="fill:none;stroke:#a9ccdb;stroke-miterlimit:10" />
		<line
   stroke-miterlimit="10"
   x1="224"
   y1="0"
   x2="224"
   y2="512"
   id="line48"
   style="fill:none;stroke:#a9ccdb;stroke-miterlimit:10" />
		<line
   stroke-miterlimit="10"
   x1="256"
   y1="0"
   x2="256"
   y2="512"
   id="line50"
   style="fill:none;stroke:#a9ccdb;stroke-miterlimit:10" />
		<line
   stroke-miterlimit="10"
   x1="288"
   y1="0"
   x2="288"
   y2="512"
   id="line52"
   style="fill:none;stroke:#a9ccdb;stroke-miterlimit:10" />
		<line
   stroke-miterlimit="10"
   x1="320"
   y1="0"
   x2="320"
   y2="512"
   id="line54"
   style="fill:none;stroke:#a9ccdb;stroke-miterlimit:10" />
		<line
   stroke-miterlimit="10"
   x1="352"
   y1="0"
   x2="352"
   y2="512"
   id="line56"
   style="fill:none;stroke:#a9ccdb;stroke-miterlimit:10" />
		<line
   stroke-miterlimit="10"
   x1="384"
   y1="0"
   x2="384"
   y2="512"
   id="line58"
   style="fill:none;stroke:#a9ccdb;stroke-miterlimit:10" />
		<line
   stroke-miterlimit="10"
   x1="416"
   y1="0"
   x2="416"
   y2="512"
   id="line60"
   style="fill:none;stroke:#a9ccdb;stroke-miterlimit:10" />
		<line
   stroke-miterlimit="10"
   x1="448"
   y1="0"
   x2="448"
   y2="512"
   id="line62"
   style="fill:none;stroke:#a9ccdb;stroke-miterlimit:10" />
		<line
   stroke-miterlimit="10"
   x1="480"
   y1="0"
   x2="480"
   y2="512"
   id="line64"
   style="fill:none;stroke:#a9ccdb;stroke-miterlimit:10" />
	</g>
	

<path
   style="fill:#b47df1;fill-opacity:0.70869565"
   d="m 174.6902,289.98725 c -0.55993,17.85294 0.0694,35.25112 1.11115,52.82526 1.25494,21.19193 2.34456,42.21684 2.11882,61.68141 1.87382,17.20524 0.23166,33.26902 -3.27223,48.65481 -5.12434,22.50129 -14.23063,43.55249 -22.14449,64.60335 -6.60111,17.78467 -12.33777,37.38807 -19.0434,53.40779 -2.26781,5.38613 -4.63685,10.65226 -7.09014,15.78539 -10.06082,21.05073 -21.53859,39.86461 -33.262717,55.54421 -4.149054,5.54885 -8.328961,10.70518 -12.48784,15.4292 -8.99699,10.08496 -17.68645,19.39811 -23.69023,29.95214 -5.56613,9.78466 -8.82386,20.63589 -7.87816,34.1575 2.568433,16.09166 7.997168,24.28523 16.543189,33.78861 9.745591,10.41581 17.184499,21.98157 23.823336,33.83064 8.612275,15.42662 15.894952,31.03335 24.645512,44.95738 3.56399,5.64095 7.4149,11.07168 11.74729,16.18025 7.35917,8.66773 15.98666,13.29675 25.36626,13.36705 6.60037,0.0495 13.57317,-2.15848 20.73853,-6.80502 7.99101,-5.18196 16.22151,-13.3969 24.44202,-24.89614 4.09777,-5.34396 1.04017,-12.65716 4.10892,-18.26241 2.35395,-4.09884 4.98081,-8.62662 14.16839,-8.61805 7.68504,0.0118 -2.03685,-5.33912 12.45769,-10.73756 14.3879,-2.90163 28.84216,-4.83207 43.26881,-5.85339 12.14454,-0.85976 24.26952,-1.07528 36.31889,-0.68359 14.74688,0.47938 29.38051,1.86829 43.79812,4.09883 15.26407,2.36149 30.28601,5.66635 44.9439,9.83401 13.59786,3.90498 25.27191,8.29486 28.42799,13.0528 7.43217,12.27962 11.8916,28.98351 19.7975,47.73052 2.47591,13.24419 12.37908,22.48169 24.99279,28.10863 17.70995,7.90035 40.76312,8.68325 56.10481,3.44505 4.83325,-3.31778 8.26807,-5.91801 10.97033,-8.13444 2.21316,-1.81526 3.93495,-3.37307 5.53118,-4.85678 9.15053,-5.8279 11.38961,-10.64336 13.95403,-15.68188 4.07454,-8.00558 4.74102,-16.57429 3.22304,-30.66195 -0.67909,-6.81732 -1.09508,-12.336 -0.42799,-13.46913 6.38784,-10.89012 4.12903,-15.01142 1.42727,-22.53172 0.22404,-3.7753 3.9121,-10.98791 4.12772,-14.706 5.44085,-11.09625 1.7931,-21.78973 3.29855,-32.24944 5.42615,-16.86426 3.29783,-45.4771 -3.52463,-60.66768 -7.65873,-17.05257 -9.41414,-20.07791 -10.01618,-27.05871 -4.62135,-8.43871 -4.99745,-16.09979 -3.93483,-23.03485 1.16238,-7.5862 4.04634,-14.30365 4.97832,-20.21995 11.71514,-84.20685 43.75643,-186.05221 67.8642,-257.00425 8.94549,-26.32766 28.68766,-31.04749 28.64228,-55.5983 -1.04958,-15.13392 -2.25696,-29.73427 -4.59401,-43.6029 -2.70738,-22.15523 -9.75466,-31.58313 -24.72273,-46.03129 -17.55121,-16.83618 -35.69026,-26.77677 -47.74998,-24.59228 -15.76943,2.85647 -28.73404,16.32509 -38.4834,32.7699 -5.65637,9.54092 -8.31405,22.63887 -9.7321,35.35032 -5.05261,19.55501 1.42806,43.43926 -1.55517,60.43046 -5.87113,32.23022 -31.9059,72.125 -39.89148,92.18023 -10.65451,38.2869 -18.69171,63.96279 -31.60245,97.21387 -4.04122,10.40799 -8.15222,20.74274 -12.30748,31.11284 -4.5895,11.45357 -9.11853,22.75306 -13.21997,33.24998 -9.01565,20.82226 -23.74805,53.58562 -36.34742,66.31092 -14.56094,6.69568 -27.32817,11.26903 -39.0689,13.67884 -15.13622,3.10675 -28.56633,2.61759 -41.93424,-1.5558 -8.1492,-2.54414 -16.27529,-6.45742 -24.75069,-11.75986 -8.46125,-4.4051 -15.12449,-11.19042 -19.87863,-18.66231 -6.03378,-9.48303 -8.99244,-20.07195 -8.6489,-28.30431 1.20244,-18.21536 6.7421,-38.28188 13.15884,-57.54615 7.22817,-21.70029 15.56927,-42.3826 20.07754,-58.25428 2.45855,-7.83182 4.49322,-15.54981 6.19339,-23.18826 5.19952,-23.36006 7.27069,-45.97615 8.7708,-68.82864 1.00547,-15.31715 1.75439,-30.74051 3.0168,-46.56527 2.19003,-43.79802 -6.50472,-77.76065 -15.88012,-115.1532 -5.65693,-12.25416 -12.20654,-24.63506 -20.51796,-34.83703 -5.89838,-6.22771 -12.86293,-12.87252 -20.36543,-18.6803 -10.8928,-8.43227 -22.91957,-15.10011 -34.46362,-16.16527 -15.64329,-1.2013 -33.18251,5.01291 -35.44374,22.05241 -1.67357,10.04038 -2.62474,20.53736 -3.31495,30.95738 0.99943,18.75389 -0.31032,37.01475 -1.51892,54.78894 -0.57241,8.41809 -1.12212,16.72702 -1.39308,24.92747 z"
   id="path3762"
   inkscape:connector-curvature="0"
   sodipodi:nodetypes="cccsccsscscccccssccccssscccscscscccccscscscccsscccscccsscscscsscccscccsc" /></svg>