<?xml version="1.0" encoding="UTF-8" standalone="no"?>
<svg
   xmlns:dc="http://purl.org/dc/elements/1.1/"
   xmlns:cc="http://creativecommons.org/ns#"
   xmlns:rdf="http://www.w3.org/1999/02/22-rdf-syntax-ns#"
   xmlns:svg="http://www.w3.org/2000/svg"
   xmlns="http://www.w3.org/2000/svg"
   xmlns:sodipodi="http://sodipodi.sourceforge.net/DTD/sodipodi-0.dtd"
   xmlns:inkscape="http://www.inkscape.org/namespaces/inkscape"
   version="1.1"
   id="Layer_1"
   x="0px"
   y="0px"
   width="1000"
   height="1024"
   viewBox="0 0 1000 1024"
   enable-background="new 0 0 512 512"
   xml:space="preserve"
   inkscape:version="0.48.0 r9654"
   sodipodi:docname="hethebrew-x5d7.svg"><title
   id="title3743">Sinai 357</title><metadata
   id="metadata72"><rdf:RDF><cc:Work
       rdf:about=""><dc:format>image/svg+xml</dc:format><dc:type
         rdf:resource="http://purl.org/dc/dcmitype/StillImage" /><dc:title>Sinai 357</dc:title><dc:date>2017</dc:date><dc:creator><cc:Agent><dc:title>Celeste Claire Horner</dc:title></cc:Agent></dc:creator><dc:publisher><cc:Agent><dc:title>beitdina.net</dc:title></cc:Agent></dc:publisher></cc:Work></rdf:RDF></metadata><defs
   id="defs70" /><sodipodi:namedview
   pagecolor="#ffffff"
   bordercolor="#666666"
   borderopacity="1"
   objecttolerance="10"
   gridtolerance="10"
   guidetolerance="10"
   inkscape:pageopacity="0"
   inkscape:pageshadow="2"
   inkscape:window-width="1152"
   inkscape:window-height="814"
   id="namedview68"
   showgrid="false"
   inkscape:zoom="0.36045873"
   inkscape:cx="359.02069"
   inkscape:cy="697.43211"
   inkscape:window-x="-8"
   inkscape:window-y="-8"
   inkscape:window-maximized="1"
   inkscape:current-layer="Layer_1"
   inkscape:snap-center="true" />
   
	<g
   id="Grid"
   transform="matrix(1.951787,0,0,2.0005106,3.2501362,4.7867728)">
		<rect
   x="0"
   stroke-miterlimit="10"
   width="512"
   height="512"
   id="rect4"
   y="0"
   style="fill:none;stroke:#a9ccdb;stroke-miterlimit:10" />
		<line
   stroke-miterlimit="10"
   x1="0"
   y1="32"
   x2="512"
   y2="32"
   id="line6"
   style="fill:none;stroke:#a9ccdb;stroke-miterlimit:10" />
		<line
   stroke-miterlimit="10"
   x1="0"
   y1="64"
   x2="512"
   y2="64"
   id="line8"
   style="fill:none;stroke:#a9ccdb;stroke-miterlimit:10" />
		<line
   stroke-miterlimit="10"
   x1="0"
   y1="96"
   x2="512"
   y2="96"
   id="line10"
   style="fill:none;stroke:#a9ccdb;stroke-miterlimit:10" />
		<line
   stroke-miterlimit="10"
   x1="0"
   y1="128"
   x2="512"
   y2="128"
   id="line12"
   style="fill:none;stroke:#a9ccdb;stroke-miterlimit:10" />
		<line
   stroke-miterlimit="10"
   x1="0"
   y1="160"
   x2="512"
   y2="160"
   id="line14"
   style="fill:none;stroke:#a9ccdb;stroke-miterlimit:10" />
		<line
   stroke-miterlimit="10"
   x1="0"
   y1="192"
   x2="512"
   y2="192"
   id="line16"
   style="fill:none;stroke:#a9ccdb;stroke-miterlimit:10" />
		<line
   stroke-miterlimit="10"
   x1="0"
   y1="224"
   x2="512"
   y2="224"
   id="line18"
   style="fill:none;stroke:#a9ccdb;stroke-miterlimit:10" />
		<line
   stroke-miterlimit="10"
   x1="0"
   y1="256"
   x2="512"
   y2="256"
   id="line20"
   style="fill:none;stroke:#a9ccdb;stroke-miterlimit:10" />
		<line
   stroke-miterlimit="10"
   x1="0"
   y1="288"
   x2="512"
   y2="288"
   id="line22"
   style="fill:none;stroke:#a9ccdb;stroke-miterlimit:10" />
		<line
   stroke-miterlimit="10"
   x1="0"
   y1="320"
   x2="512"
   y2="320"
   id="line24"
   style="fill:none;stroke:#a9ccdb;stroke-miterlimit:10" />
		<line
   stroke-miterlimit="10"
   x1="0"
   y1="352"
   x2="512"
   y2="352"
   id="line26"
   style="fill:none;stroke:#a9ccdb;stroke-miterlimit:10" />
		<line
   stroke-miterlimit="10"
   x1="0"
   y1="384"
   x2="512"
   y2="384"
   id="line28"
   style="fill:none;stroke:#a9ccdb;stroke-miterlimit:10" />
		<line
   stroke-miterlimit="10"
   x1="0"
   y1="416"
   x2="512"
   y2="416"
   id="line30"
   style="fill:none;stroke:#a9ccdb;stroke-miterlimit:10" />
		<line
   stroke-miterlimit="10"
   x1="0"
   y1="448"
   x2="512"
   y2="448"
   id="line32"
   style="fill:none;stroke:#ff0000;stroke-miterlimit:10" />
		<line
   stroke-miterlimit="10"
   x1="0"
   y1="480"
   x2="512"
   y2="480"
   id="line34"
   style="fill:none;stroke:#a9ccdb;stroke-miterlimit:10" />
		<line
   stroke-miterlimit="10"
   x1="32"
   y1="0"
   x2="32"
   y2="512"
   id="line36"
   style="fill:none;stroke:#a9ccdb;stroke-miterlimit:10" />
		<line
   stroke-miterlimit="10"
   x1="64"
   y1="0"
   x2="64"
   y2="512"
   id="line38"
   style="fill:none;stroke:#a9ccdb;stroke-miterlimit:10" />
		<line
   stroke-miterlimit="10"
   x1="96"
   y1="0"
   x2="96"
   y2="512"
   id="line40"
   style="fill:none;stroke:#a9ccdb;stroke-miterlimit:10" />
		<line
   stroke-miterlimit="10"
   x1="128"
   y1="0"
   x2="128"
   y2="512"
   id="line42"
   style="fill:none;stroke:#a9ccdb;stroke-miterlimit:10" />
		<line
   stroke-miterlimit="10"
   x1="160"
   y1="0"
   x2="160"
   y2="512"
   id="line44"
   style="fill:none;stroke:#a9ccdb;stroke-miterlimit:10" />
		<line
   stroke-miterlimit="10"
   x1="192"
   y1="0"
   x2="192"
   y2="512"
   id="line46"
   style="fill:none;stroke:#a9ccdb;stroke-miterlimit:10" />
		<line
   stroke-miterlimit="10"
   x1="224"
   y1="0"
   x2="224"
   y2="512"
   id="line48"
   style="fill:none;stroke:#a9ccdb;stroke-miterlimit:10" />
		<line
   stroke-miterlimit="10"
   x1="256"
   y1="0"
   x2="256"
   y2="512"
   id="line50"
   style="fill:none;stroke:#a9ccdb;stroke-miterlimit:10" />
		<line
   stroke-miterlimit="10"
   x1="288"
   y1="0"
   x2="288"
   y2="512"
   id="line52"
   style="fill:none;stroke:#a9ccdb;stroke-miterlimit:10" />
		<line
   stroke-miterlimit="10"
   x1="320"
   y1="0"
   x2="320"
   y2="512"
   id="line54"
   style="fill:none;stroke:#a9ccdb;stroke-miterlimit:10" />
		<line
   stroke-miterlimit="10"
   x1="352"
   y1="0"
   x2="352"
   y2="512"
   id="line56"
   style="fill:none;stroke:#a9ccdb;stroke-miterlimit:10" />
		<line
   stroke-miterlimit="10"
   x1="384"
   y1="0"
   x2="384"
   y2="512"
   id="line58"
   style="fill:none;stroke:#a9ccdb;stroke-miterlimit:10" />
		<line
   stroke-miterlimit="10"
   x1="416"
   y1="0"
   x2="416"
   y2="512"
   id="line60"
   style="fill:none;stroke:#a9ccdb;stroke-miterlimit:10" />
		<line
   stroke-miterlimit="10"
   x1="448"
   y1="0"
   x2="448"
   y2="512"
   id="line62"
   style="fill:none;stroke:#a9ccdb;stroke-miterlimit:10" />
		<line
   stroke-miterlimit="10"
   x1="480"
   y1="0"
   x2="480"
   y2="512"
   id="line64"
   style="fill:none;stroke:#a9ccdb;stroke-miterlimit:10" />
	</g>
	

<path
   style="fill:#ee4437;fill-opacity:0.59565214"
   d="m 170.59306,281.93276 c -1.3142,19.6271 0.35781,28.89324 -1.34099,47.33404 -1.4741,16.2168 -2.2472,45.81902 -0.7473,60.22842 -0.0969,20.67857 -11.0749,45.20191 -4.07551,68.52491 6.09088,20.29574 2.74579,42.01687 2.71057,61.8556 -0.0394,22.20074 7.44716,42.29161 0.50153,60.34786 -1.02688,16.55391 -6.73505,28.4177 -14.20536,39.0141 -7.63721,10.83312 -17.11619,20.34159 -25.31775,32.18269 -13.66616,19.83807 -25.69442,41.40529 -44.047584,45.40303 -4.93463,0.7867 -15.00997,-0.80184 -17.35073,1.79103 -4.815077,15.69259 -1.698343,38.33774 -2.13463,53.68551 -2.38766,19.14257 0.348541,32.01695 3.1368,50.22464 0.64997,4.75063 12.21571,6.19136 15.01306,10.07411 1.61491,2.24151 3.3061,3.68817 4.71427,6.92243 1.02262,2.34872 2.95529,5.23644 4.80453,6.67136 2.0972,1.62732 2.84342,4.84489 5.54784,6.17221 3.023204,1.48379 6.586914,2.51199 8.113514,5.4229 5.62009,10.71629 -3.45566,27.44892 6.75842,29.94429 42.44105,10.36864 32.77387,-3.32766 36.92196,1.84554 5.96991,7.44525 8.0051,17.1322 17.09643,21.89225 8.92798,1.60626 16.34257,3.31946 26.24947,3.59518 11.16422,0.31071 24.55743,-1.39129 29.05101,-10.68847 1.40049,-2.82361 0.35508,-6.35343 5.16686,-6.2889 5.10558,-0.35214 13.07511,-9.02678 15.96663,-17.11632 2.09248,-5.85409 -0.78678,-9.75002 1.74204,-17.87606 5.47616,-17.55297 14.77812,-28.49816 28.67831,-28.70086 49.35914,-1.55144 92.60105,0.10191 142.75351,2.01836 4.08328,0.16364 13.94999,-0.98393 21.34991,3.58807 5.24904,4.35169 8.82366,9.89881 11.55428,16.04047 7.51261,16.89723 6.67505,43.19895 18.70469,56.58305 8.45811,14.62566 29.45153,17.57989 49.46817,17.19602 10.16201,-0.19488 20.07226,-1.25011 27.96275,-2.0753 9.83158,-5.25749 14.6296,-10.61406 19.22689,-17.7153 15.06134,-15.31939 19.7068,-32.1663 21.50625,-50.15432 -7.4434,-23.00619 17.95628,-50.43992 24.09657,-67.89542 3.39336,-31.78563 15.5215,-65.57717 16.09867,-95.2102 -0.60813,-33.42321 -19.75862,-0.37702 -13.78234,-31.83025 3.34128,-17.58518 0.50068,-44.73101 -0.32216,-64.38202 -1.78492,-11.40475 1.77944,-21.71301 4.01346,-31.91849 3.55774,-11.14117 -0.74941,-22.08429 -0.75148,-32.6845 0.0804,-16.53736 6.5049,-29.50653 14.56146,-45.4665 11.67886,-27.36927 22.83593,-55.9606 21.23243,-83.02482 -1.3103,-21.86436 -4.77871,-40.47779 -8.48775,-59.6291 -2.92553,-14.2329 -9.09277,-21.5584 -18.49745,-25.68104 -17.42297,-4.37875 -38.23758,-8.52656 -58.1746,-9.42056 -20.8798,-0.93627 -40.79704,1.69627 -54.84775,11.36993 -11.09115,7.67409 -0.3243,24.0607 -1.33971,45.03272 -6.49758,28.79111 -5.77162,52.48014 -4.40023,78.5221 -3.46527,21.56456 -6.84945,41.47801 -10.42327,61.13546 -3.7548,20.65293 -7.71895,41.02325 -12.20641,62.72894 -4.2691,20.39804 -9.9389,40.19533 -18.62006,57.75835 -8.29385,16.46867 -19.58016,30.35936 -30.51901,36.51195 -10.61885,2.79531 -39.44934,11.22995 -57.47947,15.51975 -13.13356,3.98511 -43.65173,-6.57974 -51.91006,-14.54725 -3.14107,-3.22772 -6.39072,-6.53571 -10.12257,-9.5835 -11.94286,-8.5097 -21.24047,-11.60145 -25.79926,-24.68189 -1.09093,-3.79619 -1.25028,-10.21255 -1.39505,-13.50376 -0.72395,-16.45768 -7.33543,-36.42719 -1.90281,-61.71982 2.42826,-11.30525 11.4241,-22.3554 14.24167,-35.14265 1.95126,-8.85558 -1.94801,-19.26613 -1.14848,-28.19766 -0.6203,-17.53146 -1.90666,-37.88231 -0.19356,-57.25127 0.74642,-8.43927 2.90773,-28.38508 7.49386,-36.43178 21.68134,-17.72294 20.71204,-66.55617 11.60348,-94.82636 -2.63115,-7.34462 -8.57021,-17.9419 -16.03784,-26.29407 -9.88543,-11.05636 -22.44948,-18.91639 -33.56455,-17.33895 -6.34323,-3.66545 -26.28596,-0.3593 -27.79038,-1.11069 -6.19517,-2.98739 -14.43023,-0.646 -19.10099,-0.33223 -20.62225,-1.88203 -24.88691,3.66518 -34.01352,10.3675 -4.48758,3.93825 -16.8869,7.77399 -16.13205,14.48806 z"
   id="path3762-4"
   inkscape:connector-curvature="0"
   sodipodi:nodetypes="cccsscscccccssssssscsccsccccscscccccscccccccscccscccccccssscsccscccccc" /></svg>