<?xml version="1.0" encoding="UTF-8" standalone="no"?>
<svg
   xmlns:dc="http://purl.org/dc/elements/1.1/"
   xmlns:cc="http://creativecommons.org/ns#"
   xmlns:rdf="http://www.w3.org/1999/02/22-rdf-syntax-ns#"
   xmlns:svg="http://www.w3.org/2000/svg"
   xmlns="http://www.w3.org/2000/svg"
   xmlns:sodipodi="http://sodipodi.sourceforge.net/DTD/sodipodi-0.dtd"
   xmlns:inkscape="http://www.inkscape.org/namespaces/inkscape"
   version="1.1"
   id="Layer_1"
   x="0px"
   y="0px"
   width="1024"
   height="1024"
   viewBox="0 0 1024 1024"
   enable-background="new 0 0 512 512"
   xml:space="preserve"
   inkscape:version="0.48.0 r9654"
   sodipodi:docname="kafhebrew-x5db.svg"><title
   id="title3743">Sinai 357</title><metadata
   id="metadata72"><rdf:RDF><cc:Work
       rdf:about=""><dc:format>image/svg+xml</dc:format><dc:type
         rdf:resource="http://purl.org/dc/dcmitype/StillImage" /><dc:title>Sinai 357</dc:title><dc:date>2017</dc:date><dc:creator><cc:Agent><dc:title>Celeste Claire Horner</dc:title></cc:Agent></dc:creator><dc:publisher><cc:Agent><dc:title>beitdina.net</dc:title></cc:Agent></dc:publisher></cc:Work></rdf:RDF></metadata><defs
   id="defs70" /><sodipodi:namedview
   pagecolor="#ffffff"
   bordercolor="#666666"
   borderopacity="1"
   objecttolerance="10"
   gridtolerance="10"
   guidetolerance="10"
   inkscape:pageopacity="0"
   inkscape:pageshadow="2"
   inkscape:window-width="1152"
   inkscape:window-height="814"
   id="namedview68"
   showgrid="false"
   inkscape:zoom="0.31234963"
   inkscape:cx="289.07122"
   inkscape:cy="380.8575"
   inkscape:window-x="-8"
   inkscape:window-y="-8"
   inkscape:window-maximized="1"
   inkscape:current-layer="Layer_1" />
   
	<g
   id="Grid"
   transform="matrix(2.0004581,0,0,2.0004578,0.50019527,4.8138064)">
		<rect
   x="0"
   stroke-miterlimit="10"
   width="512"
   height="512"
   id="rect4"
   y="0"
   style="fill:none;stroke:#a9ccdb;stroke-miterlimit:10" />
		<line
   stroke-miterlimit="10"
   x1="0"
   y1="32"
   x2="512"
   y2="32"
   id="line6"
   style="fill:none;stroke:#a9ccdb;stroke-miterlimit:10" />
		<line
   stroke-miterlimit="10"
   x1="0"
   y1="64"
   x2="512"
   y2="64"
   id="line8"
   style="fill:none;stroke:#a9ccdb;stroke-miterlimit:10" />
		<line
   stroke-miterlimit="10"
   x1="0"
   y1="96"
   x2="512"
   y2="96"
   id="line10"
   style="fill:none;stroke:#a9ccdb;stroke-miterlimit:10" />
		<line
   stroke-miterlimit="10"
   x1="0"
   y1="128"
   x2="512"
   y2="128"
   id="line12"
   style="fill:none;stroke:#a9ccdb;stroke-miterlimit:10" />
		<line
   stroke-miterlimit="10"
   x1="0"
   y1="160"
   x2="512"
   y2="160"
   id="line14"
   style="fill:none;stroke:#a9ccdb;stroke-miterlimit:10" />
		<line
   stroke-miterlimit="10"
   x1="0"
   y1="192"
   x2="512"
   y2="192"
   id="line16"
   style="fill:none;stroke:#a9ccdb;stroke-miterlimit:10" />
		<line
   stroke-miterlimit="10"
   x1="0"
   y1="224"
   x2="512"
   y2="224"
   id="line18"
   style="fill:none;stroke:#a9ccdb;stroke-miterlimit:10" />
		<line
   stroke-miterlimit="10"
   x1="0"
   y1="256"
   x2="512"
   y2="256"
   id="line20"
   style="fill:none;stroke:#a9ccdb;stroke-miterlimit:10" />
		<line
   stroke-miterlimit="10"
   x1="0"
   y1="288"
   x2="512"
   y2="288"
   id="line22"
   style="fill:none;stroke:#a9ccdb;stroke-miterlimit:10" />
		<line
   stroke-miterlimit="10"
   x1="0"
   y1="320"
   x2="512"
   y2="320"
   id="line24"
   style="fill:none;stroke:#a9ccdb;stroke-miterlimit:10" />
		<line
   stroke-miterlimit="10"
   x1="0"
   y1="352"
   x2="512"
   y2="352"
   id="line26"
   style="fill:none;stroke:#a9ccdb;stroke-miterlimit:10" />
		<line
   stroke-miterlimit="10"
   x1="0"
   y1="384"
   x2="512"
   y2="384"
   id="line28"
   style="fill:none;stroke:#a9ccdb;stroke-miterlimit:10" />
		<line
   stroke-miterlimit="10"
   x1="0"
   y1="416"
   x2="512"
   y2="416"
   id="line30"
   style="fill:none;stroke:#a9ccdb;stroke-miterlimit:10" />
		<line
   stroke-miterlimit="10"
   x1="0"
   y1="448"
   x2="512"
   y2="448"
   id="line32"
   style="fill:none;stroke:#ff0000;stroke-miterlimit:10" />
		<line
   stroke-miterlimit="10"
   x1="0"
   y1="480"
   x2="512"
   y2="480"
   id="line34"
   style="fill:none;stroke:#a9ccdb;stroke-miterlimit:10" />
		<line
   stroke-miterlimit="10"
   x1="32"
   y1="0"
   x2="32"
   y2="512"
   id="line36"
   style="fill:none;stroke:#a9ccdb;stroke-miterlimit:10" />
		<line
   stroke-miterlimit="10"
   x1="64"
   y1="0"
   x2="64"
   y2="512"
   id="line38"
   style="fill:none;stroke:#a9ccdb;stroke-miterlimit:10" />
		<line
   stroke-miterlimit="10"
   x1="96"
   y1="0"
   x2="96"
   y2="512"
   id="line40"
   style="fill:none;stroke:#a9ccdb;stroke-miterlimit:10" />
		<line
   stroke-miterlimit="10"
   x1="128"
   y1="0"
   x2="128"
   y2="512"
   id="line42"
   style="fill:none;stroke:#a9ccdb;stroke-miterlimit:10" />
		<line
   stroke-miterlimit="10"
   x1="160"
   y1="0"
   x2="160"
   y2="512"
   id="line44"
   style="fill:none;stroke:#a9ccdb;stroke-miterlimit:10" />
		<line
   stroke-miterlimit="10"
   x1="192"
   y1="0"
   x2="192"
   y2="512"
   id="line46"
   style="fill:none;stroke:#a9ccdb;stroke-miterlimit:10" />
		<line
   stroke-miterlimit="10"
   x1="224"
   y1="0"
   x2="224"
   y2="512"
   id="line48"
   style="fill:none;stroke:#a9ccdb;stroke-miterlimit:10" />
		<line
   stroke-miterlimit="10"
   x1="256"
   y1="0"
   x2="256"
   y2="512"
   id="line50"
   style="fill:none;stroke:#a9ccdb;stroke-miterlimit:10" />
		<line
   stroke-miterlimit="10"
   x1="288"
   y1="0"
   x2="288"
   y2="512"
   id="line52"
   style="fill:none;stroke:#a9ccdb;stroke-miterlimit:10" />
		<line
   stroke-miterlimit="10"
   x1="320"
   y1="0"
   x2="320"
   y2="512"
   id="line54"
   style="fill:none;stroke:#a9ccdb;stroke-miterlimit:10" />
		<line
   stroke-miterlimit="10"
   x1="352"
   y1="0"
   x2="352"
   y2="512"
   id="line56"
   style="fill:none;stroke:#a9ccdb;stroke-miterlimit:10" />
		<line
   stroke-miterlimit="10"
   x1="384"
   y1="0"
   x2="384"
   y2="512"
   id="line58"
   style="fill:none;stroke:#a9ccdb;stroke-miterlimit:10" />
		<line
   stroke-miterlimit="10"
   x1="416"
   y1="0"
   x2="416"
   y2="512"
   id="line60"
   style="fill:none;stroke:#a9ccdb;stroke-miterlimit:10" />
		<line
   stroke-miterlimit="10"
   x1="448"
   y1="0"
   x2="448"
   y2="512"
   id="line62"
   style="fill:none;stroke:#a9ccdb;stroke-miterlimit:10" />
		<line
   stroke-miterlimit="10"
   x1="480"
   y1="0"
   x2="480"
   y2="512"
   id="line64"
   style="fill:none;stroke:#a9ccdb;stroke-miterlimit:10" />
	</g>
     

<path
   style="fill:#b92e2b;fill-opacity:0.78695655"
   d="m 95.852712,49.365386 c -5.814001,0.37814 2.801946,5.18993 -0.262698,5.79451 -5.600235,1.33692 -0.11218,5.76064 -3.081994,9.84709 -3.792128,4.30834 -1.143274,8.00942 -0.339565,11.05239 0.648098,2.45368 -0.806265,5.36729 1.588164,8.75164 5.927377,7.32479 6.571551,16.225414 12.704551,23.554964 3.72943,6.0184 10.04799,12.81972 18.35567,20.00304 15.86395,13.7169 38.98102,28.82669 65.17345,42.53767 22.79463,12.56099 43.07383,21.60325 65.71937,26.70505 21.20813,4.77797 44.78686,5.85387 65.99916,10.17043 21.39463,4.37381 41.52042,9.61303 61.31431,15.65739 21.64343,10.14336 43.47625,22.80654 63.77311,37.25053 24.38642,17.35426 45.8455,37.63427 52.63036,63.93546 3.5759,18.28176 1.83338,43.17563 -1.77859,65.72481 -3.00889,21.01083 -9.28231,42.39398 -16.74964,61.92069 -8.86066,22.7416 -20.07736,45.10854 -30.81971,64.99382 -10.0881,18.62073 -20.7843,36.05429 -32.58295,51.02533 -8.02716,10.18549 -16.56462,19.23114 -25.76804,26.73533 -10.15156,8.36735 -24.13454,22.33776 -37.68,24.6599 -36.93926,10.996 -64.44441,-25.44904 -89.23205,-35.78911 -38.31668,-12.61398 -67.04986,-8.46738 -102.99009,-10.95881 -16.28561,-1.09349 -25.55873,2.0979 -40.1765,4.8397 -22.448857,4.38884 -33.468884,19.02393 -35.057607,49.81916 -1.00475,20.2787 7.612524,38.57213 8.091282,61.25786 0.300476,14.24034 -8.3106,33.28047 -6.740538,46.06281 2.529735,20.59531 8.960859,78.94552 14.287073,104.79872 2.60326,14.97326 15.25188,28.33598 24.75209,36.76905 8.35356,7.25655 17.56005,13.14012 27.08227,17.34494 13.07656,4.76447 24.36479,7.68929 34.57648,6.38207 9.64235,-1.23436 18.32474,-6.24204 26.64623,-17.03725 11.56642,-12.84514 17.15155,-25.36974 21.40474,-41.01411 10.75137,-39.54646 3.49488,-92.48577 21.29069,-125.40747 34.26327,-19.92908 89.11166,-9.08282 118.69862,-5.1238 3.09448,7.79553 5.53905,17.06724 9.5352,25.40024 24.22521,50.5158 67.2683,116.05572 108.4446,147.12581 20.20048,10.99326 31.15455,19.99107 51.55147,13.08813 13.19513,-3.80155 23.87391,-13.84502 29.44352,-25.8034 2.96575,-2.10129 9.48693,-17.64375 10.34013,-18.62101 l -0.0171,-23.00333 c -0.009,-12.66668 -36.56681,-80.00213 -36.56373,-89.03916 l 0,-10.99297 c -0.49339,-4.214 0.70499,-8.37979 1.9274,-11.80012 0.74491,-2.07336 1.61717,-4.24712 2.56746,-6.45161 3.66126,-8.49333 8.48144,-17.44293 11.64471,-22.86484 16.4417,-21.56775 28.6452,-44.08107 38.28634,-67.1645 5.8505,-14.00764 10.75744,-28.22522 15.0953,-42.56884 8.35092,-27.61323 19.39507,-54.09279 26.19963,-82.04163 6.84463,-31.35316 16.77165,-63.42332 26.30814,-91.91514 4.55688,-13.4859 8.24022,-27.01696 9.52987,-41.26318 2.86071,-30.54625 2.85836,-56.20468 2.35793,-70.46235 0.15453,-6.91054 -0.59626,-13.78368 -4.82939,-18.67761 -5.27482,-6.02118 -13.92326,-10.46841 -20.23056,-17.06721 C 632.1788,239.65659 608.43275,213.49159 583.0476,193.01371 538.48741,158.45617 481.92695,131.07763 437.26189,107.02676 401.80307,88.524806 355.49944,76.607866 316.15735,59.215376 c -30.27256,-4.20776 -69.51374,-16.74741 -107.03587,-25.11794 -34.51765,-7.70033 -67.58052,-11.87243 -90.86819,-2.78423 -16.07924,7.44212 -3.99551,4.99432 -17.70643,11.49118 z"
   id="path3769"
   inkscape:connector-curvature="0"
   sodipodi:nodetypes="cccsccscsccsccccsccccccsscccscsccsccccscccscsscccccccccsccc" />
</svg>