<?xml version="1.0" encoding="UTF-8" standalone="no"?>
<svg
   xmlns:dc="http://purl.org/dc/elements/1.1/"
   xmlns:cc="http://creativecommons.org/ns#"
   xmlns:rdf="http://www.w3.org/1999/02/22-rdf-syntax-ns#"
   xmlns:svg="http://www.w3.org/2000/svg"
   xmlns="http://www.w3.org/2000/svg"
   xmlns:sodipodi="http://sodipodi.sourceforge.net/DTD/sodipodi-0.dtd"
   xmlns:inkscape="http://www.inkscape.org/namespaces/inkscape"
   version="1.1"
   id="Layer_1"
   x="0px"
   y="0px"
   width="800"
   height="1100"
   viewBox="0 0 800 1100"
   enable-background="new 0 0 512 512"
   xml:space="preserve"
   inkscape:version="0.48.0 r9654"
   sodipodi:docname="lamedhebrew-x5dc.svg"><title
   id="title3743">Sinai 357</title><metadata
   id="metadata72"><rdf:RDF><cc:Work
       rdf:about=""><dc:format>image/svg+xml</dc:format><dc:type
         rdf:resource="http://purl.org/dc/dcmitype/StillImage" /><dc:title>Sinai 357</dc:title><dc:date>2017</dc:date><dc:creator><cc:Agent><dc:title>Celeste Claire Horner</dc:title></cc:Agent></dc:creator><dc:publisher><cc:Agent><dc:title>beitdina.net</dc:title></cc:Agent></dc:publisher></cc:Work></rdf:RDF></metadata><defs
   id="defs70" /><sodipodi:namedview
   pagecolor="#ffffff"
   bordercolor="#666666"
   borderopacity="1"
   objecttolerance="10"
   gridtolerance="10"
   guidetolerance="10"
   inkscape:pageopacity="0"
   inkscape:pageshadow="2"
   inkscape:window-width="1152"
   inkscape:window-height="814"
   id="namedview68"
   showgrid="false"
   inkscape:zoom="0.26529628"
   inkscape:cx="-214.14693"
   inkscape:cy="729.85277"
   inkscape:window-x="-8"
   inkscape:window-y="-8"
   inkscape:window-maximized="1"
   inkscape:current-layer="Layer_1" />
   
	<g
   id="Grid"
   transform="matrix(1.5531994,0,0,2.1460938,11.161585,6.1840744)">
		<rect
   x="0"
   stroke-miterlimit="10"
   width="512"
   height="512"
   id="rect4"
   y="0"
   style="fill:none;stroke:#a9ccdb;stroke-miterlimit:10" />
		<line
   stroke-miterlimit="10"
   x1="0"
   y1="32"
   x2="512"
   y2="32"
   id="line6"
   style="fill:none;stroke:#a9ccdb;stroke-miterlimit:10" />
		<line
   stroke-miterlimit="10"
   x1="0"
   y1="64"
   x2="512"
   y2="64"
   id="line8"
   style="fill:none;stroke:#a9ccdb;stroke-miterlimit:10" />
		<line
   stroke-miterlimit="10"
   x1="0"
   y1="96"
   x2="512"
   y2="96"
   id="line10"
   style="fill:none;stroke:#a9ccdb;stroke-miterlimit:10" />
		<line
   stroke-miterlimit="10"
   x1="0"
   y1="128"
   x2="512"
   y2="128"
   id="line12"
   style="fill:none;stroke:#a9ccdb;stroke-miterlimit:10" />
		<line
   stroke-miterlimit="10"
   x1="0"
   y1="160"
   x2="512"
   y2="160"
   id="line14"
   style="fill:none;stroke:#a9ccdb;stroke-miterlimit:10" />
		<line
   stroke-miterlimit="10"
   x1="0"
   y1="192"
   x2="512"
   y2="192"
   id="line16"
   style="fill:none;stroke:#a9ccdb;stroke-miterlimit:10" />
		<line
   stroke-miterlimit="10"
   x1="0"
   y1="224"
   x2="512"
   y2="224"
   id="line18"
   style="fill:none;stroke:#a9ccdb;stroke-miterlimit:10" />
		<line
   stroke-miterlimit="10"
   x1="0"
   y1="256"
   x2="512"
   y2="256"
   id="line20"
   style="fill:none;stroke:#a9ccdb;stroke-miterlimit:10" />
		<line
   stroke-miterlimit="10"
   x1="0"
   y1="288"
   x2="512"
   y2="288"
   id="line22"
   style="fill:none;stroke:#a9ccdb;stroke-miterlimit:10" />
		<line
   stroke-miterlimit="10"
   x1="0"
   y1="320"
   x2="512"
   y2="320"
   id="line24"
   style="fill:none;stroke:#a9ccdb;stroke-miterlimit:10" />
		<line
   stroke-miterlimit="10"
   x1="0"
   y1="352"
   x2="512"
   y2="352"
   id="line26"
   style="fill:none;stroke:#a9ccdb;stroke-miterlimit:10" />
		<line
   stroke-miterlimit="10"
   x1="0"
   y1="384"
   x2="512"
   y2="384"
   id="line28"
   style="fill:none;stroke:#a9ccdb;stroke-miterlimit:10" />
		<line
   stroke-miterlimit="10"
   x1="0"
   y1="416"
   x2="512"
   y2="416"
   id="line30"
   style="fill:none;stroke:#a9ccdb;stroke-miterlimit:10" />
		<line
   stroke-miterlimit="10"
   x1="0"
   y1="448"
   x2="512"
   y2="448"
   id="line32"
   style="fill:none;stroke:#ff0000;stroke-miterlimit:10" />
		<line
   stroke-miterlimit="10"
   x1="0"
   y1="480"
   x2="512"
   y2="480"
   id="line34"
   style="fill:none;stroke:#a9ccdb;stroke-miterlimit:10" />
		<line
   stroke-miterlimit="10"
   x1="32"
   y1="0"
   x2="32"
   y2="512"
   id="line36"
   style="fill:none;stroke:#a9ccdb;stroke-miterlimit:10" />
		<line
   stroke-miterlimit="10"
   x1="64"
   y1="0"
   x2="64"
   y2="512"
   id="line38"
   style="fill:none;stroke:#a9ccdb;stroke-miterlimit:10" />
		<line
   stroke-miterlimit="10"
   x1="96"
   y1="0"
   x2="96"
   y2="512"
   id="line40"
   style="fill:none;stroke:#a9ccdb;stroke-miterlimit:10" />
		<line
   stroke-miterlimit="10"
   x1="128"
   y1="0"
   x2="128"
   y2="512"
   id="line42"
   style="fill:none;stroke:#a9ccdb;stroke-miterlimit:10" />
		<line
   stroke-miterlimit="10"
   x1="160"
   y1="0"
   x2="160"
   y2="512"
   id="line44"
   style="fill:none;stroke:#a9ccdb;stroke-miterlimit:10" />
		<line
   stroke-miterlimit="10"
   x1="192"
   y1="0"
   x2="192"
   y2="512"
   id="line46"
   style="fill:none;stroke:#a9ccdb;stroke-miterlimit:10" />
		<line
   stroke-miterlimit="10"
   x1="224"
   y1="0"
   x2="224"
   y2="512"
   id="line48"
   style="fill:none;stroke:#a9ccdb;stroke-miterlimit:10" />
		<line
   stroke-miterlimit="10"
   x1="256"
   y1="0"
   x2="256"
   y2="512"
   id="line50"
   style="fill:none;stroke:#a9ccdb;stroke-miterlimit:10" />
		<line
   stroke-miterlimit="10"
   x1="288"
   y1="0"
   x2="288"
   y2="512"
   id="line52"
   style="fill:none;stroke:#a9ccdb;stroke-miterlimit:10" />
		<line
   stroke-miterlimit="10"
   x1="320"
   y1="0"
   x2="320"
   y2="512"
   id="line54"
   style="fill:none;stroke:#a9ccdb;stroke-miterlimit:10" />
		<line
   stroke-miterlimit="10"
   x1="352"
   y1="0"
   x2="352"
   y2="512"
   id="line56"
   style="fill:none;stroke:#a9ccdb;stroke-miterlimit:10" />
		<line
   stroke-miterlimit="10"
   x1="384"
   y1="0"
   x2="384"
   y2="512"
   id="line58"
   style="fill:none;stroke:#a9ccdb;stroke-miterlimit:10" />
		<line
   stroke-miterlimit="10"
   x1="416"
   y1="0"
   x2="416"
   y2="512"
   id="line60"
   style="fill:none;stroke:#a9ccdb;stroke-miterlimit:10" />
		<line
   stroke-miterlimit="10"
   x1="448"
   y1="0"
   x2="448"
   y2="512"
   id="line62"
   style="fill:none;stroke:#a9ccdb;stroke-miterlimit:10" />
		<line
   stroke-miterlimit="10"
   x1="480"
   y1="0"
   x2="480"
   y2="512"
   id="line64"
   style="fill:none;stroke:#a9ccdb;stroke-miterlimit:10" />
	</g>
	

<path
   style="fill:#6a5947;fill-opacity:0.67391304"
   d="m 549.4842,77.819974 c 2.01016,8.7603 7.82959,20.0364 8.96312,28.870396 2.43946,19.01155 20.93663,54.07829 18.771,63.84559 -2.24876,10.14221 -5.79599,6.10277 -15.01352,14.80038 -5.05386,4.7688 -5.36448,19.48076 -12.10469,23.32392 -15.80032,9.00909 -28.30254,1.7059 -43.01029,-4.93725 -15.49164,-6.17906 -34.75712,-7.38549 -49.7082,-10.60139 -14.31246,-2.28787 -33.40391,-6.59838 -47.717,-3.92845 -7.82437,10.37921 -15.63254,14.5784 -24.71602,19.42874 -3.87244,2.2087 -3.32055,4.29448 -5.28618,6.29862 -4.01163,11.25427 -1.22353,20.977 -3.59912,31.21313 0.70096,15.59062 -9.48504,22.80834 -18.20361,27.33139 -7.32926,3.80231 -12.97387,5.51875 -16.63393,10.49609 -1.49579,2.23384 -2.32579,6.34589 -3.38689,14.2726 -1.43861,10.6141 -5.01282,18.51089 -6.69653,29.76051 -1.25139,7.2009 -5.61243,13.77961 -8.6168,20.72398 -43.16969,131.57343 -107.82586,265.59583 -148.71133,385.81445 -4.63196,9.50489 -9.59796,17.77411 -14.025,26.03925 -4.73477,8.83966 -8.85303,17.67467 -11.28677,28.01174 -3.08003,13.27823 -2.4502,27.02121 -2.85855,41.86537 -0.32643,11.86652 -0.39026,24.03987 0.32097,35.58601 0.73462,11.92609 2.29615,23.18301 5.24927,32.74148 1.91066,6.0364 4.47127,12.0054 7.61739,18.4803 4.71061,9.55854 11.86819,20.53404 23.05781,29.28581 40.27923,31.50371 60.80915,28.58587 58.99941,2.70541 -3.41769,-10.5676 -3.5184,-37.86814 0.26944,-48.54026 58.90427,-149.66783 92.82702,-274.28022 138.45753,-415.6215 7.64693,-28.88062 12.84839,-47.39601 27.33053,-70.23542 11.43122,-28.91132 35.58025,-47.11395 53.4554,-67.39998 5.36419,-6.2312 9.23559,-14.28211 9.88438,-27.63151 0.6397,-19.22236 2.42047,-19.14393 4.47179,-23.01299 10.41366,-9.13455 6.43319,0.033 18.92901,-1.44282 9.66193,-1.14114 21.2228,4.50151 31.58488,2.90869 7.63825,-1.17412 18.54315,-17.36044 28.99081,-21.08019 4.19923,-1.49508 13.52194,2.21317 16.05112,2.2618 6.21309,7.62926 12.67588,15.88669 20.58661,22.88953 4.39279,3.88864 9.23205,7.39043 14.72295,10.18299 7.02976,3.57519 15.12761,5.98791 24.72406,6.56168 9.24613,0.28433 17.33825,-7.31154 24.92278,-12.25698 8.08067,-7.1694 17.70598,-15.95302 20.81926,-26.10683 0.13893,-12.81294 1.49575,-24.74041 -2.15367,-35.81329 -3.64925,-10.76178 -9.27768,-24.62358 -12.47843,-37.7193 -1.89344,-7.85632 -9.08948,-15.9117 -10.41946,-24.05983 -2.31829,-14.20305 10.02181,-32.04113 8.04972,-47.12243 -1.41401,-10.8138 -10.1956,-18.9305 -14.65856,-28.52474 -6.78749,-14.591496 -10.34259,-31.181996 -15.27432,-43.555996 -6.96266,-17.4699 -16.06697,-26.4868 -32.50003,-35.7439 -20.02781,-11.3355 -50.59674,-21.8584996 -51.14502,5.6718 -0.26705,14.4203 1.02645,30.7396 3.97468,43.9634 z"
   id="path3764"
   inkscape:connector-curvature="0"
   sodipodi:nodetypes="cssssccccccscccccscssccscccccccssscsscccccssssccc" /></svg>