<?xml version="1.0" encoding="UTF-8" standalone="no"?>
<svg
   xmlns:dc="http://purl.org/dc/elements/1.1/"
   xmlns:cc="http://creativecommons.org/ns#"
   xmlns:rdf="http://www.w3.org/1999/02/22-rdf-syntax-ns#"
   xmlns:svg="http://www.w3.org/2000/svg"
   xmlns="http://www.w3.org/2000/svg"
   xmlns:sodipodi="http://sodipodi.sourceforge.net/DTD/sodipodi-0.dtd"
   xmlns:inkscape="http://www.inkscape.org/namespaces/inkscape"
   version="1.1"
   id="Layer_1"
   x="0px"
   y="0px"
   width="1024"
   height="1024"
   viewBox="0 0 1024 1024"
   enable-background="new 0 0 512 512"
   xml:space="preserve"
   inkscape:version="0.48.0 r9654"
   sodipodi:docname="memhebrew-x5de.svg"><title
   id="title3743">Sinai 357</title><metadata
   id="metadata72"><rdf:RDF><cc:Work
       rdf:about=""><dc:format>image/svg+xml</dc:format><dc:type
         rdf:resource="http://purl.org/dc/dcmitype/StillImage" /><dc:title>Sinai 357</dc:title><dc:date>2017</dc:date><dc:creator><cc:Agent><dc:title>Celeste Claire Horner</dc:title></cc:Agent></dc:creator><dc:publisher><cc:Agent><dc:title>beitdina.net</dc:title></cc:Agent></dc:publisher></cc:Work></rdf:RDF></metadata><defs
   id="defs70" /><sodipodi:namedview
   pagecolor="#ffffff"
   bordercolor="#666666"
   borderopacity="1"
   objecttolerance="10"
   gridtolerance="10"
   guidetolerance="10"
   inkscape:pageopacity="0"
   inkscape:pageshadow="2"
   inkscape:window-width="1152"
   inkscape:window-height="814"
   id="namedview68"
   showgrid="false"
   inkscape:zoom="0.67586013"
   inkscape:cx="386.97319"
   inkscape:cy="571.20884"
   inkscape:window-x="-8"
   inkscape:window-y="-8"
   inkscape:window-maximized="1"
   inkscape:current-layer="Layer_1"
   showguides="true"
   inkscape:guide-bbox="true"
   inkscape:snap-smooth-nodes="true" />
   
	<g
   id="Grid"
   transform="matrix(2.0062321,0,0,2.0004578,3.4622736,4.8138064)">
		<rect
   x="0"
   stroke-miterlimit="10"
   width="512"
   height="512"
   id="rect4"
   y="0"
   style="fill:none;stroke:#a9ccdb;stroke-miterlimit:10" />
		<line
   stroke-miterlimit="10"
   x1="0"
   y1="32"
   x2="512"
   y2="32"
   id="line6"
   style="fill:none;stroke:#a9ccdb;stroke-miterlimit:10" />
		<line
   stroke-miterlimit="10"
   x1="0"
   y1="64"
   x2="512"
   y2="64"
   id="line8"
   style="fill:none;stroke:#a9ccdb;stroke-miterlimit:10" />
		<line
   stroke-miterlimit="10"
   x1="0"
   y1="96"
   x2="512"
   y2="96"
   id="line10"
   style="fill:none;stroke:#a9ccdb;stroke-miterlimit:10" />
		<line
   stroke-miterlimit="10"
   x1="0"
   y1="128"
   x2="512"
   y2="128"
   id="line12"
   style="fill:none;stroke:#a9ccdb;stroke-miterlimit:10" />
		<line
   stroke-miterlimit="10"
   x1="0"
   y1="160"
   x2="512"
   y2="160"
   id="line14"
   style="fill:none;stroke:#a9ccdb;stroke-miterlimit:10" />
		<line
   stroke-miterlimit="10"
   x1="0"
   y1="192"
   x2="512"
   y2="192"
   id="line16"
   style="fill:none;stroke:#a9ccdb;stroke-miterlimit:10" />
		<line
   stroke-miterlimit="10"
   x1="0"
   y1="224"
   x2="512"
   y2="224"
   id="line18"
   style="fill:none;stroke:#a9ccdb;stroke-miterlimit:10" />
		<line
   stroke-miterlimit="10"
   x1="0"
   y1="256"
   x2="512"
   y2="256"
   id="line20"
   style="fill:none;stroke:#a9ccdb;stroke-miterlimit:10" />
		<line
   stroke-miterlimit="10"
   x1="0"
   y1="288"
   x2="512"
   y2="288"
   id="line22"
   style="fill:none;stroke:#a9ccdb;stroke-miterlimit:10" />
		<line
   stroke-miterlimit="10"
   x1="0"
   y1="320"
   x2="512"
   y2="320"
   id="line24"
   style="fill:none;stroke:#a9ccdb;stroke-miterlimit:10" />
		<line
   stroke-miterlimit="10"
   x1="0"
   y1="352"
   x2="512"
   y2="352"
   id="line26"
   style="fill:none;stroke:#a9ccdb;stroke-miterlimit:10" />
		<line
   stroke-miterlimit="10"
   x1="0"
   y1="384"
   x2="512"
   y2="384"
   id="line28"
   style="fill:none;stroke:#a9ccdb;stroke-miterlimit:10" />
		<line
   stroke-miterlimit="10"
   x1="0"
   y1="416"
   x2="512"
   y2="416"
   id="line30"
   style="fill:none;stroke:#a9ccdb;stroke-miterlimit:10" />
		<line
   stroke-miterlimit="10"
   x1="0"
   y1="448"
   x2="512"
   y2="448"
   id="line32"
   style="fill:none;stroke:#ff0000;stroke-miterlimit:10" />
		<line
   stroke-miterlimit="10"
   x1="0"
   y1="480"
   x2="512"
   y2="480"
   id="line34"
   style="fill:none;stroke:#a9ccdb;stroke-miterlimit:10" />
		<line
   stroke-miterlimit="10"
   x1="32"
   y1="0"
   x2="32"
   y2="512"
   id="line36"
   style="fill:none;stroke:#a9ccdb;stroke-miterlimit:10" />
		<line
   stroke-miterlimit="10"
   x1="64"
   y1="0"
   x2="64"
   y2="512"
   id="line38"
   style="fill:none;stroke:#a9ccdb;stroke-miterlimit:10" />
		<line
   stroke-miterlimit="10"
   x1="96"
   y1="0"
   x2="96"
   y2="512"
   id="line40"
   style="fill:none;stroke:#a9ccdb;stroke-miterlimit:10" />
		<line
   stroke-miterlimit="10"
   x1="128"
   y1="0"
   x2="128"
   y2="512"
   id="line42"
   style="fill:none;stroke:#a9ccdb;stroke-miterlimit:10" />
		<line
   stroke-miterlimit="10"
   x1="160"
   y1="0"
   x2="160"
   y2="512"
   id="line44"
   style="fill:none;stroke:#a9ccdb;stroke-miterlimit:10" />
		<line
   stroke-miterlimit="10"
   x1="192"
   y1="0"
   x2="192"
   y2="512"
   id="line46"
   style="fill:none;stroke:#a9ccdb;stroke-miterlimit:10" />
		<line
   stroke-miterlimit="10"
   x1="224"
   y1="0"
   x2="224"
   y2="512"
   id="line48"
   style="fill:none;stroke:#a9ccdb;stroke-miterlimit:10" />
		<line
   stroke-miterlimit="10"
   x1="256"
   y1="0"
   x2="256"
   y2="512"
   id="line50"
   style="fill:none;stroke:#a9ccdb;stroke-miterlimit:10" />
		<line
   stroke-miterlimit="10"
   x1="288"
   y1="0"
   x2="288"
   y2="512"
   id="line52"
   style="fill:none;stroke:#a9ccdb;stroke-miterlimit:10" />
		<line
   stroke-miterlimit="10"
   x1="320"
   y1="0"
   x2="320"
   y2="512"
   id="line54"
   style="fill:none;stroke:#a9ccdb;stroke-miterlimit:10" />
		<line
   stroke-miterlimit="10"
   x1="352"
   y1="0"
   x2="352"
   y2="512"
   id="line56"
   style="fill:none;stroke:#a9ccdb;stroke-miterlimit:10" />
		<line
   stroke-miterlimit="10"
   x1="384"
   y1="0"
   x2="384"
   y2="512"
   id="line58"
   style="fill:none;stroke:#a9ccdb;stroke-miterlimit:10" />
		<line
   stroke-miterlimit="10"
   x1="416"
   y1="0"
   x2="416"
   y2="512"
   id="line60"
   style="fill:none;stroke:#a9ccdb;stroke-miterlimit:10" />
		<line
   stroke-miterlimit="10"
   x1="448"
   y1="0"
   x2="448"
   y2="512"
   id="line62"
   style="fill:none;stroke:#a9ccdb;stroke-miterlimit:10" />
		<line
   stroke-miterlimit="10"
   x1="480"
   y1="0"
   x2="480"
   y2="512"
   id="line64"
   style="fill:none;stroke:#a9ccdb;stroke-miterlimit:10" />
	</g>
	
<path
   style="fill:#a15721"
   d="m 323.95616,626.16166 c 29.14804,19.98941 47.57144,44.69932 39.67971,77.61476 -14.63189,27.31553 -22.66728,44.22889 -39.8395,69.55683 -13.2507,19.43174 -33.66572,41.86864 -40.52268,61.05027 -6.95313,14.2405 -10.96718,25.01089 -6.73206,33.73378 6.91296,14.23834 28.83956,23.02133 44.10282,32.53597 22.5998,14.19323 41.15269,25.66296 63.1039,34.98434 7.87703,3.89816 16.66016,9.40623 24.23458,12.12057 15.37975,1.17098 30.22643,-25.409 29.87551,-34.52801 1.9e-4,-1.8692 0.57747,-4.12587 2.17071,-7.05731 3.75108,-8.46623 8.33379,-16.79667 13.2159,-24.9556 9.27858,-15.50627 19.63863,-30.39309 27.42668,-44.41543 11.87793,-21.24139 23.63741,-44.25939 36.99633,-62.34982 6.82705,-9.14664 14.99782,-17.21137 20.30364,-22.31691 7.8418,-8.37997 16.47997,-7.4279 26.5142,-7.55259 55.92354,-1.15755 97.3116,18.25066 142.18517,32.48677 7.93436,2.33706 16.06355,8.43042 24.35911,6.08747 12.71002,-3.74212 23.69098,-21.61011 22.22123,-29.16121 26.34357,-82.47206 70.48215,-165.16127 111.35028,-238.51926 12.49553,-22.4294 30.05044,-38.62137 39.8875,-60.47808 10.42004,-23.75265 14.79921,-44.89924 13.52101,-65.51062 -1.10614,-17.83698 -6.44912,-35.27315 -15.78041,-53.65063 -1.98013,-3.79549 -4.06249,-7.32944 -6.2469,-10.62911 -14.99115,-21.56317 -34.13081,-32.20836 -53.93623,-40.9764 -16.62568,-7.36034 -33.72051,-13.39789 -49.22432,-23.4607 -6.42708,-5.01864 -13.50341,-9.05527 -20.20643,-12.31258 -61.35357,-29.73514 -188.68556,-61.08475 -254.15034,-76.67123 -24.1755,-5.70926 -45.72713,-19.81222 -67.58506,-26.04605 -42.62727,-9.30564 -84.35209,-14.27777 -125.34335,-17.25478 -22.1511,-1.60874 -44.08799,-2.63486 -65.83732,-3.44739 -21.18988,-0.76928 -42.09094,-0.92622 -62.18923,-0.32797 -12.10709,0.43078 -23.30016,1.99358 -32.37331,6.15347 -21.61809,16.87526 -11.65173,45.24641 6.23274,68.77813 6.41084,8.43514 13.83909,16.24845 21.19471,22.68754 9.77361,8.5558 19.41898,14.68538 26.37898,16.62373 89.31414,15.02681 151.39979,8.74143 232.00599,29.54901 18.53138,5.93051 46.09706,17.03137 65.53938,21.26373 60.30393,13.12747 122.9793,20.56837 175.55506,37.71889 5.46646,1.84859 10.83468,3.85849 16.08817,6.06098 14.05372,5.89195 23.37714,17.07141 36.16596,25.62595 12.39669,8.39127 21.81798,17.42778 24.74297,29.66167 -3.19725,61.08712 -37.18228,125.02822 -60.57723,178.28278 -1.84139,4.19161 -3.61717,8.31701 -5.30717,12.36961 -12.59234,30.16413 -25.03085,51.53536 -58.47483,54.96584 -22.5792,2.20023 -45.47395,-1.46187 -66.52078,-4.79731 -49.25769,-5.71714 -86.28227,-25.36741 -125.67508,-46.50328 -45.4239,-20.4031 -87.95474,-46.52073 -129.14069,-67.01715 -42.91829,-21.29576 -86.79555,-39.95739 -127.70103,-58.67342 -32.8165,-15.03711 -65.49141,-26.41056 -97.191127,-23.092 -9.808445,1.34671 -18.410756,5.265 -24.863708,13.03897 -8.682699,11.5778 -4.468294,25.52951 -4.176024,37.49079 0.436811,17.87655 15.386447,31.48483 26.20398,36.73549 34.754549,13.45095 69.814509,29.24719 103.043559,44.27095 42.36058,20.88594 88.28358,35.22723 125.29503,60.25655 z"
   id="path3765"
   inkscape:connector-curvature="0"
   sodipodi:nodetypes="ccccscccccscccccccscsccsccccscccssccscsccsccccccccsccc" />
</svg>