<?xml version="1.0" encoding="UTF-8" standalone="no"?>
<svg
   xmlns:dc="http://purl.org/dc/elements/1.1/"
   xmlns:cc="http://creativecommons.org/ns#"
   xmlns:rdf="http://www.w3.org/1999/02/22-rdf-syntax-ns#"
   xmlns:svg="http://www.w3.org/2000/svg"
   xmlns="http://www.w3.org/2000/svg"
   xmlns:sodipodi="http://sodipodi.sourceforge.net/DTD/sodipodi-0.dtd"
   xmlns:inkscape="http://www.inkscape.org/namespaces/inkscape"
   version="1.1"
   id="Layer_1"
   x="0px"
   y="0px"
   width="1024"
   height="1024"
   viewBox="0 0 1024 1024"
   enable-background="new 0 0 512 512"
   xml:space="preserve"
   inkscape:version="0.48.0 r9654"
   sodipodi:docname="nunhebrew-x5e0.svg"><title
   id="title3743">Sinai 357</title><metadata
   id="metadata72"><rdf:RDF><cc:Work
       rdf:about=""><dc:format>image/svg+xml</dc:format><dc:type
         rdf:resource="http://purl.org/dc/dcmitype/StillImage" /><dc:title>Sinai 357</dc:title><dc:date>2017</dc:date><dc:creator><cc:Agent><dc:title>Celeste Claire Horner</dc:title></cc:Agent></dc:creator><dc:publisher><cc:Agent><dc:title>beitdina.net</dc:title></cc:Agent></dc:publisher></cc:Work></rdf:RDF></metadata><defs
   id="defs70" /><sodipodi:namedview
   pagecolor="#ffffff"
   bordercolor="#666666"
   borderopacity="1"
   objecttolerance="10"
   gridtolerance="10"
   guidetolerance="10"
   inkscape:pageopacity="0"
   inkscape:pageshadow="2"
   inkscape:window-width="1152"
   inkscape:window-height="814"
   id="namedview68"
   showgrid="false"
   inkscape:zoom="0.31234964"
   inkscape:cx="-123.72487"
   inkscape:cy="364.65974"
   inkscape:window-x="-8"
   inkscape:window-y="-8"
   inkscape:window-maximized="1"
   inkscape:current-layer="Layer_1" />
   
	<g
   id="Grid"
   transform="matrix(2.0059908,0,0,2.0059908,0.50299541,-3.5702896)">
		<rect
   x="-0.47926444"
   stroke-miterlimit="10"
   width="512.47925"
   height="510.08289"
   id="rect4"
   y="1.9170578"
   style="fill:none;stroke:#a9ccdb;stroke-miterlimit:10"
   ry="0" />
		<line
   stroke-miterlimit="10"
   x1="0"
   y1="32"
   x2="512"
   y2="32"
   id="line6"
   style="fill:none;stroke:#a9ccdb;stroke-miterlimit:10" />
		<line
   stroke-miterlimit="10"
   x1="0"
   y1="64"
   x2="512"
   y2="64"
   id="line8"
   style="fill:none;stroke:#a9ccdb;stroke-miterlimit:10" />
		<line
   stroke-miterlimit="10"
   x1="0"
   y1="96"
   x2="512"
   y2="96"
   id="line10"
   style="fill:none;stroke:#a9ccdb;stroke-miterlimit:10" />
		<line
   stroke-miterlimit="10"
   x1="0"
   y1="128"
   x2="512"
   y2="128"
   id="line12"
   style="fill:none;stroke:#a9ccdb;stroke-miterlimit:10" />
		<line
   stroke-miterlimit="10"
   x1="0"
   y1="160"
   x2="512"
   y2="160"
   id="line14"
   style="fill:none;stroke:#a9ccdb;stroke-miterlimit:10" />
		<line
   stroke-miterlimit="10"
   x1="0"
   y1="192"
   x2="512"
   y2="192"
   id="line16"
   style="fill:none;stroke:#a9ccdb;stroke-miterlimit:10" />
		<line
   stroke-miterlimit="10"
   x1="0"
   y1="224"
   x2="512"
   y2="224"
   id="line18"
   style="fill:none;stroke:#a9ccdb;stroke-miterlimit:10" />
		<line
   stroke-miterlimit="10"
   x1="0"
   y1="256"
   x2="512"
   y2="256"
   id="line20"
   style="fill:none;stroke:#a9ccdb;stroke-miterlimit:10" />
		<line
   stroke-miterlimit="10"
   x1="0"
   y1="288"
   x2="512"
   y2="288"
   id="line22"
   style="fill:none;stroke:#a9ccdb;stroke-miterlimit:10" />
		<line
   stroke-miterlimit="10"
   x1="0"
   y1="320"
   x2="512"
   y2="320"
   id="line24"
   style="fill:none;stroke:#a9ccdb;stroke-miterlimit:10" />
		<line
   stroke-miterlimit="10"
   x1="0"
   y1="352"
   x2="512"
   y2="352"
   id="line26"
   style="fill:none;stroke:#a9ccdb;stroke-miterlimit:10" />
		<line
   stroke-miterlimit="10"
   x1="0"
   y1="384"
   x2="512"
   y2="384"
   id="line28"
   style="fill:none;stroke:#a9ccdb;stroke-miterlimit:10" />
		<line
   stroke-miterlimit="10"
   x1="0"
   y1="416"
   x2="512"
   y2="416"
   id="line30"
   style="fill:none;stroke:#a9ccdb;stroke-miterlimit:10" />
		<line
   stroke-miterlimit="10"
   x1="0"
   y1="448"
   x2="512"
   y2="448"
   id="line32"
   style="fill:none;stroke:#ff0000;stroke-miterlimit:10" />
		<line
   stroke-miterlimit="10"
   x1="0"
   y1="480"
   x2="512"
   y2="480"
   id="line34"
   style="fill:none;stroke:#a9ccdb;stroke-miterlimit:10" />
		<line
   stroke-miterlimit="10"
   x1="32"
   y1="0"
   x2="32"
   y2="512"
   id="line36"
   style="fill:none;stroke:#a9ccdb;stroke-miterlimit:10" />
		<line
   stroke-miterlimit="10"
   x1="64"
   y1="0"
   x2="64"
   y2="512"
   id="line38"
   style="fill:none;stroke:#a9ccdb;stroke-miterlimit:10" />
		<line
   stroke-miterlimit="10"
   x1="96"
   y1="0"
   x2="96"
   y2="512"
   id="line40"
   style="fill:none;stroke:#a9ccdb;stroke-miterlimit:10" />
		<line
   stroke-miterlimit="10"
   x1="128"
   y1="0"
   x2="128"
   y2="512"
   id="line42"
   style="fill:none;stroke:#a9ccdb;stroke-miterlimit:10" />
		<line
   stroke-miterlimit="10"
   x1="160"
   y1="0"
   x2="160"
   y2="512"
   id="line44"
   style="fill:none;stroke:#a9ccdb;stroke-miterlimit:10" />
		<line
   stroke-miterlimit="10"
   x1="192"
   y1="0"
   x2="192"
   y2="512"
   id="line46"
   style="fill:none;stroke:#a9ccdb;stroke-miterlimit:10" />
		<line
   stroke-miterlimit="10"
   x1="224"
   y1="0"
   x2="224"
   y2="512"
   id="line48"
   style="fill:none;stroke:#a9ccdb;stroke-miterlimit:10" />
		<line
   stroke-miterlimit="10"
   x1="256"
   y1="0"
   x2="256"
   y2="512"
   id="line50"
   style="fill:none;stroke:#a9ccdb;stroke-miterlimit:10" />
		<line
   stroke-miterlimit="10"
   x1="288"
   y1="0"
   x2="288"
   y2="512"
   id="line52"
   style="fill:none;stroke:#a9ccdb;stroke-miterlimit:10" />
		<line
   stroke-miterlimit="10"
   x1="320"
   y1="0"
   x2="320"
   y2="512"
   id="line54"
   style="fill:none;stroke:#a9ccdb;stroke-miterlimit:10" />
		<line
   stroke-miterlimit="10"
   x1="352"
   y1="0"
   x2="352"
   y2="512"
   id="line56"
   style="fill:none;stroke:#a9ccdb;stroke-miterlimit:10" />
		<line
   stroke-miterlimit="10"
   x1="384"
   y1="0"
   x2="384"
   y2="512"
   id="line58"
   style="fill:none;stroke:#a9ccdb;stroke-miterlimit:10" />
		<line
   stroke-miterlimit="10"
   x1="416"
   y1="0"
   x2="416"
   y2="512"
   id="line60"
   style="fill:none;stroke:#a9ccdb;stroke-miterlimit:10" />
		<line
   stroke-miterlimit="10"
   x1="448"
   y1="0"
   x2="448"
   y2="512"
   id="line62"
   style="fill:none;stroke:#a9ccdb;stroke-miterlimit:10" />
		<line
   stroke-miterlimit="10"
   x1="480"
   y1="0"
   x2="480"
   y2="512"
   id="line64"
   style="fill:none;stroke:#a9ccdb;stroke-miterlimit:10" />
	</g>
     

<path
   sodipodi:nodetypes="cscscccccccscssccccccccccscsscscscscscccccscccccccccscccccccccscc"
   inkscape:connector-curvature="0"
   id="path3786"
   d="m 72.286055,124.33087 c -5.845635,8.79141 -6.991459,18.56239 -5.182882,28.34726 4.531361,24.51584 27.608841,49.1188 41.780477,58.6203 4.7016,3.10901 14.6683,8.54292 21.81,11.52169 14.6447,6.10822 23.7658,9.14819 32.0135,11.47158 86.73988,15.91676 152.17208,23.8107 223.05717,37.47811 21.73017,4.46863 42.25291,7.22779 62.39078,14.85645 7.97207,3.55066 17.82247,4.05815 24.27023,7.08308 11.00045,5.34319 23.34751,12.77143 33.46635,16.20502 6.76071,1.62749 13.68089,3.04168 19.03918,6.24159 9.96819,6.01094 20.79292,16.27419 21.63171,18.86957 12.30275,19.33101 14.21287,15.58864 5.2378,27.45814 -6.2842,8.31084 -21.32643,22.81566 -32.21814,36.3337 -9.0815,13.13403 -17.07093,24.51624 -24.24455,35.47725 -3.91832,5.98703 -7.59324,11.84839 -11.06979,17.80091 -8.19965,14.03939 -15.29577,28.58592 -21.87904,46.48452 -5.7778,17.27186 -5.74323,30.64685 -14.39482,47.64135 -7.8713,16.73402 -11.3923,30.30843 -26.4182,30.30843 -39.1382,27.57095 -65.4344,46.33398 -65.4344,96.14882 -5.8493,15.15723 -2.42871,21.07821 -1.57931,27.44248 1.255,10.96114 -1.3144,32.77963 -2.5869,42.08121 -0.4824,5.57735 -3.04795,7.98026 -5.28143,13.65487 -5.73865,13.36475 -0.61335,28.39423 -1.56146,40.73601 -9.5843,4.97622 18.0373,26.74448 22.0182,21.9637 11.9657,-7.52691 15.65248,4.89197 24.42078,6.44653 5.9478,1.03851 32.5068,23.2023 42.8816,24.30126 5.0464,0.53456 19.94508,13.51194 20.08568,14.77099 0.879,3.3969 -0.7683,8.88115 19.1538,5.84482 5.5254,-0.84212 15.8525,6.36416 24.2191,4.38136 16.2262,-3.84544 12.31431,-0.63536 14.52091,0.88258 2.7827,3.19854 13.89246,5.76035 17.01776,7.68478 8.3583,5.14669 5.96178,6.44217 14.76758,9.67672 7.49415,2.0029 12.5,-1.22725 19.06477,-0.36037 3.32028,0.43844 8.23064,1.92492 11.63893,5.66658 1.7954,3.04594 20.03133,-3.57741 24.00663,-3.27411 6.0594,0.46228 14.85986,-5.58005 14.91546,-8.03952 11.07699,-11.39939 22.42734,-24.86203 29.26666,-37.17865 4.30931,-7.76044 6.82775,-15.06591 6.35856,-21.11365 3.00017,-25.46847 -5.91483,-37.48987 1.02258,-60.81442 0.89826,-10.77225 3.5914,-17.85166 5.24495,-26.00894 -0.49072,-7.50229 3.97825,-16.05029 0.64471,-22.80502 -3.33017,-6.47372 -3.14677,-9.88507 -4.53566,-18.78978 -0.55609,-4.05693 -5.17617,-9.25965 -11.48379,-14.83031 -15.72012,-13.88345 -41.92202,-30.05235 -41.81811,-36.4659 -1.1209,-7.08694 -9.6574,-28.9136 -7.3761,-36.03371 14.9085,-30.91475 6.029,-39.86071 14.5667,-71.60947 1.9193,-11.71733 12.73788,-30.78679 15.86638,-40.86001 3.58409,-27.73044 8.48696,-33.85285 18.51849,-53.98355 12.16649,-24.41293 28.83458,-58.17055 49.68624,-77.06538 13.72471,-12.0821 14.11476,-36.64872 23.08749,-48.20153 7.6923,-20.66316 17.43496,-38.30714 12.94376,-54.47832 -0.43436,-1.31481 1.95784,-8.21425 0.17165,-11.2307 -1.47249,-6.29144 -3.65312,-9.04863 -6.14575,-10.21256 -4.62524,-2.15973 -7.92363,-2.03517 -12.1667,-5.62407 -7.4835,-7.7198 -22.64256,-15.98396 -38.51026,-23.85086 -21.7424,-10.3201 -37.021,-15.1661 -64.4983,-24.0146 -10.29298,-2.37277 -18.33829,-5.10968 -27.83301,-7.06573 -20.81364,-4.29187 -42.40888,-9.64065 -61.60249,-13.61823 -23.78828,-5.16114 -46.68944,-7.1891 -69.70765,-11.72804 -40.05758,-11.01825 -82.12663,-16.39984 -123.0922,-24.00408 -22.60376,-4.44483 -46.39778,-9.25403 -67.21386,-12.87322 -21.3457,-3.69947 -42.92852,-6.98393 -63.82303,-9.50985 -21.68755,-2.83935 -42.89101,-4.19561 -64.11091,-3.42019 -10.61859,0.38802 -21.24131,1.30984 -31.930857,2.84671 -11.232192,1.7588 -14.048638,6.68003 -23.086968,12.3364 z"
   style="fill:#97704f;fill-opacity:0.79565214" /></svg>