<?xml version="1.0" encoding="UTF-8" standalone="no"?>
<svg
   xmlns:dc="http://purl.org/dc/elements/1.1/"
   xmlns:cc="http://creativecommons.org/ns#"
   xmlns:rdf="http://www.w3.org/1999/02/22-rdf-syntax-ns#"
   xmlns:svg="http://www.w3.org/2000/svg"
   xmlns="http://www.w3.org/2000/svg"
   xmlns:sodipodi="http://sodipodi.sourceforge.net/DTD/sodipodi-0.dtd"
   xmlns:inkscape="http://www.inkscape.org/namespaces/inkscape"
   version="1.1"
   id="Layer_1"
   x="0px"
   y="0px"
   width="700"
   height="1024"
   viewBox="0 0 700 1024"
   enable-background="new 0 0 512 512"
   xml:space="preserve"
   inkscape:version="0.48.0 r9654"
   sodipodi:docname="pehebrew-x5e4.svg"><title
   id="title3743">Sinai 357</title><metadata
   id="metadata72"><rdf:RDF><cc:Work
       rdf:about=""><dc:format>image/svg+xml</dc:format><dc:type
         rdf:resource="http://purl.org/dc/dcmitype/StillImage" /><dc:title>Sinai 357</dc:title><dc:date>2017</dc:date><dc:creator><cc:Agent><dc:title>Celeste Claire Horner</dc:title></cc:Agent></dc:creator><dc:publisher><cc:Agent><dc:title>beitdina.net</dc:title></cc:Agent></dc:publisher></cc:Work></rdf:RDF></metadata><defs
   id="defs70" /><sodipodi:namedview
   pagecolor="#ffffff"
   bordercolor="#666666"
   borderopacity="1"
   objecttolerance="10"
   gridtolerance="10"
   guidetolerance="10"
   inkscape:pageopacity="0"
   inkscape:pageshadow="2"
   inkscape:window-width="1152"
   inkscape:window-height="814"
   id="namedview68"
   showgrid="false"
   inkscape:zoom="0.13001871"
   inkscape:cx="-2711.7377"
   inkscape:cy="526.61215"
   inkscape:window-x="-8"
   inkscape:window-y="-8"
   inkscape:window-maximized="1"
   inkscape:current-layer="Layer_1"
   showguides="true"
   inkscape:guide-bbox="true" />
   
	
	


<g
   transform="matrix(4.4637923,0,0,4.9975799,-3306.2811,-1632.7003)"
   id="g2991"><g
     id="g4784" /><g
     id="g4634"><g
       id="g4519"
       transform="translate(477.65623,235.79285)"><g
         id="Grid"
         transform="matrix(0.30374688,0,0,0.40028531,263.75757,91.926833)"><rect
           x="0"
           stroke-miterlimit="10"
           width="512"
           height="512"
           id="rect4"
           y="0"
           style="fill:none;stroke:#a9ccdb;stroke-miterlimit:10" /><line
           stroke-miterlimit="10"
           x1="0"
           y1="32"
           x2="512"
           y2="32"
           id="line6"
           style="fill:none;stroke:#a9ccdb;stroke-miterlimit:10" /><line
           stroke-miterlimit="10"
           x1="0"
           y1="64"
           x2="512"
           y2="64"
           id="line8"
           style="fill:none;stroke:#a9ccdb;stroke-miterlimit:10" /><line
           stroke-miterlimit="10"
           x1="0"
           y1="96"
           x2="512"
           y2="96"
           id="line10"
           style="fill:none;stroke:#a9ccdb;stroke-miterlimit:10" /><line
           stroke-miterlimit="10"
           x1="0"
           y1="128"
           x2="512"
           y2="128"
           id="line12"
           style="fill:none;stroke:#a9ccdb;stroke-miterlimit:10" /><line
           stroke-miterlimit="10"
           x1="0"
           y1="160"
           x2="512"
           y2="160"
           id="line14"
           style="fill:none;stroke:#a9ccdb;stroke-miterlimit:10" /><line
           stroke-miterlimit="10"
           x1="0"
           y1="192"
           x2="512"
           y2="192"
           id="line16"
           style="fill:none;stroke:#a9ccdb;stroke-miterlimit:10" /><line
           stroke-miterlimit="10"
           x1="0"
           y1="224"
           x2="512"
           y2="224"
           id="line18"
           style="fill:none;stroke:#a9ccdb;stroke-miterlimit:10" /><line
           stroke-miterlimit="10"
           x1="0"
           y1="256"
           x2="512"
           y2="256"
           id="line20"
           style="fill:none;stroke:#a9ccdb;stroke-miterlimit:10" /><line
           stroke-miterlimit="10"
           x1="0"
           y1="288"
           x2="512"
           y2="288"
           id="line22"
           style="fill:none;stroke:#a9ccdb;stroke-miterlimit:10" /><line
           stroke-miterlimit="10"
           x1="0"
           y1="320"
           x2="512"
           y2="320"
           id="line24"
           style="fill:none;stroke:#a9ccdb;stroke-miterlimit:10" /><line
           stroke-miterlimit="10"
           x1="0"
           y1="352"
           x2="512"
           y2="352"
           id="line26"
           style="fill:none;stroke:#a9ccdb;stroke-miterlimit:10" /><line
           stroke-miterlimit="10"
           x1="0"
           y1="384"
           x2="512"
           y2="384"
           id="line28"
           style="fill:none;stroke:#a9ccdb;stroke-miterlimit:10" /><line
           stroke-miterlimit="10"
           x1="0"
           y1="416"
           x2="512"
           y2="416"
           id="line30"
           style="fill:none;stroke:#a9ccdb;stroke-miterlimit:10" /><line
           stroke-miterlimit="10"
           x1="0"
           y1="448"
           x2="512"
           y2="448"
           id="line32"
           style="fill:none;stroke:#ff0000;stroke-miterlimit:10" /><line
           stroke-miterlimit="10"
           x1="0"
           y1="480"
           x2="512"
           y2="480"
           id="line34"
           style="fill:none;stroke:#a9ccdb;stroke-miterlimit:10" /><line
           stroke-miterlimit="10"
           x1="32"
           y1="0"
           x2="32"
           y2="512"
           id="line36"
           style="fill:none;stroke:#a9ccdb;stroke-miterlimit:10" /><line
           stroke-miterlimit="10"
           x1="64"
           y1="0"
           x2="64"
           y2="512"
           id="line38"
           style="fill:none;stroke:#a9ccdb;stroke-miterlimit:10" /><line
           stroke-miterlimit="10"
           x1="96"
           y1="0"
           x2="96"
           y2="512"
           id="line40"
           style="fill:none;stroke:#a9ccdb;stroke-miterlimit:10" /><line
           stroke-miterlimit="10"
           x1="128"
           y1="0"
           x2="128"
           y2="512"
           id="line42"
           style="fill:none;stroke:#a9ccdb;stroke-miterlimit:10" /><line
           stroke-miterlimit="10"
           x1="160"
           y1="0"
           x2="160"
           y2="512"
           id="line44"
           style="fill:none;stroke:#a9ccdb;stroke-miterlimit:10" /><line
           stroke-miterlimit="10"
           x1="192"
           y1="0"
           x2="192"
           y2="512"
           id="line46"
           style="fill:none;stroke:#a9ccdb;stroke-miterlimit:10" /><line
           stroke-miterlimit="10"
           x1="224"
           y1="0"
           x2="224"
           y2="512"
           id="line48"
           style="fill:none;stroke:#a9ccdb;stroke-miterlimit:10" /><line
           stroke-miterlimit="10"
           x1="256"
           y1="0"
           x2="256"
           y2="512"
           id="line50"
           style="fill:none;stroke:#a9ccdb;stroke-miterlimit:10" /><line
           stroke-miterlimit="10"
           x1="288"
           y1="0"
           x2="288"
           y2="512"
           id="line52"
           style="fill:none;stroke:#a9ccdb;stroke-miterlimit:10" /><line
           stroke-miterlimit="10"
           x1="320"
           y1="0"
           x2="320"
           y2="512"
           id="line54"
           style="fill:none;stroke:#a9ccdb;stroke-miterlimit:10" /><line
           stroke-miterlimit="10"
           x1="352"
           y1="0"
           x2="352"
           y2="512"
           id="line56"
           style="fill:none;stroke:#a9ccdb;stroke-miterlimit:10" /><line
           stroke-miterlimit="10"
           x1="384"
           y1="0"
           x2="384"
           y2="512"
           id="line58"
           style="fill:none;stroke:#a9ccdb;stroke-miterlimit:10" /><line
           stroke-miterlimit="10"
           x1="416"
           y1="0"
           x2="416"
           y2="512"
           id="line60"
           style="fill:none;stroke:#a9ccdb;stroke-miterlimit:10" /><line
           stroke-miterlimit="10"
           x1="448"
           y1="0"
           x2="448"
           y2="512"
           id="line62"
           style="fill:none;stroke:#a9ccdb;stroke-miterlimit:10" /><line
           stroke-miterlimit="10"
           x1="480"
           y1="0"
           x2="480"
           y2="512"
           id="line64"
           style="fill:none;stroke:#a9ccdb;stroke-miterlimit:10" /></g><g
         id="g5180"
         transform="translate(101.34448,27.123307)" /></g></g><flowRoot
     style="font-size:28px;font-style:normal;font-variant:normal;font-weight:normal;font-stretch:normal;text-align:start;line-height:100%;letter-spacing:0px;word-spacing:0px;writing-mode:lr-tb;text-anchor:start;fill:#000000;fill-opacity:1;stroke:none;font-family:Arial;-inkscape-font-specification:Arial"
     id="flowRoot4904"
     xml:space="preserve"><flowRegion
       id="flowRegion4906"><rect
         style="font-size:28px"
         y="186.87357"
         x="31.103449"
         height="32.045979"
         width="594.73566"
         id="rect4908" /></flowRegion><flowPara
       id="flowPara4910" /></flowRoot></g>
  
     

<path
   style="fill:#985827;fill-opacity:0.76521738"
   d="m 64.044586,249.99116 c 24.94035,23.96936 55.718284,32.0759 87.093494,34.74238 31.13708,6.27446 119.00082,8.21001 154.13817,6.33446 43.46801,-0.029 94.00822,-11.72169 132.57496,-0.63354 14.51612,4.57854 34.34223,14.4956 42.28258,24.83666 2.59876,3.53515 4.64871,7.1789 7.1376,10.93491 4.51772,6.83584 7.70686,13.56527 10.00253,20.34055 4.70842,13.89612 5.65835,27.98514 6.60366,43.58075 2.81269,22.20656 3.12128,43.95176 -1.57627,64.36634 -32.84028,88.28409 -84.45222,159.59221 -134.29578,228.7778 -6.28777,8.66002 -14.69479,16.9527 -19.06105,24.80909 -5.91797,10.37044 -16.54302,17.43236 -22.48985,23.90968 -5.14914,5.60848 -11.83639,9.33712 -22.7066,10.45781 -13.95114,1.30116 -28.94191,-2.60308 -38.81445,-8.33774 -9.7214,-5.791 -17.46407,-14.31877 -25.62264,-25.13601 -11.18876,-12.94062 -19.68288,-31.32771 -22.06617,-47.55789 -0.58632,-5.40886 0.003,-10.9461 -0.19484,-16.50825 -1.36385,-15.22772 0.21074,-30.61396 0.49148,-45.10174 -0.44982,-6.41137 -1.73972,-12.72052 -3.80573,-18.5379 -2.07914,-5.85436 -4.94429,-11.21066 -8.53026,-15.67187 -4.6585,-5.9602 -9.74229,-7.65567 -15.51942,-10.91239 -5.24128,-2.60919 -10.07983,-4.4569 -14.63212,-5.67146 -16.16204,-4.31203 -28.71589,-0.64323 -42.8736,5.26461 -20.85131,9.65756 -34.902426,25.19344 -40.885474,46.05271 -3.75947,13.86251 -4.54044,29.08774 -5.41459,44.98504 -0.39815,7.24077 -0.81563,14.62096 -1.54268,22.07532 0.13725,10.12225 -0.37893,32.63085 4.03453,38.32974 12.954144,15.86124 31.306194,27.89244 36.609324,37.29049 6.35847,11.71632 9.71134,17.92842 17.53062,28.33365 2.61397,3.47845 9.14292,11.6953 11.88746,15.03966 5.5507,6.76379 11.35169,13.25973 17.33523,19.51355 5.83127,6.09468 11.83591,11.95941 17.95124,17.61805 7.55085,6.98695 15.27044,13.65969 23.04075,20.06311 5.1096,4.21076 10.24114,8.30507 15.36104,12.29568 3.69915,2.88322 7.39223,5.71232 11.06658,8.4921 6.34782,9.12142 14.84806,15.84667 23.01621,20.81161 14.72529,8.95066 27.28598,11.21894 42.53048,12.45318 14.63895,1.11804 29.59856,1.78952 44.29174,1.84355 16.4311,0.0604 32.52901,-0.65127 47.47267,-2.37406 10.74999,-1.26601 19.24625,-3.0687 28.91409,-10.31961 13.88762,-12.62016 31.92556,-23.91256 43.60186,-38.17403 10.12849,-12.4174 23.04206,-37.01779 30.88056,-46.68628 6.11497,-14.56873 12.03918,-28.18664 17.93881,-41.30826 8.64859,-19.23568 17.24436,-37.40483 26.31088,-55.93944 7.42324,-15.17527 9.39364,-20.02012 17.73536,-36.47131 1.69602,-9.64324 10.57142,-29.52648 14.40784,-38.59727 7.38429,-17.45939 17.47094,-34.04061 25.39973,-50.44516 1.80411,-3.73867 3.59863,-7.49123 5.37777,-11.25569 8.25762,-17.47215 16.184,-35.20048 23.20033,-52.98512 7.69353,-19.5012 14.29286,-39.0701 19.03486,-58.4432 1.94699,-13.6675 5.25861,-26.01157 8.4479,-38.72917 3.38795,-11.76131 5.1658,-23.28242 5.67724,-34.20352 0.72468,-15.83184 -0.33815,-37.15513 -1.0526,-45.52629 -3.14485,-9.01657 -7.64128,-18.89819 -13.09597,-28.7423 -10.44561,-21.71909 -22.45494,-35.43135 -38.42912,-47.37866 -17.96021,-13.23756 -30.22134,-24.0713 -43.80646,-32.87764 -11.51255,-7.46284 -23.97592,-13.4697 -41.66429,-18.24968 -39.60299,-10.58637 -83.29274,-15.60517 -45.33831,-11.30615 -20.79311,-1.89709 -45.22108,-6.30538 -64.32499,-9.396 C 367.22632,182.22705 322.098,170.49514 269.60678,154.59722 194.90677,131.3153 74.967216,132.27475 63.864926,153.3361 c -10.69793,11.43051 -18.99659,39.00869 -18.54723,48.94375 0.5175,11.44168 8.58725,33.8028 18.72689,47.71131 z"
   id="path3813"
   inkscape:connector-curvature="0"
   sodipodi:nodetypes="ccccccsccccsccccccsccsccscccsssssscscsccccsscscssccccccsccsccsc" /></svg>