<?xml version="1.0" encoding="UTF-8" standalone="no"?>
<svg
   xmlns:dc="http://purl.org/dc/elements/1.1/"
   xmlns:cc="http://creativecommons.org/ns#"
   xmlns:rdf="http://www.w3.org/1999/02/22-rdf-syntax-ns#"
   xmlns:svg="http://www.w3.org/2000/svg"
   xmlns="http://www.w3.org/2000/svg"
   xmlns:sodipodi="http://sodipodi.sourceforge.net/DTD/sodipodi-0.dtd"
   xmlns:inkscape="http://www.inkscape.org/namespaces/inkscape"
   version="1.1"
   id="Layer_1"
   x="0px"
   y="0px"
   width="1024"
   height="1024"
   viewBox="0 0 1024 1024"
   enable-background="new 0 0 512 512"
   xml:space="preserve"
   inkscape:version="0.48.0 r9654"
   sodipodi:docname="qofhebrew-x5e7.svg"><title
   id="title3743">Sinai 357</title><metadata
   id="metadata72"><rdf:RDF><cc:Work
       rdf:about=""><dc:format>image/svg+xml</dc:format><dc:type
         rdf:resource="http://purl.org/dc/dcmitype/StillImage" /><dc:title>Sinai 357</dc:title><dc:date>2017</dc:date><dc:creator><cc:Agent><dc:title>Celeste Claire Horner</dc:title></cc:Agent></dc:creator><dc:publisher><cc:Agent><dc:title>beitdina.net</dc:title></cc:Agent></dc:publisher></cc:Work></rdf:RDF></metadata><defs
   id="defs70" /><sodipodi:namedview
   pagecolor="#ffffff"
   bordercolor="#666666"
   borderopacity="1"
   objecttolerance="10"
   gridtolerance="10"
   guidetolerance="10"
   inkscape:pageopacity="0"
   inkscape:pageshadow="2"
   inkscape:window-width="1152"
   inkscape:window-height="814"
   id="namedview68"
   showgrid="false"
   inkscape:zoom="0.31234966"
   inkscape:cx="-29.332387"
   inkscape:cy="296.90704"
   inkscape:window-x="-8"
   inkscape:window-y="-8"
   inkscape:window-maximized="1"
   inkscape:current-layer="Layer_1" />
   
	<g
   id="Grid"
   transform="matrix(2.0004581,0,0,2.0004578,0.50019527,4.8138064)">
		<rect
   x="0"
   stroke-miterlimit="10"
   width="512"
   height="512"
   id="rect4"
   y="0"
   style="fill:none;stroke:#a9ccdb;stroke-miterlimit:10" />
		<line
   stroke-miterlimit="10"
   x1="0"
   y1="32"
   x2="512"
   y2="32"
   id="line6"
   style="fill:none;stroke:#a9ccdb;stroke-miterlimit:10" />
		<line
   stroke-miterlimit="10"
   x1="0"
   y1="64"
   x2="512"
   y2="64"
   id="line8"
   style="fill:none;stroke:#a9ccdb;stroke-miterlimit:10" />
		<line
   stroke-miterlimit="10"
   x1="0"
   y1="96"
   x2="512"
   y2="96"
   id="line10"
   style="fill:none;stroke:#a9ccdb;stroke-miterlimit:10" />
		<line
   stroke-miterlimit="10"
   x1="0"
   y1="128"
   x2="512"
   y2="128"
   id="line12"
   style="fill:none;stroke:#a9ccdb;stroke-miterlimit:10" />
		<line
   stroke-miterlimit="10"
   x1="0"
   y1="160"
   x2="512"
   y2="160"
   id="line14"
   style="fill:none;stroke:#a9ccdb;stroke-miterlimit:10" />
		<line
   stroke-miterlimit="10"
   x1="0"
   y1="192"
   x2="512"
   y2="192"
   id="line16"
   style="fill:none;stroke:#a9ccdb;stroke-miterlimit:10" />
		<line
   stroke-miterlimit="10"
   x1="0"
   y1="224"
   x2="512"
   y2="224"
   id="line18"
   style="fill:none;stroke:#a9ccdb;stroke-miterlimit:10" />
		<line
   stroke-miterlimit="10"
   x1="0"
   y1="256"
   x2="512"
   y2="256"
   id="line20"
   style="fill:none;stroke:#a9ccdb;stroke-miterlimit:10" />
		<line
   stroke-miterlimit="10"
   x1="0"
   y1="288"
   x2="512"
   y2="288"
   id="line22"
   style="fill:none;stroke:#a9ccdb;stroke-miterlimit:10" />
		<line
   stroke-miterlimit="10"
   x1="0"
   y1="320"
   x2="512"
   y2="320"
   id="line24"
   style="fill:none;stroke:#a9ccdb;stroke-miterlimit:10" />
		<line
   stroke-miterlimit="10"
   x1="0"
   y1="352"
   x2="512"
   y2="352"
   id="line26"
   style="fill:none;stroke:#a9ccdb;stroke-miterlimit:10" />
		<line
   stroke-miterlimit="10"
   x1="0"
   y1="384"
   x2="512"
   y2="384"
   id="line28"
   style="fill:none;stroke:#a9ccdb;stroke-miterlimit:10" />
		<line
   stroke-miterlimit="10"
   x1="0"
   y1="416"
   x2="512"
   y2="416"
   id="line30"
   style="fill:none;stroke:#a9ccdb;stroke-miterlimit:10" />
		<line
   stroke-miterlimit="10"
   x1="0"
   y1="448"
   x2="512"
   y2="448"
   id="line32"
   style="fill:none;stroke:#ff0000;stroke-miterlimit:10" />
		<line
   stroke-miterlimit="10"
   x1="0"
   y1="480"
   x2="512"
   y2="480"
   id="line34"
   style="fill:none;stroke:#a9ccdb;stroke-miterlimit:10" />
		<line
   stroke-miterlimit="10"
   x1="32"
   y1="0"
   x2="32"
   y2="512"
   id="line36"
   style="fill:none;stroke:#a9ccdb;stroke-miterlimit:10" />
		<line
   stroke-miterlimit="10"
   x1="64"
   y1="0"
   x2="64"
   y2="512"
   id="line38"
   style="fill:none;stroke:#a9ccdb;stroke-miterlimit:10" />
		<line
   stroke-miterlimit="10"
   x1="96"
   y1="0"
   x2="96"
   y2="512"
   id="line40"
   style="fill:none;stroke:#a9ccdb;stroke-miterlimit:10" />
		<line
   stroke-miterlimit="10"
   x1="128"
   y1="0"
   x2="128"
   y2="512"
   id="line42"
   style="fill:none;stroke:#a9ccdb;stroke-miterlimit:10" />
		<line
   stroke-miterlimit="10"
   x1="160"
   y1="0"
   x2="160"
   y2="512"
   id="line44"
   style="fill:none;stroke:#a9ccdb;stroke-miterlimit:10" />
		<line
   stroke-miterlimit="10"
   x1="192"
   y1="0"
   x2="192"
   y2="512"
   id="line46"
   style="fill:none;stroke:#a9ccdb;stroke-miterlimit:10" />
		<line
   stroke-miterlimit="10"
   x1="224"
   y1="0"
   x2="224"
   y2="512"
   id="line48"
   style="fill:none;stroke:#a9ccdb;stroke-miterlimit:10" />
		<line
   stroke-miterlimit="10"
   x1="256"
   y1="0"
   x2="256"
   y2="512"
   id="line50"
   style="fill:none;stroke:#a9ccdb;stroke-miterlimit:10" />
		<line
   stroke-miterlimit="10"
   x1="288"
   y1="0"
   x2="288"
   y2="512"
   id="line52"
   style="fill:none;stroke:#a9ccdb;stroke-miterlimit:10" />
		<line
   stroke-miterlimit="10"
   x1="320"
   y1="0"
   x2="320"
   y2="512"
   id="line54"
   style="fill:none;stroke:#a9ccdb;stroke-miterlimit:10" />
		<line
   stroke-miterlimit="10"
   x1="352"
   y1="0"
   x2="352"
   y2="512"
   id="line56"
   style="fill:none;stroke:#a9ccdb;stroke-miterlimit:10" />
		<line
   stroke-miterlimit="10"
   x1="384"
   y1="0"
   x2="384"
   y2="512"
   id="line58"
   style="fill:none;stroke:#a9ccdb;stroke-miterlimit:10" />
		<line
   stroke-miterlimit="10"
   x1="416"
   y1="0"
   x2="416"
   y2="512"
   id="line60"
   style="fill:none;stroke:#a9ccdb;stroke-miterlimit:10" />
		<line
   stroke-miterlimit="10"
   x1="448"
   y1="0"
   x2="448"
   y2="512"
   id="line62"
   style="fill:none;stroke:#a9ccdb;stroke-miterlimit:10" />
		<line
   stroke-miterlimit="10"
   x1="480"
   y1="0"
   x2="480"
   y2="512"
   id="line64"
   style="fill:none;stroke:#a9ccdb;stroke-miterlimit:10" />
	</g>
	
<path
   style="fill:#591000"
   d="m 362.27138,197.9741 c -5.41264,21.47934 -7.85745,43.26441 -12.24123,62.64859 -16.20785,63.76635 -26.44948,128.67175 -38.12915,192.35355 -8.00866,43.66605 -16.69344,86.75679 -28.44145,128.51052 -6.99815,24.45124 -14.68922,46.03223 -26.31627,58.08993 -10.49159,10.90451 -18.5726,8.02182 -31.35228,5.04202 -12.97823,-3.42359 -24.46673,-7.98306 -35.05813,-13.33501 -7.81052,-3.94563 -15.2241,-7.4664 -22.38785,-8.07049 -7.9104,-0.62581 -13.27736,-0.97573 -17.10342,-0.8927 -14.01399,0.90916 -16.48858,13.40093 -12.71259,22.03925 4.4009,9.70394 12.1691,20.28969 11.80474,29.80745 0.41706,5.77032 0.74655,11.80196 1.36046,17.66257 0.56511,5.39473 1.37121,10.64454 2.70843,15.41222 1.86219,6.63937 4.75439,12.34375 9.46013,16.20243 3.59669,2.94927 8.25282,4.82031 14.31826,5.20648 7.86793,2.5841 11.96213,7.4203 14.54732,13.3865 3.935,9.44774 6.94999,19.11006 9.71917,28.6833 3.08878,10.67812 5.87173,21.24541 9.2845,31.28047 3.8471,11.27811 7.88541,22.20479 10.84807,32.49919 3.54783,12.36649 8.48278,26.08729 13.40293,37.64943 4.1764,9.01969 10.51387,22.86168 18.13994,25.64607 6.16616,0.91065 9.7059,-10.82401 17.40078,-24.02601 6.87886,-12.27914 13.37493,-24.09517 20.17472,-35.43426 4.61777,-7.6034 8.72864,-14.1135 13.28558,-20.72275 5.54371,-8.03591 11.36019,-15.79771 17.51724,-23.11992 9.01188,-12.45826 19.07639,-14.02485 31.58813,-8.95864 4.1813,1.72815 8.27216,3.76376 12.12096,5.20094 6.58325,2.66822 13.28281,5.4632 20.0023,8.30219 21.24547,8.97625 42.69007,18.39245 61.28689,25.6329 21.81158,9.16059 43.56007,15.35873 64.35965,21.84546 22.32887,6.83665 41.32693,13.90098 63.56186,20.43903 25.57752,7.55521 50.40049,16.06681 75.49741,23.4311 17.02293,5.87765 19.20503,1.82769 22.62908,-11.1929 2.46038,-12.83411 7.44165,-26.98873 12.01959,-41.05059 5.26566,-16.17429 9.99771,-32.22586 9.74617,-46.00404 -0.32867,-9.0327 -8.16593,-17.0264 -16.31116,-18.8556 -22.99895,-16.52462 -29.23756,-38.87196 -32.08781,-63.59776 -0.38903,-23.02542 3.26415,-42.60578 -4.32135,-62.27148 -10.43773,-27.92807 -22.143,-47.45979 -40.7776,-65.99329 -6.64817,-5.3498 -13.12371,-11.92501 -19.55253,-18.90823 -15.50623,-16.84343 -34.57045,-36.06052 -53.0354,-46.18129 -5.41057,-2.96557 -10.76968,-5.15013 -15.97275,-6.26512 -12.53526,-5.3698 -30.64277,-13.4329 -40.89744,-20.5934 -2.79022,-2.027 -5.50666,-4.1263 -8.40577,-5.8387 -4.1583,-2.4354 -8.03584,-3.6193 -11.14584,-2.9199 -1.90683,0.796 -3.55818,2.2906 -4.65986,4.046 -1.38414,2.2055 -1.90035,4.8228 -0.96498,6.9831 1.57461,1.7506 3.73165,6.3568 5.10892,8.5006 2.00844,3.126 3.16441,3.939 5.10995,7.2332 10.14133,17.1471 15.37835,42.6879 26.55554,55.5848 5.17267,5.97554 11.31416,11.78374 17.96292,17.51446 3.08777,2.66142 6.28494,5.30613 9.5453,7.94313 24.04998,19.45178 51.53762,38.48395 63.90726,60.70888 5.23279,14.04022 3.90429,37.00541 4.82124,60.17423 1.25799,31.78575 -3.00251,60.84753 -20.57597,63.73328 -16.91372,-4.23538 -34.03082,-9.28854 -51.11816,-14.77878 -19.22514,-6.17713 -38.41261,-12.90756 -57.23036,-19.64909 -24.53976,-7.68367 -45.10364,-17.17663 -67.80352,-25.70201 -10.80663,-4.42332 -15.41314,-11.81876 -17.19119,-20.43487 -2.82402,-15.86889 1.45135,-33.07042 3.30006,-47.42737 2.84249,-22.5912 7.31655,-42.32714 11.4252,-64.12821 8.08389,-42.8943 17.05125,-86.88895 25.48517,-128.08095 4.3103,-21.07274 8.41829,-41.88211 13.28898,-62.24727 6.29578,-21.32671 9.68882,-44.61453 13.28739,-64.48344 8.3157,-45.02009 14.20665,-90.25996 20.47162,-130.63462 2.49659,-16.28045 1.07143,-43.6719 -5.21657,-51.0993 -5.14728,-5.15705 -17.88648,-15.26206 -24.16336,-12.84388 -2.42255,0.46169 -4.20313,-0.0244 -6.83993,0.0261 -1.78388,0.30259 -2.48666,-1.00662 -4.0321,-1.22411 -2.01802,-0.28401 -2.85934,1.2306 -4.4373,-0.24574 -2.40356,-2.08022 -5.37077,-1.35054 -8.02135,-1.13481 -4.52882,0.37024 -9.72475,0.94658 -12.04855,3.59519 -2.04917,2.56401 -2.32523,6.20326 -4.15945,6.30213 -15.77924,9.70954 -18.66153,42.48586 -22.34119,59.02985 z"
   id="path3782"
   inkscape:connector-curvature="0"
   sodipodi:nodetypes="ccsccccccccsssccsccccccccccscccccscccccssccccscsccsscscsccccscccccccscccccc" />
</svg>