<?xml version="1.0" encoding="UTF-8" standalone="no"?>
<svg
   xmlns:dc="http://purl.org/dc/elements/1.1/"
   xmlns:cc="http://creativecommons.org/ns#"
   xmlns:rdf="http://www.w3.org/1999/02/22-rdf-syntax-ns#"
   xmlns:svg="http://www.w3.org/2000/svg"
   xmlns="http://www.w3.org/2000/svg"
   xmlns:sodipodi="http://sodipodi.sourceforge.net/DTD/sodipodi-0.dtd"
   xmlns:inkscape="http://www.inkscape.org/namespaces/inkscape"
   version="1.1"
   id="Layer_1"
   x="0px"
   y="0px"
   width="1024"
   height="1024"
   viewBox="0 0 1024 1024"
   enable-background="new 0 0 512 512"
   xml:space="preserve"
   inkscape:version="0.48.0 r9654"
   sodipodi:docname="samekhhebrew-x5e1.svg"><title
   id="title3743">Sinai 357</title><metadata
   id="metadata72"><rdf:RDF><cc:Work
       rdf:about=""><dc:format>image/svg+xml</dc:format><dc:type
         rdf:resource="http://purl.org/dc/dcmitype/StillImage" /><dc:title>Sinai 357</dc:title><dc:date>2017</dc:date><dc:creator><cc:Agent><dc:title>Celeste Claire Horner</dc:title></cc:Agent></dc:creator><dc:publisher><cc:Agent><dc:title>beitdina.net</dc:title></cc:Agent></dc:publisher></cc:Work></rdf:RDF></metadata><defs
   id="defs70" /><sodipodi:namedview
   pagecolor="#ffffff"
   bordercolor="#666666"
   borderopacity="1"
   objecttolerance="10"
   gridtolerance="10"
   guidetolerance="10"
   inkscape:pageopacity="0"
   inkscape:pageshadow="2"
   inkscape:window-width="1152"
   inkscape:window-height="814"
   id="namedview68"
   showgrid="false"
   inkscape:zoom="0.25133548"
   inkscape:cx="-657.6921"
   inkscape:cy="643.6426"
   inkscape:window-x="-8"
   inkscape:window-y="-8"
   inkscape:window-maximized="1"
   inkscape:current-layer="Layer_1" />
   
	<g
   id="Grid"
   transform="matrix(2.0004581,0,0,2.0004578,0.50019527,4.8138064)">
		<rect
   x="0"
   stroke-miterlimit="10"
   width="512"
   height="512"
   id="rect4"
   y="0"
   style="fill:none;stroke:#a9ccdb;stroke-miterlimit:10" />
		<line
   stroke-miterlimit="10"
   x1="0"
   y1="32"
   x2="512"
   y2="32"
   id="line6"
   style="fill:none;stroke:#a9ccdb;stroke-miterlimit:10" />
		<line
   stroke-miterlimit="10"
   x1="0"
   y1="64"
   x2="512"
   y2="64"
   id="line8"
   style="fill:none;stroke:#a9ccdb;stroke-miterlimit:10" />
		<line
   stroke-miterlimit="10"
   x1="0"
   y1="96"
   x2="512"
   y2="96"
   id="line10"
   style="fill:none;stroke:#a9ccdb;stroke-miterlimit:10" />
		<line
   stroke-miterlimit="10"
   x1="0"
   y1="128"
   x2="512"
   y2="128"
   id="line12"
   style="fill:none;stroke:#a9ccdb;stroke-miterlimit:10" />
		<line
   stroke-miterlimit="10"
   x1="0"
   y1="160"
   x2="512"
   y2="160"
   id="line14"
   style="fill:none;stroke:#a9ccdb;stroke-miterlimit:10" />
		<line
   stroke-miterlimit="10"
   x1="0"
   y1="192"
   x2="512"
   y2="192"
   id="line16"
   style="fill:none;stroke:#a9ccdb;stroke-miterlimit:10" />
		<line
   stroke-miterlimit="10"
   x1="0"
   y1="224"
   x2="512"
   y2="224"
   id="line18"
   style="fill:none;stroke:#a9ccdb;stroke-miterlimit:10" />
		<line
   stroke-miterlimit="10"
   x1="0"
   y1="256"
   x2="512"
   y2="256"
   id="line20"
   style="fill:none;stroke:#a9ccdb;stroke-miterlimit:10" />
		<line
   stroke-miterlimit="10"
   x1="0"
   y1="288"
   x2="512"
   y2="288"
   id="line22"
   style="fill:none;stroke:#a9ccdb;stroke-miterlimit:10" />
		<line
   stroke-miterlimit="10"
   x1="0"
   y1="320"
   x2="512"
   y2="320"
   id="line24"
   style="fill:none;stroke:#a9ccdb;stroke-miterlimit:10" />
		<line
   stroke-miterlimit="10"
   x1="0"
   y1="352"
   x2="512"
   y2="352"
   id="line26"
   style="fill:none;stroke:#a9ccdb;stroke-miterlimit:10" />
		<line
   stroke-miterlimit="10"
   x1="0"
   y1="384"
   x2="512"
   y2="384"
   id="line28"
   style="fill:none;stroke:#a9ccdb;stroke-miterlimit:10" />
		<line
   stroke-miterlimit="10"
   x1="0"
   y1="416"
   x2="512"
   y2="416"
   id="line30"
   style="fill:none;stroke:#a9ccdb;stroke-miterlimit:10" />
		<line
   stroke-miterlimit="10"
   x1="0"
   y1="448"
   x2="512"
   y2="448"
   id="line32"
   style="fill:none;stroke:#ff0000;stroke-miterlimit:10" />
		<line
   stroke-miterlimit="10"
   x1="0"
   y1="480"
   x2="512"
   y2="480"
   id="line34"
   style="fill:none;stroke:#a9ccdb;stroke-miterlimit:10" />
		<line
   stroke-miterlimit="10"
   x1="32"
   y1="0"
   x2="32"
   y2="512"
   id="line36"
   style="fill:none;stroke:#a9ccdb;stroke-miterlimit:10" />
		<line
   stroke-miterlimit="10"
   x1="64"
   y1="0"
   x2="64"
   y2="512"
   id="line38"
   style="fill:none;stroke:#a9ccdb;stroke-miterlimit:10" />
		<line
   stroke-miterlimit="10"
   x1="96"
   y1="0"
   x2="96"
   y2="512"
   id="line40"
   style="fill:none;stroke:#a9ccdb;stroke-miterlimit:10" />
		<line
   stroke-miterlimit="10"
   x1="128"
   y1="0"
   x2="128"
   y2="512"
   id="line42"
   style="fill:none;stroke:#a9ccdb;stroke-miterlimit:10" />
		<line
   stroke-miterlimit="10"
   x1="160"
   y1="0"
   x2="160"
   y2="512"
   id="line44"
   style="fill:none;stroke:#a9ccdb;stroke-miterlimit:10" />
		<line
   stroke-miterlimit="10"
   x1="192"
   y1="0"
   x2="192"
   y2="512"
   id="line46"
   style="fill:none;stroke:#a9ccdb;stroke-miterlimit:10" />
		<line
   stroke-miterlimit="10"
   x1="224"
   y1="0"
   x2="224"
   y2="512"
   id="line48"
   style="fill:none;stroke:#a9ccdb;stroke-miterlimit:10" />
		<line
   stroke-miterlimit="10"
   x1="256"
   y1="0"
   x2="256"
   y2="512"
   id="line50"
   style="fill:none;stroke:#a9ccdb;stroke-miterlimit:10" />
		<line
   stroke-miterlimit="10"
   x1="288"
   y1="0"
   x2="288"
   y2="512"
   id="line52"
   style="fill:none;stroke:#a9ccdb;stroke-miterlimit:10" />
		<line
   stroke-miterlimit="10"
   x1="320"
   y1="0"
   x2="320"
   y2="512"
   id="line54"
   style="fill:none;stroke:#a9ccdb;stroke-miterlimit:10" />
		<line
   stroke-miterlimit="10"
   x1="352"
   y1="0"
   x2="352"
   y2="512"
   id="line56"
   style="fill:none;stroke:#a9ccdb;stroke-miterlimit:10" />
		<line
   stroke-miterlimit="10"
   x1="384"
   y1="0"
   x2="384"
   y2="512"
   id="line58"
   style="fill:none;stroke:#a9ccdb;stroke-miterlimit:10" />
		<line
   stroke-miterlimit="10"
   x1="416"
   y1="0"
   x2="416"
   y2="512"
   id="line60"
   style="fill:none;stroke:#a9ccdb;stroke-miterlimit:10" />
		<line
   stroke-miterlimit="10"
   x1="448"
   y1="0"
   x2="448"
   y2="512"
   id="line62"
   style="fill:none;stroke:#a9ccdb;stroke-miterlimit:10" />
		<line
   stroke-miterlimit="10"
   x1="480"
   y1="0"
   x2="480"
   y2="512"
   id="line64"
   style="fill:none;stroke:#a9ccdb;stroke-miterlimit:10" />
	</g>
	
   
<path
   style="fill:#659ce4;fill-opacity:0.76086958"
   d="m 384.38174,159.05097 c -1.23499,3.04112 -2.83302,6.07893 -4.53422,9.82674 -0.65094,3.68735 -1.2273,7.21399 -1.7569,10.67864 -0.47569,3.11193 -0.91367,6.17386 -1.33412,9.2573 -0.6331,4.02933 -1.19717,8.11997 -1.73515,12.24204 -2.82399,21.63767 -4.92931,44.14135 -12.52838,63.18812 -24.92989,62.48436 -67.71853,168.54018 -69.49428,183.36948 0,8.37781 5.6418,32.72868 -6.2485,53.3993 -24.0773,41.85724 -76.8685,87.12774 -91.6848,83.6707 -8.6085,-2.00859 -21.8639,-32.05886 -40.6067,-32.86024 -27.0294,-1.15568 -42.7557,-3.08005 -60.7753,5.95371 -16.387466,8.67963 -23.101856,14.53321 -20.364839,30.22353 3.571073,20.32215 12.166358,44.28323 19.075823,60.63327 9.403776,21.75195 20.701436,42.25617 32.271076,62.29206 13.64069,21.68407 25.59223,44.16288 37.28225,66.35523 9.31667,17.68676 18.46723,35.19156 28.17439,51.96708 2.53522,4.38128 5.10841,8.71281 7.73244,12.98484 17.92174,28.96256 37.19791,52.29612 58.52036,58.95825 27.98943,-10.72434 43.76897,-40.84445 58.97187,-62.31549 15.63095,-22.01839 32.88109,-42.80375 48.42316,-63.68097 14.5802,-19.23889 42.645,-29.05376 58.97492,-16.00214 27.34924,7.92924 59.16279,13.665 87.2638,19.7864 44.60736,10.26498 84.39632,19.37921 125.68674,30.10715 35.79342,9.31149 59.15842,16.36032 99.61758,26.16099 21.67609,5.56687 13.77391,3.27367 25.12677,14.93051 21.25549,5.16164 43.55241,13.37137 65.81514,19.71473 21.86021,6.22868 43.68745,10.65787 64.46341,8.63489 23.31479,-7.50918 35.18967,-19.83011 42.49326,-34.55923 6.94532,-22.09703 15.76388,-44.46776 21.77526,-66.00947 4.59009,-11.86805 5.72004,-23.75477 6.04389,-35.48595 -0.72816,-8.56636 -0.39664,-16.89817 0.53058,-25.06049 2.5223,-22.20363 9.45272,-43.15315 11.45179,-64.15863 -1.76907,-45.47987 -1.59917,-90.46177 -12.20864,-131.94812 -4.5678,-15.4134 -11.57833,-28.77812 -16.6421,-43.73863 C 931.03106,452.49737 923.90861,424.50833 913.2898,399.62771 907.04235,384.98947 899.58466,371.42719 888.98102,360.1685 871.77776,328.82812 852.268,304.63187 830.25204,282.46246 811.00678,263.08305 789.84643,245.25242 766.63764,225.55236 726.26308,190.60586 688.14656,169.88249 635.72734,137.46 572.77595,103.96304 454.01474,55.028502 406.89558,89.505692 c -13.00193,14.982158 -18.84101,31.689388 -20.3185,46.667928 -0.39613,7.77248 0.42924,16.27841 -2.19534,22.87735 z m 242.66365,103.97948 c 5.34839,0.91789 9.78927,0.44054 14.83186,3.03018 17.10798,8.78588 35.54584,21.03707 52.53146,27.53375 5.4558,1.67052 4.39745,1.98908 7.72435,5.16888 6.19123,5.38828 12.04256,20.50373 17.87476,31.13568 10.16629,16.86812 30.5697,26.87775 44.28384,36.72816 12.17023,8.77111 23.45268,17.66118 28.60248,25.00024 14.57494,27.73056 19.98009,41.01885 25.10068,69.46156 4.21413,24.55098 10.35889,36.31135 11.77276,58.08406 1.1229,14.39844 3.23929,52.50101 0.69204,65.10546 -3.49178,24.83735 -17.29371,44.75421 -29.47096,64.60404 -5.83145,4.97196 -8.31467,11.40954 -9.6505,18.05629 -1.78862,8.89971 -1.52019,18.17443 -4.4778,24.80803 -3.97729,7.79329 -15.53894,12.71074 -22.34151,15.74713 -21.19778,9.33363 -42.23877,8.91728 -65.97803,4.90392 -45.20117,-5.2543 -83.26026,-19.59601 -126.57469,-27.80967 -37.58396,-11.14986 -92.02829,-19.57989 -124.58389,-44.51904 -17.05526,-13.06516 -28.10313,-30.66127 -27.57226,-55.55308 2.57606,-43.88451 19.34537,-84.95097 31.23039,-123.14096 6.51259,-20.91967 13.29417,-42.43734 20.77719,-63.38688 19.40268,-54.31994 43.52123,-104.82022 79.89432,-131.17219 6.33409,1.90331 14.72308,2.37992 20.34973,2.48981 11.3025,-1.7978 21.18161,-1.60982 31.25133,-3.8604 8.32924,-2.16878 15.47993,-2.13058 23.73245,-2.41497 z"
   id="path3758"
   inkscape:connector-curvature="0"
   sodipodi:nodetypes="ccscsccsssccccsscccccccccsccccscccscsccccccscccccccccsccccsccscccc" /></svg>