<?xml version="1.0" encoding="UTF-8" standalone="no"?>
<svg
   xmlns:dc="http://purl.org/dc/elements/1.1/"
   xmlns:cc="http://creativecommons.org/ns#"
   xmlns:rdf="http://www.w3.org/1999/02/22-rdf-syntax-ns#"
   xmlns:svg="http://www.w3.org/2000/svg"
   xmlns="http://www.w3.org/2000/svg"
   xmlns:sodipodi="http://sodipodi.sourceforge.net/DTD/sodipodi-0.dtd"
   xmlns:inkscape="http://www.inkscape.org/namespaces/inkscape"
   version="1.1"
   id="Layer_1"
   x="0px"
   y="0px"
   width="1000"
   height="1024"
   viewBox="0 0 1000 1024"
   enable-background="new 0 0 512 512"
   xml:space="preserve"
   inkscape:version="0.48.0 r9654"
   sodipodi:docname="tavhebrew-x5ea.svg"><title
   id="title3743">Sinai 357</title><metadata
   id="metadata72"><rdf:RDF><cc:Work
       rdf:about=""><dc:format>image/svg+xml</dc:format><dc:type
         rdf:resource="http://purl.org/dc/dcmitype/StillImage" /><dc:title>Sinai 357</dc:title><dc:date>2017</dc:date><dc:creator><cc:Agent><dc:title>Celeste Claire Horner</dc:title></cc:Agent></dc:creator><dc:publisher><cc:Agent><dc:title>beitdina.net</dc:title></cc:Agent></dc:publisher></cc:Work></rdf:RDF></metadata><defs
   id="defs70" /><sodipodi:namedview
   pagecolor="#ffffff"
   bordercolor="#666666"
   borderopacity="1"
   objecttolerance="10"
   gridtolerance="10"
   guidetolerance="10"
   inkscape:pageopacity="0"
   inkscape:pageshadow="2"
   inkscape:window-width="1152"
   inkscape:window-height="814"
   id="namedview68"
   showgrid="false"
   inkscape:zoom="0.25488282"
   inkscape:cx="-589.22669"
   inkscape:cy="1098.6859"
   inkscape:window-x="-8"
   inkscape:window-y="-8"
   inkscape:window-maximized="1"
   inkscape:current-layer="Layer_1" />
   
	<g
   id="Grid"
   transform="matrix(1.9524943,0,0,2.0181509,2.4516249,-0.3169608)">
		<rect
   x="0"
   stroke-miterlimit="10"
   width="512"
   height="512"
   id="rect4"
   y="0"
   style="fill:none;stroke:#a9ccdb;stroke-miterlimit:10" />
		<line
   stroke-miterlimit="10"
   x1="0"
   y1="32"
   x2="512"
   y2="32"
   id="line6"
   style="fill:none;stroke:#a9ccdb;stroke-miterlimit:10" />
		<line
   stroke-miterlimit="10"
   x1="0"
   y1="64"
   x2="512"
   y2="64"
   id="line8"
   style="fill:none;stroke:#a9ccdb;stroke-miterlimit:10" />
		<line
   stroke-miterlimit="10"
   x1="0"
   y1="96"
   x2="512"
   y2="96"
   id="line10"
   style="fill:none;stroke:#a9ccdb;stroke-miterlimit:10" />
		<line
   stroke-miterlimit="10"
   x1="0"
   y1="128"
   x2="512"
   y2="128"
   id="line12"
   style="fill:none;stroke:#a9ccdb;stroke-miterlimit:10" />
		<line
   stroke-miterlimit="10"
   x1="0"
   y1="160"
   x2="512"
   y2="160"
   id="line14"
   style="fill:none;stroke:#a9ccdb;stroke-miterlimit:10" />
		<line
   stroke-miterlimit="10"
   x1="0"
   y1="192"
   x2="512"
   y2="192"
   id="line16"
   style="fill:none;stroke:#a9ccdb;stroke-miterlimit:10" />
		<line
   stroke-miterlimit="10"
   x1="0"
   y1="224"
   x2="512"
   y2="224"
   id="line18"
   style="fill:none;stroke:#a9ccdb;stroke-miterlimit:10" />
		<line
   stroke-miterlimit="10"
   x1="0"
   y1="256"
   x2="512"
   y2="256"
   id="line20"
   style="fill:none;stroke:#a9ccdb;stroke-miterlimit:10" />
		<line
   stroke-miterlimit="10"
   x1="0"
   y1="288"
   x2="512"
   y2="288"
   id="line22"
   style="fill:none;stroke:#a9ccdb;stroke-miterlimit:10" />
		<line
   stroke-miterlimit="10"
   x1="0"
   y1="320"
   x2="512"
   y2="320"
   id="line24"
   style="fill:none;stroke:#a9ccdb;stroke-miterlimit:10" />
		<line
   stroke-miterlimit="10"
   x1="0"
   y1="352"
   x2="512"
   y2="352"
   id="line26"
   style="fill:none;stroke:#a9ccdb;stroke-miterlimit:10" />
		<line
   stroke-miterlimit="10"
   x1="0"
   y1="384"
   x2="512"
   y2="384"
   id="line28"
   style="fill:none;stroke:#a9ccdb;stroke-miterlimit:10" />
		<line
   stroke-miterlimit="10"
   x1="0"
   y1="416"
   x2="512"
   y2="416"
   id="line30"
   style="fill:none;stroke:#a9ccdb;stroke-miterlimit:10" />
		<line
   stroke-miterlimit="10"
   x1="0"
   y1="448"
   x2="512"
   y2="448"
   id="line32"
   style="fill:none;stroke:#ff0000;stroke-miterlimit:10" />
		<line
   stroke-miterlimit="10"
   x1="0"
   y1="480"
   x2="512"
   y2="480"
   id="line34"
   style="fill:none;stroke:#a9ccdb;stroke-miterlimit:10" />
		<line
   stroke-miterlimit="10"
   x1="32"
   y1="0"
   x2="32"
   y2="512"
   id="line36"
   style="fill:none;stroke:#a9ccdb;stroke-miterlimit:10" />
		<line
   stroke-miterlimit="10"
   x1="64"
   y1="0"
   x2="64"
   y2="512"
   id="line38"
   style="fill:none;stroke:#a9ccdb;stroke-miterlimit:10" />
		<line
   stroke-miterlimit="10"
   x1="96"
   y1="0"
   x2="96"
   y2="512"
   id="line40"
   style="fill:none;stroke:#a9ccdb;stroke-miterlimit:10" />
		<line
   stroke-miterlimit="10"
   x1="128"
   y1="0"
   x2="128"
   y2="512"
   id="line42"
   style="fill:none;stroke:#a9ccdb;stroke-miterlimit:10" />
		<line
   stroke-miterlimit="10"
   x1="160"
   y1="0"
   x2="160"
   y2="512"
   id="line44"
   style="fill:none;stroke:#a9ccdb;stroke-miterlimit:10" />
		<line
   stroke-miterlimit="10"
   x1="192"
   y1="0"
   x2="192"
   y2="512"
   id="line46"
   style="fill:none;stroke:#a9ccdb;stroke-miterlimit:10" />
		<line
   stroke-miterlimit="10"
   x1="224"
   y1="0"
   x2="224"
   y2="512"
   id="line48"
   style="fill:none;stroke:#a9ccdb;stroke-miterlimit:10" />
		<line
   stroke-miterlimit="10"
   x1="256"
   y1="0"
   x2="256"
   y2="512"
   id="line50"
   style="fill:none;stroke:#a9ccdb;stroke-miterlimit:10" />
		<line
   stroke-miterlimit="10"
   x1="288"
   y1="0"
   x2="288"
   y2="512"
   id="line52"
   style="fill:none;stroke:#a9ccdb;stroke-miterlimit:10" />
		<line
   stroke-miterlimit="10"
   x1="320"
   y1="0"
   x2="320"
   y2="512"
   id="line54"
   style="fill:none;stroke:#a9ccdb;stroke-miterlimit:10" />
		<line
   stroke-miterlimit="10"
   x1="352"
   y1="0"
   x2="352"
   y2="512"
   id="line56"
   style="fill:none;stroke:#a9ccdb;stroke-miterlimit:10" />
		<line
   stroke-miterlimit="10"
   x1="384"
   y1="0"
   x2="384"
   y2="512"
   id="line58"
   style="fill:none;stroke:#a9ccdb;stroke-miterlimit:10" />
		<line
   stroke-miterlimit="10"
   x1="416"
   y1="0"
   x2="416"
   y2="512"
   id="line60"
   style="fill:none;stroke:#a9ccdb;stroke-miterlimit:10" />
		<line
   stroke-miterlimit="10"
   x1="448"
   y1="0"
   x2="448"
   y2="512"
   id="line62"
   style="fill:none;stroke:#a9ccdb;stroke-miterlimit:10" />
		<line
   stroke-miterlimit="10"
   x1="480"
   y1="0"
   x2="480"
   y2="512"
   id="line64"
   style="fill:none;stroke:#a9ccdb;stroke-miterlimit:10" />
	</g>
<path
   style="fill:#574638"
   d="m 92.990739,148.42443 c -0.90091,6.46884 3.537471,11.56967 6.60687,15.79311 3.942851,5.40737 8.767471,11.38362 13.263161,17.13518 14.26304,21.55053 18.32009,21.64983 38.8394,25.68829 15.25719,3.22003 29.61222,8.27594 42.79058,8.42172 45.89254,3.81298 72.21973,19.54292 109.24951,30.73512 9.36442,2.82679 27.64538,11.61596 36.63318,12.30181 8.17513,1.11874 7.63447,3.59421 8.29608,10.06052 1.87011,18.68659 2.1354,37.53641 -1.17116,53.44954 -1.85409,21.83272 -6.22264,44.18782 -11.10976,66.14532 -4.6524,21.72719 -10.3775,44.23058 -14.15283,63.40824 -2.2351,11.73713 -3.12137,25.30593 -7.81182,34.67959 -6.54318,10.87296 -13.10489,20.39532 -19.61713,30.71486 -6.88281,8.21449 -7.70635,19.07051 -11.95571,28.0384 -1.00555,2.03194 -1.49456,3.97501 -3.87553,4.01478 -3.57557,-0.13535 -5.09546,3.30998 -5.12658,5.27758 l -0.85824,5.6743 c -5.02118,57.91868 -43.29491,68.92988 -44.94502,129.42263 0.0941,2.74843 0.59828,3.09124 0.2651,4.64211 -0.2907,1.35315 -1.21888,4.09426 -3.61319,4.09426 -3.20174,-0.15396 -5.44407,3.26695 -5.5,5.63618 l -1.96169,6.32743 c -3.47376,39.18715 21.75479,75.23792 21.75479,121.37739 0.37973,2.91848 1.4651,5.90622 2.90191,8.54669 2.09753,3.61448 4.02871,5.06696 5.56715,6.18962 1.21709,0.88816 2.18837,1.56991 2.80176,2.9524 0.55447,1.31451 1.09324,1.30708 1.16111,2.61245 0.0812,1.56201 1.53902,2.33704 2.57675,3.68913 1.41643,1.46301 2.55287,2.37004 4.30338,2.46022 1.28997,0.0664 1.29842,1.54947 2.68794,1.54947 5.06171,7.81451 11.90357,12.90748 19.67,16.32614 10.38112,4.5696 22.41415,6.14776 34.05576,7.23545 l 14.27424,-0.32179 0.0508,0.29706 0.0815,0.38902 5.43035,-0.51492 5.47551,-0.63752 c -0.0349,-0.65384 0.0763,0.28781 -0.006,-0.36115 l -0.0317,-0.41229 c 13.7757,0.52564 31.54683,-22.12431 37.48498,-29.99384 3.23859,-4.33916 6.37586,-8.91856 9.32203,-13.59779 11.25231,-17.87135 19.71713,-37.19876 20.39309,-50.15837 -0.0339,-1.82192 1.05905,-3.51657 2.45792,-4.64944 3.81796,-1.8087 4.29127,-4.85306 5.77828,-8.12373 5.27325,-11.57146 11.34337,-17.23875 13.62896,-27.91161 1.27788,-8.87384 3.74907,-10.93253 10.85702,-10.14205 5.74373,0.79067 11.75911,-0.4525 15.83494,3.13549 10.84475,9.58285 27.56552,19.29459 46.53099,28.17922 37.13458,17.3962 82.87488,31.62142 109.9618,35.49927 7.8375,0.28429 30.45,0.28405 50.25,-5.2e-4 19.8,-0.28457 41.2875,-0.18483 47.75,0.22163 l 7.16937,0.45093 c 7.76033,-0.37885 4.04402,5.15732 8.72025,10.22685 12.04476,12.47241 27.1201,21.57294 29.51012,-12.98242 0.16897,-2.38034 0.33793,-4.76068 0.50689,-7.14102 -0.005,-2.06879 0.21625,-2.0126 2.2612,-2.0126 0.98254,0 1.96509,0 2.94763,0 2.26142,-0.14418 4.60421,-4.13689 4.63454,-5.80176 l 0,-1.54462 c 0,-2.54465 0.11597,-6.4317 0.2911,-10.21859 0.3616,-1.80328 0.57715,-5.2967 0.83405,-8.24084 -0.0238,-1.91669 0.45697,-3.73984 1.46384,-5.07288 0.91202,-1.20746 2.25565,-2.0128 4.04683,-2.12131 2.81009,0.13829 5.34507,-3.55486 5.36418,-5.39911 0.11197,-1.20311 0.45144,-2.29714 0.97244,-3.19266 0.83597,-1.43695 2.1393,-2.36282 3.72001,-2.40823 4.52117,0.39611 5.95695,-4.6455 5.99058,-7.40321 0.007,-10.6102 1.94954,-21.09726 5.11013,-31.45017 4.89391,-16.03062 12.70711,-31.73961 20.77104,-47.08609 3.25409,-6.19287 7.24257,-11.63314 10.40296,-17.70526 15.18783,-45.68081 30.4821,-89.27006 48.18928,-128.53878 21.01403,-46.6535 38.84356,-115.08716 38.84356,-151.31649 0.55104,-34.40745 23.00001,-54.16898 23.00001,-88.5 2.6115,-18.04601 -3.99816,-30.99728 -5.84053,-44.30889 -2.87888,-10.92497 -11.30289,-27.1372 -15.70453,-38.63769 -2.13884,-3.80759 -2.06232,-8.77485 -3.82375,-11.99094 -2.2682,-3.92183 -5.2281,-9.18843 -9.13354,-10.21037 -6.67125,-6.79905 -16.06993,-9.50784 -24.10731,-14.9881 -5.68923,-5.03603 -16.90079,-4.25381 -23.78031,-4.83616 -3.80795,-0.27437 -7.13928,0.83022 -7.61003,3.47215 l 0,5.5 -5.5,0 c -4.45382,-0.152 -5.48691,2.27512 -5.5,4.8907 0.49276,6.31855 -0.5601,4.43505 -5.08601,5.87529 -5.55106,1.79451 -10.09758,5.79454 -13.8033,11.17506 -2.19095,3.18115 -5.38843,6.67146 -7.0254,10.64721 -6.27179,15.23242 -6.81867,30.79732 -7.35835,45.60096 -0.0324,7.60265 1.53079,9.24285 7.92782,12.3281 2.78251,1.13574 2.21037,1.0214 2.3785,5.95357 0.62012,18.19189 1.02024,37.91119 0.0642,53.81275 0.3548,6.55045 -2.54133,4.68417 -7.07209,6.47623 -30.49976,12.22271 -60.02533,80.16933 -60.02533,109.2401 11.77474,54.65483 -31.48557,94.95613 -33.44056,152.90733 0.006,1.21935 -0.33365,1.9995 -1.29454,2.50848 -1.27169,0.52878 -2.77521,0.56504 -3.71677,1.26787 -3.44422,2.64534 -5.77422,7.70097 -6.21689,11.62825 -3.62141,35.28514 -43.465,73.06195 -44.79837,87.04653 -0.54499,3.43009 -1.41597,5.40627 -2.88068,6.94359 -1.38756,1.45634 -3.30794,2.51883 -5.98877,4.05042 -3.9103,2.234 -17.05092,0.63824 -27.91342,0.64154 l -15.74889,0.005 c -3.6195,-0.55336 -6.0679,-4.2709 -7.65928,-5.2235 -45.58866,-10.13545 -75.22927,-62.98006 -113.84183,-72.77528 l -5.5,0 c 0.26537,-1.79034 0.20417,-2.98481 -0.10901,-4.32806 -0.57091,-1.27355 -1.37161,-2.8373 -2.32638,-3.96419 -1.29214,-1.52507 -3.6021,-2.69914 -5.27093,-2.93565 -1.45338,-0.18212 -2.21875,-0.18996 -3.79368,-0.2721 0.12422,-1.85997 -0.0807,-3.55268 -0.47175,-5.21829 -0.2631,-1.38397 -0.77028,-2.52127 -1.53543,-3.37722 -0.85255,-0.9537 -2.02536,-1.5581 -3.53765,-1.76522 -1.52816,-0.18102 -3.08429,-0.13927 -4.73658,-0.13927 -0.0955,-4.28657 -0.41822,-8.47807 -1.1568,-12.64887 -0.4122,-2.93278 -1.24568,-5.88972 -3.14064,-7.38125 -1.2376,-1.31703 -2.46339,-1.79386 -3.82012,-1.94984 -1.2252,-0.14085 -2.55718,-0.02 -4.10103,-0.02 l 0,-33.5 0,-33.5 c 4.69844,-45.67953 30.09741,-86.604 40.53322,-129.99822 0.0353,-16.16202 5.06014,-27.46641 8.97436,-38.49864 9.061,-21.15683 16.63414,-58.47821 17.32824,-85.99906 2.19983,-19.06004 0.4029,-24.80791 -2.42547,-36.76633 -9.98179,-18.52556 -20.86193,-20.08059 -41.41035,-19.73775 -11.24179,-12.59228 -25.06654,-22.32365 -40.45264,-30.26304 -13.4905,-6.96125 -28.18134,-12.54487 -43.3839,-17.4714 -10.25549,-3.32339 -20.74386,-6.34776 -31.2537,-9.2943 -14.0354,-3.93496 -28.10911,-7.73113 -41.71763,-11.91532 -9.34151,-2.87221 -18.50191,-5.87012 -27.50452,-8.88488 -10.01689,-3.35442 -19.83842,-6.72971 -29.49671,-9.97592 -10.74739,-3.61227 -21.29265,-7.064721 -31.68001,-10.150761 -9.0829,-2.69848 -18.04506,-5.11681 -26.91609,-7.11686 -17.54542,-1.73098 -30.59686,-7.19951 -46.07344,-11.24282 -13.3122,-3.47786 -29.14035,-5.17956 -42.80824,-10.89905 -20.441601,-6.20114 -17.873251,5.56337 -22.484451,11.20483 -38.00975,43.876621 -42.38665,71.176971 12.77132,70.971201 z"
   id="path3789"
   inkscape:connector-curvature="0"
   sodipodi:nodetypes="ccccccccccccccccccscccscccccccccccccccccsccccccsccccsscccccccsccscccccccccccccccccccccccscccccccccccccccccccccccccccccccccccsssssscscccc" />
</svg>