<?xml version="1.0" encoding="UTF-8" standalone="no"?>
<svg
   xmlns:dc="http://purl.org/dc/elements/1.1/"
   xmlns:cc="http://creativecommons.org/ns#"
   xmlns:rdf="http://www.w3.org/1999/02/22-rdf-syntax-ns#"
   xmlns:svg="http://www.w3.org/2000/svg"
   xmlns="http://www.w3.org/2000/svg"
   xmlns:sodipodi="http://sodipodi.sourceforge.net/DTD/sodipodi-0.dtd"
   xmlns:inkscape="http://www.inkscape.org/namespaces/inkscape"
   version="1.1"
   id="Layer_1"
   x="0px"
   y="0px"
   width="1000"
   height="1024"
   viewBox="0 0 1000 1024"
   enable-background="new 0 0 512 512"
   xml:space="preserve"
   inkscape:version="0.48.0 r9654"
   sodipodi:docname="tethebrew-x5d8.svg"><title
   id="title3743">Sinai 357</title><metadata
   id="metadata72"><rdf:RDF><cc:Work
       rdf:about=""><dc:format>image/svg+xml</dc:format><dc:type
         rdf:resource="http://purl.org/dc/dcmitype/StillImage" /><dc:title>Sinai 357</dc:title><dc:date>2017</dc:date><dc:creator><cc:Agent><dc:title>Celeste Claire Horner</dc:title></cc:Agent></dc:creator><dc:publisher><cc:Agent><dc:title>beitdina.net</dc:title></cc:Agent></dc:publisher></cc:Work></rdf:RDF></metadata><defs
   id="defs70" /><sodipodi:namedview
   pagecolor="#ffffff"
   bordercolor="#666666"
   borderopacity="1"
   objecttolerance="10"
   gridtolerance="10"
   guidetolerance="10"
   inkscape:pageopacity="0"
   inkscape:pageshadow="2"
   inkscape:window-width="1009"
   inkscape:window-height="737"
   id="namedview68"
   showgrid="false"
   inkscape:zoom="0.36045873"
   inkscape:cx="120.54161"
   inkscape:cy="367.66642"
   inkscape:window-x="46"
   inkscape:window-y="46"
   inkscape:window-maximized="0"
   inkscape:current-layer="Layer_1" />
   
	<g
   id="Grid"
   transform="matrix(1.9453526,0,0,1.9917408,-2.3030789,4.5522104)">
		<rect
   x="0"
   stroke-miterlimit="10"
   width="512"
   height="512"
   id="rect4"
   y="0"
   style="fill:none;stroke:#a9ccdb;stroke-miterlimit:10" />
		<line
   stroke-miterlimit="10"
   x1="0"
   y1="32"
   x2="512"
   y2="32"
   id="line6"
   style="fill:none;stroke:#a9ccdb;stroke-miterlimit:10" />
		<line
   stroke-miterlimit="10"
   x1="0"
   y1="64"
   x2="512"
   y2="64"
   id="line8"
   style="fill:none;stroke:#a9ccdb;stroke-miterlimit:10" />
		<line
   stroke-miterlimit="10"
   x1="0"
   y1="96"
   x2="512"
   y2="96"
   id="line10"
   style="fill:none;stroke:#a9ccdb;stroke-miterlimit:10" />
		<line
   stroke-miterlimit="10"
   x1="0"
   y1="128"
   x2="512"
   y2="128"
   id="line12"
   style="fill:none;stroke:#a9ccdb;stroke-miterlimit:10" />
		<line
   stroke-miterlimit="10"
   x1="0"
   y1="160"
   x2="512"
   y2="160"
   id="line14"
   style="fill:none;stroke:#a9ccdb;stroke-miterlimit:10" />
		<line
   stroke-miterlimit="10"
   x1="0"
   y1="192"
   x2="512"
   y2="192"
   id="line16"
   style="fill:none;stroke:#a9ccdb;stroke-miterlimit:10" />
		<line
   stroke-miterlimit="10"
   x1="0"
   y1="224"
   x2="512"
   y2="224"
   id="line18"
   style="fill:none;stroke:#a9ccdb;stroke-miterlimit:10" />
		<line
   stroke-miterlimit="10"
   x1="0"
   y1="256"
   x2="512"
   y2="256"
   id="line20"
   style="fill:none;stroke:#a9ccdb;stroke-miterlimit:10" />
		<line
   stroke-miterlimit="10"
   x1="0"
   y1="288"
   x2="512"
   y2="288"
   id="line22"
   style="fill:none;stroke:#a9ccdb;stroke-miterlimit:10" />
		<line
   stroke-miterlimit="10"
   x1="0"
   y1="320"
   x2="512"
   y2="320"
   id="line24"
   style="fill:none;stroke:#a9ccdb;stroke-miterlimit:10" />
		<line
   stroke-miterlimit="10"
   x1="0"
   y1="352"
   x2="512"
   y2="352"
   id="line26"
   style="fill:none;stroke:#a9ccdb;stroke-miterlimit:10" />
		<line
   stroke-miterlimit="10"
   x1="0"
   y1="384"
   x2="512"
   y2="384"
   id="line28"
   style="fill:none;stroke:#a9ccdb;stroke-miterlimit:10" />
		<line
   stroke-miterlimit="10"
   x1="0"
   y1="416"
   x2="512"
   y2="416"
   id="line30"
   style="fill:none;stroke:#a9ccdb;stroke-miterlimit:10" />
		<line
   stroke-miterlimit="10"
   x1="0"
   y1="448"
   x2="512"
   y2="448"
   id="line32"
   style="fill:none;stroke:#ff0000;stroke-miterlimit:10" />
		<line
   stroke-miterlimit="10"
   x1="0"
   y1="480"
   x2="512"
   y2="480"
   id="line34"
   style="fill:none;stroke:#a9ccdb;stroke-miterlimit:10" />
		<line
   stroke-miterlimit="10"
   x1="32"
   y1="0"
   x2="32"
   y2="512"
   id="line36"
   style="fill:none;stroke:#a9ccdb;stroke-miterlimit:10" />
		<line
   stroke-miterlimit="10"
   x1="64"
   y1="0"
   x2="64"
   y2="512"
   id="line38"
   style="fill:none;stroke:#a9ccdb;stroke-miterlimit:10" />
		<line
   stroke-miterlimit="10"
   x1="96"
   y1="0"
   x2="96"
   y2="512"
   id="line40"
   style="fill:none;stroke:#a9ccdb;stroke-miterlimit:10" />
		<line
   stroke-miterlimit="10"
   x1="128"
   y1="0"
   x2="128"
   y2="512"
   id="line42"
   style="fill:none;stroke:#a9ccdb;stroke-miterlimit:10" />
		<line
   stroke-miterlimit="10"
   x1="160"
   y1="0"
   x2="160"
   y2="512"
   id="line44"
   style="fill:none;stroke:#a9ccdb;stroke-miterlimit:10" />
		<line
   stroke-miterlimit="10"
   x1="192"
   y1="0"
   x2="192"
   y2="512"
   id="line46"
   style="fill:none;stroke:#a9ccdb;stroke-miterlimit:10" />
		<line
   stroke-miterlimit="10"
   x1="224"
   y1="0"
   x2="224"
   y2="512"
   id="line48"
   style="fill:none;stroke:#a9ccdb;stroke-miterlimit:10" />
		<line
   stroke-miterlimit="10"
   x1="256"
   y1="0"
   x2="256"
   y2="512"
   id="line50"
   style="fill:none;stroke:#a9ccdb;stroke-miterlimit:10" />
		<line
   stroke-miterlimit="10"
   x1="288"
   y1="0"
   x2="288"
   y2="512"
   id="line52"
   style="fill:none;stroke:#a9ccdb;stroke-miterlimit:10" />
		<line
   stroke-miterlimit="10"
   x1="320"
   y1="0"
   x2="320"
   y2="512"
   id="line54"
   style="fill:none;stroke:#a9ccdb;stroke-miterlimit:10" />
		<line
   stroke-miterlimit="10"
   x1="352"
   y1="0"
   x2="352"
   y2="512"
   id="line56"
   style="fill:none;stroke:#a9ccdb;stroke-miterlimit:10" />
		<line
   stroke-miterlimit="10"
   x1="384"
   y1="0"
   x2="384"
   y2="512"
   id="line58"
   style="fill:none;stroke:#a9ccdb;stroke-miterlimit:10" />
		<line
   stroke-miterlimit="10"
   x1="416"
   y1="0"
   x2="416"
   y2="512"
   id="line60"
   style="fill:none;stroke:#a9ccdb;stroke-miterlimit:10" />
		<line
   stroke-miterlimit="10"
   x1="448"
   y1="0"
   x2="448"
   y2="512"
   id="line62"
   style="fill:none;stroke:#a9ccdb;stroke-miterlimit:10" />
		<line
   stroke-miterlimit="10"
   x1="480"
   y1="0"
   x2="480"
   y2="512"
   id="line64"
   style="fill:none;stroke:#a9ccdb;stroke-miterlimit:10" />
	</g>
	

     
   <path
   style="fill:#8e6742;fill-opacity:0.69130435"
   d="m 228.94556,130.16633 c 2.12733,9.17807 19.63644,23.77694 17.86523,26.87814 -13.07144,25.05718 -20.13646,38.89771 -31.58384,63.63193 -49.24724,106.35849 -102.05034,205.2596 -135.896058,320.80423 -4.442628,15.02551 -7.878656,31.17298 -9.977371,47.4622 -3.464474,26.88959 -3.284756,54.16543 2.026819,77.4182 3.199209,13.09793 9.069775,25.05463 19.565108,34.9829 8.494554,7.86314 19.107712,13.30873 33.105162,18.50614 2.85722,0.99708 5.73215,1.89727 8.56808,2.30449 3.04104,0.43668 6.03724,0.30651 8.9187,-0.8789 3.75018,-1.56775 7.08339,-4.19122 10.66479,-5.70183 11.41551,-6.25331 23.69394,-15.80713 35.15189,-22.95549 20.82417,-13.32736 44.14287,-31.30345 62.55576,-45.91163 14.03616,-16.73209 37.47223,-25.43548 52.70325,-38.9656 3.60037,-3.1983 6.74225,-6.66631 9.19313,-10.57383 5.53901,-30.4672 13.63801,-76.49177 -0.0192,-104.54494 -3.959,-6.84727 -5.49529,-11.75786 -10.07733,-15.44521 -7.61631,-6.3675 -19.41429,-5.70128 -26.89878,-9.3199 -21.36984,-13.60924 -6.5274,-37.98674 1.33225,-55.89983 8.27543,-23.06127 24.15832,-41.5232 35.92604,-60.86863 26.44285,-31.25766 18.36321,-164.97243 63.09122,-152.14597 20.4701,5.90472 40.86039,14.72907 59.54207,19.95638 84.95576,25.81468 169.39406,43.82223 250.84566,70.71628 16.29603,7.64935 55.33267,16.69756 62.35222,27.83867 -10.06008,21.33627 -21.02342,52.70738 -28.76864,74.43727 -7.3002,20.48135 -12.97376,41.02368 -15.89268,61.41231 -3.61099,29.86379 -2.67116,67.56903 -15.41783,86.31256 -15.89953,16.9066 -37.24382,30.17923 -59.77231,37.35418 -21.28965,6.7804 -43.63683,8.11532 -63.44589,1.92554 -23.31195,-7.55994 -44.28981,-22.93447 -59.38261,-39.58065 -2.34852,-2.66039 -4.68102,-5.79167 -6.70292,-8.19162 -8.26371,-9.7499 -18.02627,-19.68393 -23.43059,-30.15039 1.8946,-7.85782 4.65574,-16.51469 7.69866,-25.37447 3.55347,-10.34629 7.4912,-20.96929 10.88196,-30.91967 2.16554,-8.51705 -1.6825,-17.36657 -6.45267,-24.17849 -3.93775,-4.91525 -8.19965,-8.06515 -14.18366,-9.46905 -12.09341,-2.83721 -29.03741,0.38715 -36.78587,3.09521 -10.79232,5.78947 -22.34924,8.6036 -33.74921,14.37442 -14.91315,7.54923 -20.08446,7.7815 -29.24887,16.81373 -10.52868,10.071 -22.51682,19.19303 -26.20882,28.50998 -3.71739,10.82788 19.90559,37.74507 26.63051,47.47515 2.53902,3.67503 10.5053,14.2075 13.10924,17.8624 18.13506,24.8382 31.47704,42.42291 49.74074,62.35884 20.08841,21.26176 39.70644,40.96506 60.50694,58.13676 3.72082,3.06696 7.47467,6.06893 11.26106,9.00166 18.20049,11.95222 33.61316,26.24546 51.54786,33.45622 21.93831,8.8071 42.32965,12.29579 62.82935,12.35534 19.93467,0.20663 39.17698,-2.48745 56.78621,-8.42186 22.6852,-7.64503 42.66016,-20.66771 57.91367,-39.79411 3.18025,-4.07275 6.22939,-8.23031 10.16131,-12.83721 8.249,-9.08227 17.24972,-18.69624 25.24412,-27.63064 6.14344,-6.94324 12.43293,-14.37475 18.28533,-21.72164 6.76999,-8.58103 12.79043,-16.66212 18.22486,-25.14173 5.56409,-8.64003 10.19602,-17.52053 14.21179,-26.17897 1.91366,-4.13479 3.74395,-8.30629 5.60652,-12.60107 3.62136,-8.64039 7.62342,-17.46267 11.60575,-26.08317 5.60755,-12.33055 11.62128,-24.80849 16.81022,-37.18553 3.20338,-7.64092 6.09242,-15.24339 8.3775,-22.749 3.1779,-11.60185 4.8855,-24.14996 5.61096,-36.43304 0.77698,-13.15522 0.42741,-26.00645 -0.449,-37.06562 -0.4599,-5.51677 4.40998,-7.73423 9.76277,-13.14488 1.62948,-2.75122 6.14213,-9.06629 7.31515,-12.5842 3.33249,-9.99412 2.14732,-23.29574 2.02347,-35.79063 -0.16181,-16.32523 -0.75356,-34.53795 -3.96471,-44.39425 -5.97164,-6.41773 -8.44666,-12.52294 -13.73656,-18.68027 -11.07089,-12.91683 -17.50737,-24.39021 -30.73009,-35.95692 -4.63727,-4.0565 -10.24776,-12.92059 -15.56786,-15.09844 -20.46609,0.24785 -56.8117,0.21721 -78.05974,-1.50393 -22.94073,-1.85824 -43.25689,-8.70268 -63.44625,-13.49339 -22.54402,-5.34944 -41.16917,-9.67105 -62.62779,-16.60447 C 578.2768,159.33181 542.87777,149.59161 502.6576,136.34789 464.61039,125.29437 416.44363,110.84065 376.36311,98.598355 332.77583,85.284935 305.13983,68.998585 264.66186,76.157005 c -21.33923,4.39629 -42.12043,23.43993 -35.7163,54.009325 z"
   id="path3758"
   inkscape:connector-curvature="0"
   sodipodi:nodetypes="ccccscccsccccsccccccccccsccsccccsccscscccccccccsccccccccscsccssccscssccscc" /></svg>