<?xml version="1.0" encoding="UTF-8" standalone="no"?>
<svg
   xmlns:dc="http://purl.org/dc/elements/1.1/"
   xmlns:cc="http://creativecommons.org/ns#"
   xmlns:rdf="http://www.w3.org/1999/02/22-rdf-syntax-ns#"
   xmlns:svg="http://www.w3.org/2000/svg"
   xmlns="http://www.w3.org/2000/svg"
   xmlns:sodipodi="http://sodipodi.sourceforge.net/DTD/sodipodi-0.dtd"
   xmlns:inkscape="http://www.inkscape.org/namespaces/inkscape"
   version="1.1"
   id="Layer_1"
   x="0px"
   y="0px"
   width="800"
   height="1000"
   viewBox="0 0 800 1000"
   enable-background="new 0 0 512 512"
   xml:space="preserve"
   inkscape:version="0.48.0 r9654"
   sodipodi:docname="tzadihebrew-x5e6.svg"><title
   id="title3743">Sinai 357</title><metadata
   id="metadata72"><rdf:RDF><cc:Work
       rdf:about=""><dc:format>image/svg+xml</dc:format><dc:type
         rdf:resource="http://purl.org/dc/dcmitype/StillImage" /><dc:title>Sinai 357</dc:title><dc:date>2017</dc:date><dc:creator><cc:Agent><dc:title>Celeste Claire Horner</dc:title></cc:Agent></dc:creator><dc:publisher><cc:Agent><dc:title>beitdina.net</dc:title></cc:Agent></dc:publisher></cc:Work></rdf:RDF></metadata><defs
   id="defs70" /><sodipodi:namedview
   pagecolor="#ffffff"
   bordercolor="#666666"
   borderopacity="1"
   objecttolerance="10"
   gridtolerance="10"
   guidetolerance="10"
   inkscape:pageopacity="0"
   inkscape:pageshadow="2"
   inkscape:window-width="1031"
   inkscape:window-height="646"
   id="namedview68"
   showgrid="false"
   inkscape:zoom="0.35544204"
   inkscape:cx="-225.35405"
   inkscape:cy="310.96636"
   inkscape:window-x="46"
   inkscape:window-y="46"
   inkscape:window-maximized="0"
   inkscape:current-layer="Layer_1"
   inkscape:snap-smooth-nodes="true" />
   
	<g
   id="Grid"
   transform="matrix(1.5686944,0,0,1.9538722,0.50019527,4.6656336)">
		<rect
   x="0"
   stroke-miterlimit="10"
   width="512"
   height="512"
   id="rect4"
   y="0"
   style="fill:none;stroke:#a9ccdb;stroke-miterlimit:10" />
		<line
   stroke-miterlimit="10"
   x1="0"
   y1="32"
   x2="512"
   y2="32"
   id="line6"
   style="fill:none;stroke:#a9ccdb;stroke-miterlimit:10" />
		<line
   stroke-miterlimit="10"
   x1="0"
   y1="64"
   x2="512"
   y2="64"
   id="line8"
   style="fill:none;stroke:#a9ccdb;stroke-miterlimit:10" />
		<line
   stroke-miterlimit="10"
   x1="0"
   y1="96"
   x2="512"
   y2="96"
   id="line10"
   style="fill:none;stroke:#a9ccdb;stroke-miterlimit:10" />
		<line
   stroke-miterlimit="10"
   x1="0"
   y1="128"
   x2="512"
   y2="128"
   id="line12"
   style="fill:none;stroke:#a9ccdb;stroke-miterlimit:10" />
		<line
   stroke-miterlimit="10"
   x1="0"
   y1="160"
   x2="512"
   y2="160"
   id="line14"
   style="fill:none;stroke:#a9ccdb;stroke-miterlimit:10" />
		<line
   stroke-miterlimit="10"
   x1="0"
   y1="192"
   x2="512"
   y2="192"
   id="line16"
   style="fill:none;stroke:#a9ccdb;stroke-miterlimit:10" />
		<line
   stroke-miterlimit="10"
   x1="0"
   y1="224"
   x2="512"
   y2="224"
   id="line18"
   style="fill:none;stroke:#a9ccdb;stroke-miterlimit:10" />
		<line
   stroke-miterlimit="10"
   x1="0"
   y1="256"
   x2="512"
   y2="256"
   id="line20"
   style="fill:none;stroke:#a9ccdb;stroke-miterlimit:10" />
		<line
   stroke-miterlimit="10"
   x1="0"
   y1="288"
   x2="512"
   y2="288"
   id="line22"
   style="fill:none;stroke:#a9ccdb;stroke-miterlimit:10" />
		<line
   stroke-miterlimit="10"
   x1="0"
   y1="320"
   x2="512"
   y2="320"
   id="line24"
   style="fill:none;stroke:#a9ccdb;stroke-miterlimit:10" />
		<line
   stroke-miterlimit="10"
   x1="0"
   y1="352"
   x2="512"
   y2="352"
   id="line26"
   style="fill:none;stroke:#a9ccdb;stroke-miterlimit:10" />
		<line
   stroke-miterlimit="10"
   x1="0"
   y1="384"
   x2="512"
   y2="384"
   id="line28"
   style="fill:none;stroke:#a9ccdb;stroke-miterlimit:10" />
		<line
   stroke-miterlimit="10"
   x1="0"
   y1="416"
   x2="512"
   y2="416"
   id="line30"
   style="fill:none;stroke:#a9ccdb;stroke-miterlimit:10" />
		<line
   stroke-miterlimit="10"
   x1="0"
   y1="448"
   x2="512"
   y2="448"
   id="line32"
   style="fill:none;stroke:#ff0000;stroke-miterlimit:10" />
		<line
   stroke-miterlimit="10"
   x1="0"
   y1="480"
   x2="512"
   y2="480"
   id="line34"
   style="fill:none;stroke:#a9ccdb;stroke-miterlimit:10" />
		<line
   stroke-miterlimit="10"
   x1="32"
   y1="0"
   x2="32"
   y2="512"
   id="line36"
   style="fill:none;stroke:#a9ccdb;stroke-miterlimit:10" />
		<line
   stroke-miterlimit="10"
   x1="64"
   y1="0"
   x2="64"
   y2="512"
   id="line38"
   style="fill:none;stroke:#a9ccdb;stroke-miterlimit:10" />
		<line
   stroke-miterlimit="10"
   x1="96"
   y1="0"
   x2="96"
   y2="512"
   id="line40"
   style="fill:none;stroke:#a9ccdb;stroke-miterlimit:10" />
		<line
   stroke-miterlimit="10"
   x1="128"
   y1="0"
   x2="128"
   y2="512"
   id="line42"
   style="fill:none;stroke:#a9ccdb;stroke-miterlimit:10" />
		<line
   stroke-miterlimit="10"
   x1="160"
   y1="0"
   x2="160"
   y2="512"
   id="line44"
   style="fill:none;stroke:#a9ccdb;stroke-miterlimit:10" />
		<line
   stroke-miterlimit="10"
   x1="192"
   y1="0"
   x2="192"
   y2="512"
   id="line46"
   style="fill:none;stroke:#a9ccdb;stroke-miterlimit:10" />
		<line
   stroke-miterlimit="10"
   x1="224"
   y1="0"
   x2="224"
   y2="512"
   id="line48"
   style="fill:none;stroke:#a9ccdb;stroke-miterlimit:10" />
		<line
   stroke-miterlimit="10"
   x1="256"
   y1="0"
   x2="256"
   y2="512"
   id="line50"
   style="fill:none;stroke:#a9ccdb;stroke-miterlimit:10" />
		<line
   stroke-miterlimit="10"
   x1="288"
   y1="0"
   x2="288"
   y2="512"
   id="line52"
   style="fill:none;stroke:#a9ccdb;stroke-miterlimit:10" />
		<line
   stroke-miterlimit="10"
   x1="320"
   y1="0"
   x2="320"
   y2="512"
   id="line54"
   style="fill:none;stroke:#a9ccdb;stroke-miterlimit:10" />
		<line
   stroke-miterlimit="10"
   x1="352"
   y1="0"
   x2="352"
   y2="512"
   id="line56"
   style="fill:none;stroke:#a9ccdb;stroke-miterlimit:10" />
		<line
   stroke-miterlimit="10"
   x1="384"
   y1="0"
   x2="384"
   y2="512"
   id="line58"
   style="fill:none;stroke:#a9ccdb;stroke-miterlimit:10" />
		<line
   stroke-miterlimit="10"
   x1="416"
   y1="0"
   x2="416"
   y2="512"
   id="line60"
   style="fill:none;stroke:#a9ccdb;stroke-miterlimit:10" />
		<line
   stroke-miterlimit="10"
   x1="448"
   y1="0"
   x2="448"
   y2="512"
   id="line62"
   style="fill:none;stroke:#a9ccdb;stroke-miterlimit:10" />
		<line
   stroke-miterlimit="10"
   x1="480"
   y1="0"
   x2="480"
   y2="512"
   id="line64"
   style="fill:none;stroke:#a9ccdb;stroke-miterlimit:10" />
	</g>
<path
   style="fill:#bcc547;fill-opacity:0.72173911"
   d="m 83.320377,154.90316 c -18.57599,1.83447 -27.32031,16.15407 -36.09796,23.22962 -17.69273,23.94328 50.14583,60.03779 63.911763,69.94874 32.86425,12.74774 72.96925,39.8705 104.86387,47.121 7.07081,1.75246 13.87901,1.64384 20.52797,2.3843 10.93741,1.21726 21.97468,3.65309 32.23267,2.95788 3.89083,-0.25995 7.63699,0.19581 12.37578,3.93147 7.57106,6.04799 14.82329,16.25764 17.70733,21.29276 7.4292,11.76236 7.09051,12.59617 6.86677,22.60733 -0.14,6.26677 -1.05847,13.61037 -2.0409,16.31907 -9.43492,32.73873 -8.30576,63.61285 -22.37498,90.80156 -3.97806,7.53155 -6.0481,14.36418 -5.89024,19.44234 0.20305,6.53313 1.8048,11.30129 -5.36311,18.76919 -4.72481,4.92249 -7.59585,13.68864 -7.59585,14.61739 0,0.92872 -3.09823,5.25428 -6.88495,9.61234 -7.32245,8.42728 -9.60451,18.61139 -9.60451,23.25854 0,1.54839 -3.17909,5.91596 -7.06464,12.13717 -3.88556,6.22122 -5.63411,10.28641 -6.31711,13.89673 -0.68303,3.61031 -6.04679,16.42193 -7.05655,18.74446 -6.6824,15.36962 -14.28285,38.02544 -14.29081,43.47433 -0.0191,13.22995 -10.21898,39.31274 -17.16467,48.20925 -5.41819,15.14638 -24.28825,24.36904 -35.19196,38.14116 -12.97568,16.38914 0.91771,37.15129 -2.75854,53.22654 5.43026,38.5615 15.23498,65.94383 36.89773,78.86432 12.10173,4.65837 21.88618,2.29712 29.80988,-2.39203 10.10043,-5.97731 17.17736,-15.73719 22.17636,-19.56181 27.75396,-35.65873 38.81151,-41.8467 34.40759,-81.87471 -0.91467,-9.64233 4.99208,-18.59136 6.68098,-30.48952 2.6513,-18.72657 23.71327,-56.58747 31.52971,-63.39776 2.867,-2.49797 7.05487,-9.49073 9.30637,-15.53953 2.25152,-6.04876 5.86899,-11.98081 8.03882,-13.18233 5.27075,-2.91858 29.39123,-0.70552 37.06573,3.4008 17.84559,2.59689 26.25999,17.82044 38.64467,26.11711 6.27795,4.67713 38.09945,12.90527 44.318,16.16474 26.38686,16.80286 16.25665,49.20172 21.49719,76.19778 2.81721,10.01675 4.80918,21.28344 7.17893,32.01799 2.23496,10.12401 4.80595,19.77468 8.72216,27.45705 7.25504,14.87413 15.20357,22.75871 29.29736,30.59418 16.85189,9.20925 37.32297,11.11277 47.35134,10.65299 22.7238,-7.89311 18.57663,-25.60433 19.47707,-40.67844 0.22152,-5.68584 -1.76595,-4.10621 -1.13838,-10.15052 2.48906,-23.97214 -1.6009,4.47645 0.85819,-12.2021 0.46477,-3.78826 -1.72322,-7.9645 7.4e-4,-11.712 1.72392,-3.74749 -1.524,-18.53124 0.0768,-27.98979 1.60077,-9.45857 12.74487,-19.31975 13.82313,-20.69796 1.44552,-1.84765 -3.03653,-8.26226 2.08785,-16.19796 3.1995,-4.95482 16.82007,-11.10953 17.4332,-15.24917 1.81988,-6.51532 30.64882,-26.57404 33.64432,-34.143 3.05075,-6.25675 3.57767,-12.03131 3.22229,-17.97642 0.92757,-6.24955 -0.40811,-11.34196 -2.50628,-15.88059 -0.69116,-1.49508 -1.46506,-2.93006 -2.26805,-4.32652 -6.59264,-8.34495 -6.95356,-17.72516 -11.11347,-26.27113 -8.12896,-16.49235 -50.66676,-12.86147 -69.0524,-14.24981 -17.23504,-1.30146 -35.0984,3.47545 -46.31903,13.28453 -6.70881,8.20522 -29.20063,10.55091 -47.83309,6.24186 -8.00908,-2.09322 -15.36679,-5.5407 -23.08364,-6.72293 -21.08396,-2.81097 -47.45691,-3.99012 -62.67582,-19.00603 -5.51708,-5.90316 -20.56353,-11.53944 -21.93082,-11.53944 -3.77688,0 -17.80197,-1.80387 -17.96951,-25.87118 2.47369,-22.1789 9.74491,-51.06876 14.19043,-67.25157 9.11979,-28.27742 16.66309,-56.81127 23.55603,-84.36538 2.31526,-9.25511 4.55714,-18.39969 6.76075,-27.38689 1.67064,-6.87194 3.04314,-13.72456 3.77161,-20.46146 0.83457,-7.71805 0.82386,-15.28422 -0.55222,-22.55356 -3.96317,-14.80005 1.25911,-22.60058 -8.46493,-31.71675 -13.11739,-12.06527 -46.51602,-29.64609 -60.23596,-31.70785 -5.48161,-0.82376 -12.00656,-2.84887 -14.49989,-4.50027 -2.49336,-1.6514 -6.29512,-3.00253 -8.44838,-3.00253 -2.15326,0 -5.1347,-1.51597 -6.6254,-3.3688 -67.48768,-7.38756 -125.72118,-70.04218 -181.54458,-80.07263 -29.572343,-2.80522 -36.567883,-3.06535 -38.352673,-1.42615 z"
   id="path3768"
   inkscape:connector-curvature="0"
   sodipodi:nodetypes="ccccccccsccssssssssscsccscccsssccccsccccscsssscccsccsccccsccscsccssscccc" />
</svg>