<?xml version="1.0" encoding="UTF-8" standalone="no"?>
<svg
   xmlns:dc="http://purl.org/dc/elements/1.1/"
   xmlns:cc="http://creativecommons.org/ns#"
   xmlns:rdf="http://www.w3.org/1999/02/22-rdf-syntax-ns#"
   xmlns:svg="http://www.w3.org/2000/svg"
   xmlns="http://www.w3.org/2000/svg"
   xmlns:sodipodi="http://sodipodi.sourceforge.net/DTD/sodipodi-0.dtd"
   xmlns:inkscape="http://www.inkscape.org/namespaces/inkscape"
   version="1.1"
   id="Layer_1"
   x="0px"
   y="0px"
   width="700"
   height="1024"
   viewBox="0 0 700 1024"
   enable-background="new 0 0 512 512"
   xml:space="preserve"
   inkscape:version="0.48.0 r9654"
   sodipodi:docname="wauphoenician-x10905.svg"><title
   id="title3743">Sinai 357</title><metadata
   id="metadata72"><rdf:RDF><cc:Work
       rdf:about=""><dc:format>image/svg+xml</dc:format><dc:type
         rdf:resource="http://purl.org/dc/dcmitype/StillImage" /><dc:title>Sinai 357</dc:title><dc:date>2017</dc:date><dc:creator><cc:Agent><dc:title>Celeste Claire Horner</dc:title></cc:Agent></dc:creator><dc:publisher><cc:Agent><dc:title>beitdina.net</dc:title></cc:Agent></dc:publisher></cc:Work></rdf:RDF></metadata><defs
   id="defs70" /><sodipodi:namedview
   pagecolor="#ffffff"
   bordercolor="#666666"
   borderopacity="1"
   objecttolerance="10"
   gridtolerance="10"
   guidetolerance="10"
   inkscape:pageopacity="0"
   inkscape:pageshadow="2"
   inkscape:window-width="1009"
   inkscape:window-height="736"
   id="namedview68"
   showgrid="false"
   inkscape:zoom="0.090114682"
   inkscape:cx="-1445.2668"
   inkscape:cy="1006.4276"
   inkscape:window-x="80"
   inkscape:window-y="36"
   inkscape:window-maximized="0"
   inkscape:current-layer="Layer_1"
   showguides="true"
   inkscape:guide-bbox="true" />
   
	<g
   id="Grid"
   transform="matrix(1.3586091,0,0,2.0053224,4.4003904,-1.7257688)">
		<rect
   x="0"
   stroke-miterlimit="10"
   width="512"
   height="512"
   id="rect4"
   y="0"
   style="fill:none;stroke:#a9ccdb;stroke-miterlimit:10" />
		<line
   stroke-miterlimit="10"
   x1="0"
   y1="32"
   x2="512"
   y2="32"
   id="line6"
   style="fill:none;stroke:#a9ccdb;stroke-miterlimit:10" />
		<line
   stroke-miterlimit="10"
   x1="0"
   y1="64"
   x2="512"
   y2="64"
   id="line8"
   style="fill:none;stroke:#a9ccdb;stroke-miterlimit:10" />
		<line
   stroke-miterlimit="10"
   x1="0"
   y1="96"
   x2="512"
   y2="96"
   id="line10"
   style="fill:none;stroke:#a9ccdb;stroke-miterlimit:10" />
		<line
   stroke-miterlimit="10"
   x1="0"
   y1="128"
   x2="512"
   y2="128"
   id="line12"
   style="fill:none;stroke:#a9ccdb;stroke-miterlimit:10" />
		<line
   stroke-miterlimit="10"
   x1="0"
   y1="160"
   x2="512"
   y2="160"
   id="line14"
   style="fill:none;stroke:#a9ccdb;stroke-miterlimit:10" />
		<line
   stroke-miterlimit="10"
   x1="0"
   y1="192"
   x2="512"
   y2="192"
   id="line16"
   style="fill:none;stroke:#a9ccdb;stroke-miterlimit:10" />
		<line
   stroke-miterlimit="10"
   x1="0"
   y1="224"
   x2="512"
   y2="224"
   id="line18"
   style="fill:none;stroke:#a9ccdb;stroke-miterlimit:10" />
		<line
   stroke-miterlimit="10"
   x1="0"
   y1="256"
   x2="512"
   y2="256"
   id="line20"
   style="fill:none;stroke:#a9ccdb;stroke-miterlimit:10" />
		<line
   stroke-miterlimit="10"
   x1="0"
   y1="288"
   x2="512"
   y2="288"
   id="line22"
   style="fill:none;stroke:#a9ccdb;stroke-miterlimit:10" />
		<line
   stroke-miterlimit="10"
   x1="0"
   y1="320"
   x2="512"
   y2="320"
   id="line24"
   style="fill:none;stroke:#a9ccdb;stroke-miterlimit:10" />
		<line
   stroke-miterlimit="10"
   x1="0"
   y1="352"
   x2="512"
   y2="352"
   id="line26"
   style="fill:none;stroke:#a9ccdb;stroke-miterlimit:10" />
		<line
   stroke-miterlimit="10"
   x1="0"
   y1="384"
   x2="512"
   y2="384"
   id="line28"
   style="fill:none;stroke:#a9ccdb;stroke-miterlimit:10" />
		<line
   stroke-miterlimit="10"
   x1="0"
   y1="416"
   x2="512"
   y2="416"
   id="line30"
   style="fill:none;stroke:#a9ccdb;stroke-miterlimit:10" />
		<line
   stroke-miterlimit="10"
   x1="0"
   y1="448"
   x2="512"
   y2="448"
   id="line32"
   style="fill:none;stroke:#ff0000;stroke-miterlimit:10" />
		<line
   stroke-miterlimit="10"
   x1="0"
   y1="480"
   x2="512"
   y2="480"
   id="line34"
   style="fill:none;stroke:#a9ccdb;stroke-miterlimit:10" />
		<line
   stroke-miterlimit="10"
   x1="32"
   y1="0"
   x2="32"
   y2="512"
   id="line36"
   style="fill:none;stroke:#a9ccdb;stroke-miterlimit:10" />
		<line
   stroke-miterlimit="10"
   x1="64"
   y1="0"
   x2="64"
   y2="512"
   id="line38"
   style="fill:none;stroke:#a9ccdb;stroke-miterlimit:10" />
		<line
   stroke-miterlimit="10"
   x1="96"
   y1="0"
   x2="96"
   y2="512"
   id="line40"
   style="fill:none;stroke:#a9ccdb;stroke-miterlimit:10" />
		<line
   stroke-miterlimit="10"
   x1="128"
   y1="0"
   x2="128"
   y2="512"
   id="line42"
   style="fill:none;stroke:#a9ccdb;stroke-miterlimit:10" />
		<line
   stroke-miterlimit="10"
   x1="160"
   y1="0"
   x2="160"
   y2="512"
   id="line44"
   style="fill:none;stroke:#a9ccdb;stroke-miterlimit:10" />
		<line
   stroke-miterlimit="10"
   x1="192"
   y1="0"
   x2="192"
   y2="512"
   id="line46"
   style="fill:none;stroke:#a9ccdb;stroke-miterlimit:10" />
		<line
   stroke-miterlimit="10"
   x1="224"
   y1="0"
   x2="224"
   y2="512"
   id="line48"
   style="fill:none;stroke:#a9ccdb;stroke-miterlimit:10" />
		<line
   stroke-miterlimit="10"
   x1="256"
   y1="0"
   x2="256"
   y2="512"
   id="line50"
   style="fill:none;stroke:#a9ccdb;stroke-miterlimit:10" />
		<line
   stroke-miterlimit="10"
   x1="288"
   y1="0"
   x2="288"
   y2="512"
   id="line52"
   style="fill:none;stroke:#a9ccdb;stroke-miterlimit:10" />
		<line
   stroke-miterlimit="10"
   x1="320"
   y1="0"
   x2="320"
   y2="512"
   id="line54"
   style="fill:none;stroke:#a9ccdb;stroke-miterlimit:10" />
		<line
   stroke-miterlimit="10"
   x1="352"
   y1="0"
   x2="352"
   y2="512"
   id="line56"
   style="fill:none;stroke:#a9ccdb;stroke-miterlimit:10" />
		<line
   stroke-miterlimit="10"
   x1="384"
   y1="0"
   x2="384"
   y2="512"
   id="line58"
   style="fill:none;stroke:#a9ccdb;stroke-miterlimit:10" />
		<line
   stroke-miterlimit="10"
   x1="416"
   y1="0"
   x2="416"
   y2="512"
   id="line60"
   style="fill:none;stroke:#a9ccdb;stroke-miterlimit:10" />
		<line
   stroke-miterlimit="10"
   x1="448"
   y1="0"
   x2="448"
   y2="512"
   id="line62"
   style="fill:none;stroke:#a9ccdb;stroke-miterlimit:10" />
		<line
   stroke-miterlimit="10"
   x1="480"
   y1="0"
   x2="480"
   y2="512"
   id="line64"
   style="fill:none;stroke:#a9ccdb;stroke-miterlimit:10" />
	</g>
     

	 
<path
   style="fill:#5e564c"
   d="m 275.39983,440.50337 c -17.65923,-7.21745 -35.68812,-17.95402 -53.75486,-29.23492 -16.61769,-10.37611 -33.2674,-21.21274 -49.69089,-30.19499 -21.76353,-11.9028 -43.12984,-20.54931 -63.49806,-20.55285 -3.7711,0.53027 -18.600199,9.37379 -20.692299,12.7482 -1.5733,2.53789 -8.4847,9.15233 -8.8556,12.97648 -0.3664,3.77675 -4.0164,13.72027 -3,18.48318 1.2559,15.74773 -0.082,47.09929 15.3821,56.91488 14.778809,9.17659 29.367599,17.75005 43.734949,26.10799 16.73056,9.73268 33.16085,19.17311 49.24129,28.93334 9.90266,6.01055 19.67264,12.14238 29.29836,18.53843 16.7899,11.19179 36.6853,7.20033 50.1345,19.04617 24.14418,23.00566 78.66766,47.62129 72.0253,62.16559 -12.65657,7.38226 -25.13165,10.3545 -37.48402,10.73048 -28.22943,0.25387 -93.15984,-10.67121 -118.61239,-15.71439 -14.77823,-2.86337 -29.56393,-3.72013 -44.46429,0.73682 -14.30378,6.27465 -30.1863,16.31925 -37.986913,27.94843 -8.869313,13.22241 -7.864893,28.49333 7.523013,42.60054 10.81666,12.452 22.36752,23.94673 33.83737,35.11922 11.51553,11.21698 22.9494,22.10915 33.47661,33.31915 14.71599,18.70672 32.45253,35.57015 50.69153,51.72684 14.74667,14.81507 28.86942,28.97714 42.96853,42.98097 14.02141,13.92666 28.01945,27.69684 42.58455,41.79717 14.69166,14.37801 30.46861,25.73833 49.18651,29.65884 17.10157,-5.61277 26.71319,-22.30884 30.21314,-40.18769 3.1885,-13.30081 5.36788,-26.40798 3.13789,-38.3547 -1.80512,-9.75411 -5.57933,-22.42679 -10.85345,-34.05933 -6.06819,-13.38392 -14.12195,-25.39091 -23.44669,-29.99145 -34.867,-15.0406 -90.75472,-17.26943 -104.40919,-35.69112 -8.67119,-16.62515 -6.5497,-12.69425 -4.3572,-20.90976 13.78994,-16.25472 27.95974,-14.40424 42.24533,-9.48245 19.89035,8.14792 42.07916,13.72325 61.53117,16.43372 15.6541,1.86352 31.0777,2.96719 45.6501,1.41837 15.7795,-1.67713 30.561,-6.46437 43.5566,-16.76473 21.83106,-15.93811 36.29263,-42.01562 40.78475,-68.17952 5.05831,-28.31244 -3.65883,-48.05808 -17.82656,-64.22441 -18.68719,-21.32335 -46.85707,-36.41959 -65.40638,-56.73372 -10.80807,-12.14569 -32.40298,-19.78381 -38.50007,-32.25555 28.18602,-95.79847 49.19562,-227.79725 45.19606,-326.80556 -1.8695,-40.01369 -46.045,-87.159349 -72.7435,-73.546649 -5.92381,4.21977 -2.90292,18.642549 -2.06035,40.755159 -0.35957,64.14569 -14.48025,134.85034 -21.59415,190.09478 -5.75271,45.75014 -5.01257,88.31263 -33.16279,121.64904 z"
   id="path3759"
   inkscape:connector-curvature="0"
   sodipodi:nodetypes="csscssccssccccccscsccsccccscccccsccsccccccc" /></svg>