<?xml version="1.0" encoding="UTF-8" standalone="no"?>
<svg
   xmlns:dc="http://purl.org/dc/elements/1.1/"
   xmlns:cc="http://creativecommons.org/ns#"
   xmlns:rdf="http://www.w3.org/1999/02/22-rdf-syntax-ns#"
   xmlns:svg="http://www.w3.org/2000/svg"
   xmlns="http://www.w3.org/2000/svg"
   xmlns:sodipodi="http://sodipodi.sourceforge.net/DTD/sodipodi-0.dtd"
   xmlns:inkscape="http://www.inkscape.org/namespaces/inkscape"
   version="1.1"
   id="Layer_1"
   x="0px"
   y="0px"
   width="900"
   height="1024"
   viewBox="0 0 900 1024"
   enable-background="new 0 0 512 512"
   xml:space="preserve"
   inkscape:version="0.48.0 r9654"
   sodipodi:docname="yodphoenician-x10909.svg"><title
   id="title3743">Sinai 357</title><metadata
   id="metadata72"><rdf:RDF><cc:Work
       rdf:about=""><dc:format>image/svg+xml</dc:format><dc:type
         rdf:resource="http://purl.org/dc/dcmitype/StillImage" /><dc:title>Sinai 357</dc:title><dc:date>2017</dc:date><dc:creator><cc:Agent><dc:title /></cc:Agent></dc:creator><dc:publisher><cc:Agent><dc:title>beitdina.net</dc:title></cc:Agent></dc:publisher><cc:license
         rdf:resource="http://scripts.sil.org/OFL" /></cc:Work><cc:License
       rdf:about="http://scripts.sil.org/OFL"><cc:permits
         rdf:resource="http://scripts.sil.org/pub/OFL/Reproduction" /><cc:permits
         rdf:resource="http://scripts.sil.org/pub/OFL/Distribution" /><cc:permits
         rdf:resource="http://scripts.sil.org/pub/OFL/Embedding" /><cc:permits
         rdf:resource="http://scripts.sil.org/pub/OFL/DerivativeWorks" /><cc:requires
         rdf:resource="http://scripts.sil.org/pub/OFL/Notice" /><cc:requires
         rdf:resource="http://scripts.sil.org/pub/OFL/Attribution" /><cc:requires
         rdf:resource="http://scripts.sil.org/pub/OFL/ShareAlike" /><cc:requires
         rdf:resource="http://scripts.sil.org/pub/OFL/DerivativeRenaming" /><cc:requires
         rdf:resource="http://scripts.sil.org/pub/OFL/BundlingWhenSelling" /></cc:License></rdf:RDF></metadata><defs
   id="defs70" /><sodipodi:namedview
   pagecolor="#ffffff"
   bordercolor="#666666"
   borderopacity="1"
   objecttolerance="10"
   gridtolerance="10"
   guidetolerance="10"
   inkscape:pageopacity="0"
   inkscape:pageshadow="2"
   inkscape:window-width="1152"
   inkscape:window-height="814"
   id="namedview68"
   showgrid="false"
   inkscape:zoom="0.35834667"
   inkscape:cx="404.87307"
   inkscape:cy="441.93974"
   inkscape:window-x="-8"
   inkscape:window-y="-8"
   inkscape:window-maximized="1"
   inkscape:current-layer="Layer_1" />
   
	<g
   id="Grid"
   transform="matrix(1.764135,0,0,1.9999593,-3.5410142,2.4385384)">
		<rect
   x="0"
   stroke-miterlimit="10"
   width="512"
   height="512"
   id="rect4"
   y="0"
   style="fill:none;stroke:#a9ccdb;stroke-miterlimit:10" />
		<line
   stroke-miterlimit="10"
   x1="0"
   y1="32"
   x2="512"
   y2="32"
   id="line6"
   style="fill:none;stroke:#a9ccdb;stroke-miterlimit:10" />
		<line
   stroke-miterlimit="10"
   x1="0"
   y1="64"
   x2="512"
   y2="64"
   id="line8"
   style="fill:none;stroke:#a9ccdb;stroke-miterlimit:10" />
		<line
   stroke-miterlimit="10"
   x1="0"
   y1="96"
   x2="512"
   y2="96"
   id="line10"
   style="fill:none;stroke:#a9ccdb;stroke-miterlimit:10" />
		<line
   stroke-miterlimit="10"
   x1="0"
   y1="128"
   x2="512"
   y2="128"
   id="line12"
   style="fill:none;stroke:#a9ccdb;stroke-miterlimit:10" />
		<line
   stroke-miterlimit="10"
   x1="0"
   y1="160"
   x2="512"
   y2="160"
   id="line14"
   style="fill:none;stroke:#a9ccdb;stroke-miterlimit:10" />
		<line
   stroke-miterlimit="10"
   x1="0"
   y1="192"
   x2="512"
   y2="192"
   id="line16"
   style="fill:none;stroke:#a9ccdb;stroke-miterlimit:10" />
		<line
   stroke-miterlimit="10"
   x1="0"
   y1="224"
   x2="512"
   y2="224"
   id="line18"
   style="fill:none;stroke:#a9ccdb;stroke-miterlimit:10" />
		<line
   stroke-miterlimit="10"
   x1="0"
   y1="256"
   x2="512"
   y2="256"
   id="line20"
   style="fill:none;stroke:#a9ccdb;stroke-miterlimit:10" />
		<line
   stroke-miterlimit="10"
   x1="0"
   y1="288"
   x2="512"
   y2="288"
   id="line22"
   style="fill:none;stroke:#a9ccdb;stroke-miterlimit:10" />
		<line
   stroke-miterlimit="10"
   x1="0"
   y1="320"
   x2="512"
   y2="320"
   id="line24"
   style="fill:none;stroke:#a9ccdb;stroke-miterlimit:10" />
		<line
   stroke-miterlimit="10"
   x1="0"
   y1="352"
   x2="512"
   y2="352"
   id="line26"
   style="fill:none;stroke:#a9ccdb;stroke-miterlimit:10" />
		<line
   stroke-miterlimit="10"
   x1="0"
   y1="384"
   x2="512"
   y2="384"
   id="line28"
   style="fill:none;stroke:#a9ccdb;stroke-miterlimit:10" />
		<line
   stroke-miterlimit="10"
   x1="0"
   y1="416"
   x2="512"
   y2="416"
   id="line30"
   style="fill:none;stroke:#a9ccdb;stroke-miterlimit:10" />
		<line
   stroke-miterlimit="10"
   x1="0"
   y1="448"
   x2="512"
   y2="448"
   id="line32"
   style="fill:none;stroke:#ff0000;stroke-miterlimit:10" />
		<line
   stroke-miterlimit="10"
   x1="0"
   y1="480"
   x2="512"
   y2="480"
   id="line34"
   style="fill:none;stroke:#a9ccdb;stroke-miterlimit:10" />
		<line
   stroke-miterlimit="10"
   x1="32"
   y1="0"
   x2="32"
   y2="512"
   id="line36"
   style="fill:none;stroke:#a9ccdb;stroke-miterlimit:10" />
		<line
   stroke-miterlimit="10"
   x1="64"
   y1="0"
   x2="64"
   y2="512"
   id="line38"
   style="fill:none;stroke:#a9ccdb;stroke-miterlimit:10" />
		<line
   stroke-miterlimit="10"
   x1="96"
   y1="0"
   x2="96"
   y2="512"
   id="line40"
   style="fill:none;stroke:#a9ccdb;stroke-miterlimit:10" />
		<line
   stroke-miterlimit="10"
   x1="128"
   y1="0"
   x2="128"
   y2="512"
   id="line42"
   style="fill:none;stroke:#a9ccdb;stroke-miterlimit:10" />
		<line
   stroke-miterlimit="10"
   x1="160"
   y1="0"
   x2="160"
   y2="512"
   id="line44"
   style="fill:none;stroke:#a9ccdb;stroke-miterlimit:10" />
		<line
   stroke-miterlimit="10"
   x1="192"
   y1="0"
   x2="192"
   y2="512"
   id="line46"
   style="fill:none;stroke:#a9ccdb;stroke-miterlimit:10" />
		<line
   stroke-miterlimit="10"
   x1="224"
   y1="0"
   x2="224"
   y2="512"
   id="line48"
   style="fill:none;stroke:#a9ccdb;stroke-miterlimit:10" />
		<line
   stroke-miterlimit="10"
   x1="256"
   y1="0"
   x2="256"
   y2="512"
   id="line50"
   style="fill:none;stroke:#a9ccdb;stroke-miterlimit:10" />
		<line
   stroke-miterlimit="10"
   x1="288"
   y1="0"
   x2="288"
   y2="512"
   id="line52"
   style="fill:none;stroke:#a9ccdb;stroke-miterlimit:10" />
		<line
   stroke-miterlimit="10"
   x1="320"
   y1="0"
   x2="320"
   y2="512"
   id="line54"
   style="fill:none;stroke:#a9ccdb;stroke-miterlimit:10" />
		<line
   stroke-miterlimit="10"
   x1="352"
   y1="0"
   x2="352"
   y2="512"
   id="line56"
   style="fill:none;stroke:#a9ccdb;stroke-miterlimit:10" />
		<line
   stroke-miterlimit="10"
   x1="384"
   y1="0"
   x2="384"
   y2="512"
   id="line58"
   style="fill:none;stroke:#a9ccdb;stroke-miterlimit:10" />
		<line
   stroke-miterlimit="10"
   x1="416"
   y1="0"
   x2="416"
   y2="512"
   id="line60"
   style="fill:none;stroke:#a9ccdb;stroke-miterlimit:10" />
		<line
   stroke-miterlimit="10"
   x1="448"
   y1="0"
   x2="448"
   y2="512"
   id="line62"
   style="fill:none;stroke:#a9ccdb;stroke-miterlimit:10" />
		<line
   stroke-miterlimit="10"
   x1="480"
   y1="0"
   x2="480"
   y2="512"
   id="line64"
   style="fill:none;stroke:#a9ccdb;stroke-miterlimit:10" />
	</g>
<path
   sodipodi:nodetypes="ccccccccsscccccccccccsccccccsccccscccsccsscscsssccccccccccccsccccccsccsccccccsccssccscccscscscsccccsccccccccsccccccscccsc"
   inkscape:connector-curvature="0"
   id="path3773"
   d="m 320.74919,527.47001 c 4.34323,6.05444 3.08612,14.56976 5.78634,23.28278 4.31922,10.66233 8.80316,20.44688 12.52185,30.27725 1.22845,3.24431 2.46906,6.4162 2.63559,9.70127 0.10247,0.71136 -0.0739,1.33803 -0.25595,1.96486 -3.45543,19.12687 -4.98718,35.02531 -8.35802,53.53618 -1.29957,19.84962 -10.74649,44.33941 -10.93022,60.57784 -0.0234,0.92509 -0.0726,1.84024 -0.12431,2.82721 -0.0129,0.6338 -0.0227,1.2656 -0.03,1.89518 -0.0387,3.34587 -0.006,6.62936 0.022,9.82048 0.02,2.31389 -0.0404,4.57921 0.0921,6.78452 0.14839,2.52463 0.22179,5.3178 -0.77004,6.22789 -8.89282,2.93033 -24.30157,-0.53191 -29.64586,-4.54891 -7.28846,-6.42825 -11.53496,-13.14768 -16.74052,-20.43987 -2.99324,-4.19121 -5.96314,-8.27814 -8.97645,-12.38224 -12.56497,-16.79261 -33.25448,-15.26441 -44.58412,-31.13692 -7.98457,-11.21536 -15.37538,-22.53175 -20.49319,-35.27056 -1.91341,-6.87248 2.94299,-24.57745 0.0801,-31.4485 -8.87389,-22.47234 -22.81823,-42.12709 -34.26942,-61.45072 -7.43547,-12.2789 -14.05714,-23.78491 -20.94868,-34.11976 -7.83903,-11.75182 -16.00562,-22.41213 -24.4114,-30.0676 -7.38096,-4.72597 -11.80341,-7.97555 -16.26045,-12.32688 -1.88006,-1.83547 -3.76628,-3.86697 -5.883289,-6.28802 -2.445477,-2.7735 -5.157742,-5.21673 -7.217541,-6.43026 -0.98731,-0.52695 -2.166874,-0.83671 -3.728154,-0.83671 -1.434797,-0.21021 -2.585947,0.0334 -3.570827,0.50617 -15.269535,10.50601 -33.284314,26.68167 -41.001974,40.94179 -0.381854,0.71621 -0.681088,1.47706 -0.917158,2.28133 -1.120951,2.45124 -1.226382,4.59493 -0.799067,6.67232 0.276088,1.34221 0.774571,2.65675 1.365235,4.00868 14.887493,34.08269 27.494544,70.3786 44.17528,98.8689 6.888012,11.575 16.241885,25.48341 26.533675,31.44083 11.98654,3.98026 15.46975,6.52398 23.04476,16.43223 3.50856,5.6328 7.40617,11.34967 11.56833,17.10874 15.71308,21.74181 35.19658,44.08512 51.75137,64.77754 6.98632,14.31309 49.2885,29.12997 50.90758,42.71023 1.57888,10.60834 7.7918,22.21184 15.47877,33.14279 5.45924,5.58465 15.61995,21.16617 25.0125,30.77427 4.14236,4.23742 8.1353,7.31299 11.50965,7.85674 5.74214,1.38019 5.6197,2.44476 6.27665,7.94643 l 0.44811,16.28486 c 0.28521,10.36499 0.35185,23.31906 0.19794,30.81538 -0.044,2.14237 -0.10598,3.83898 -0.18604,4.90199 0.3177,4.23862 5.08219,9.58182 10.92928,14.66363 7.94968,6.90922 17.90052,13.33528 21.39756,15.84519 3.97751,-0.17496 7.90295,-0.18627 11.79364,-0.13334 2.64171,0.0359 5.26739,0.10151 7.88247,0.16558 2.64547,0.0648 5.28009,0.12811 7.90945,0.15766 2.47183,0.0278 4.93901,0.0258 7.40621,-0.0329 13.94265,-1.97417 22.41601,-20.33451 27.22992,-32.51619 7.97829,-21.04125 10.65657,-45.68407 14.20235,-65.04139 7.60698,-41.77189 7.37297,-83.5475 17.56216,-124.18332 6.92838,-38.681 16.02352,-71.28088 20.19263,-105.41808 9.56782,-28.27221 24.30241,-53.95949 33.11379,-81.03954 0.90458,-3.29231 -0.91857,-8.08455 1.53407,-10.44703 6.70008,-2.68394 5.37737,-15.49718 1.22001,-20.33361 -2.13316,-2.13137 -5.21537,-3.49805 -7.09755,-5.46249 -3.54274,-3.88064 0.0992,-9.1707 1.93699,-13.23223 0.62862,-2.45446 1.99731,-3.89492 3.29177,-4.84877 0.96561,-0.66213 0.87656,-0.62057 1.90946,-0.84157 5.60809,-1.55545 8.29941,-4.74777 11.22841,-7.00816 1.98852,-1.53459 4.08659,-2.63964 7.28129,-2.51135 2.46488,0.32231 2.82333,1.46707 4.10879,4.6062 0.29674,2.46229 2.06899,5.65771 4.33589,8.66322 4.63827,5.20392 11.00791,10.99282 17.16129,14.13112 3.65091,2.09438 7.87788,1.89104 11.06981,3.91252 6.21151,1.44352 9.66453,8.72243 12.03584,11.59803 1.50232,3.58951 3.11397,7.13534 4.81689,10.63395 10.85113,22.29339 25.40777,42.66913 38.99169,60.20795 4.08593,5.2605 8.37063,10.69283 12.24114,15.45576 14.16105,19.28723 26.19895,35.00986 39.28045,50.26781 5.99248,6.98948 12.20396,13.88145 18.93884,20.9739 14.81201,15.6053 28.92177,31.03944 43.32992,45.9242 4.84713,5.00284 9.62146,9.83695 14.23419,14.38205 7.26592,7.15554 14.68432,14.14692 22.37579,20.92855 9.7177,7.11615 20.45107,10.28155 31.67407,12.11706 7.09381,1.26302 15.27333,1.05785 21.3895,-1.04826 9.33375,-4.72234 17.19117,-11.119 23.21279,-18.77941 5.6212,-7.15101 9.64265,-15.40329 11.77192,-24.42282 3.92428,-18.26232 -4.19571,-34.54807 -12.51546,-54.16124 -1.79178,-4.18776 -3.74388,-8.34367 -5.82931,-12.44689 -9.45245,-18.59829 -23.22485,-34.53387 -36.42792,-48.24548 -4.34146,-4.50867 -8.62135,-8.77688 -12.66586,-12.82022 -2.09743,-2.20082 -4.22553,-4.3784 -6.37863,-6.52742 -12.05984,-14.07196 -24.48785,-25.43181 -37.43014,-35.4447 -14.38654,-11.13025 -29.40854,-20.59613 -45.26665,-30.27271 -4.16128,-2.55401 -8.10793,-5.06229 -11.9741,-7.51238 -15.18577,-12.44415 -36.354,-20.50333 -50.33474,-30.08276 -2.11711,-1.12231 -4.39338,-2.67557 -6.55613,-4.56819 -5.25676,-4.60018 -9.84287,-11.20521 -9.84287,-18.49979 -0.52151,-5.1398 -3.70548,-11.81884 -6.26886,-17.14015 -7.42643,-15.41647 -21.35524,-31.14818 -29.81187,-44.60803 -5.84592,-9.27686 -12.25365,-18.53938 -20.50904,-26.72782 -5.72813,-5.68167 -15.9244,-18.89806 -22.90071,-21.03044 -2.54953,-2.19603 -4.07569,-5.24441 -4.93895,-8.23977 -0.75236,-2.61056 -2.04767,-4.4832 -2.03162,-6.41384 0,-3.59956 -0.17441,-5.97822 -0.17441,-9.57778 0.66163,-5.29398 -3.86864,-7.34747 -7.61061,-7.4322 -4.82023,-0.18325 -10.16637,-0.0284 -13.64837,-2.62474 -3.73858,-3.41278 -8.27347,-6.33331 -13.27144,-8.67922 -16.83601,-7.90238 -38.92662,-9.28452 -53.53376,-0.99882 -10.45487,6.52776 -18.22186,19.23831 -21.48117,28.88756 -3.55109,13.06027 2.16178,12.41837 2.75468,21.66727 0.11419,1.8701 -0.0245,4.50647 0.10251,7.55677 0.20031,10.07168 0.18128,19.90332 -0.56475,30.21503 -0.38355,4.06345 -1.79949,7.67208 -3.77697,11.06465 -3.9521,3.60639 -12.23068,23.36251 -17.55569,33.99689 -2.54002,6.9038 -6.87169,7.86002 -12.56967,8.07383 -4.53069,0.1371 -13.12004,-0.14921 -17.4137,-0.77895 -13.74173,-2.01548 -26.35869,-7.54881 -38.42195,-13.97825 -15.76507,-8.60482 -28.89396,-21.58215 -42.93145,-35.60792 -5.11188,-5.13007 -9.94777,-9.88338 -14.74206,-14.58893 -25.93897,-25.45861 -53.94671,-52.88613 -71.29792,-80.24797 -6.60134,-12.68776 -16.36955,-23.68872 -24.73886,-34.0244 -4.46679,-5.82896 -9.07971,-13.20078 -14.24119,-19.57276 -25.64711,-23.74464 -47.31662,-8.55053 -51.60632,14.84017 -4.353462,23.73838 8.90087,55.96063 13.81937,70.24071 8.28857,23.24633 21.54985,45.0299 35.56738,63.66621 15.99527,21.14539 33.76805,39.7784 53.89237,54.45652 17.43453,17.45197 39.8068,30.67972 61.22481,43.74621 19.99899,12.20078 39.16597,24.26097 52.70416,39.4883 z"
   style="fill:#9e4f15" />
	</svg>