<?xml version="1.0" encoding="UTF-8" standalone="no"?>
<svg
   xmlns:dc="http://purl.org/dc/elements/1.1/"
   xmlns:cc="http://creativecommons.org/ns#"
   xmlns:rdf="http://www.w3.org/1999/02/22-rdf-syntax-ns#"
   xmlns:svg="http://www.w3.org/2000/svg"
   xmlns="http://www.w3.org/2000/svg"
   xmlns:sodipodi="http://sodipodi.sourceforge.net/DTD/sodipodi-0.dtd"
   xmlns:inkscape="http://www.inkscape.org/namespaces/inkscape"
   version="1.1"
   id="Layer_1"
   x="0px"
   y="0px"
   width="1000"
   height="1024"
   viewBox="0 0 1000 1024"
   enable-background="new 0 0 512 512"
   xml:space="preserve"
   inkscape:version="0.48.0 r9654"
   sodipodi:docname="zayinhebrew-x5d6.svg"><title
   id="title3743">Sinai 357</title><metadata
   id="metadata72"><rdf:RDF><cc:Work
       rdf:about=""><dc:format>image/svg+xml</dc:format><dc:type
         rdf:resource="http://purl.org/dc/dcmitype/StillImage" /><dc:title>Sinai 357</dc:title><dc:date>2017</dc:date><dc:creator><cc:Agent><dc:title>Celeste Claire Horner</dc:title></cc:Agent></dc:creator><dc:publisher><cc:Agent><dc:title>beitdina.net</dc:title></cc:Agent></dc:publisher></cc:Work></rdf:RDF></metadata><defs
   id="defs70" /><sodipodi:namedview
   pagecolor="#ffffff"
   bordercolor="#666666"
   borderopacity="1"
   objecttolerance="10"
   gridtolerance="10"
   guidetolerance="10"
   inkscape:pageopacity="0"
   inkscape:pageshadow="2"
   inkscape:window-width="1152"
   inkscape:window-height="814"
   id="namedview68"
   showgrid="false"
   inkscape:zoom="0.36045873"
   inkscape:cx="264.59103"
   inkscape:cy="708.2116"
   inkscape:window-x="-8"
   inkscape:window-y="-8"
   inkscape:window-maximized="1"
   inkscape:current-layer="Layer_1" />
   
	<g
   id="Grid"
   transform="matrix(2.0004581,0,0,2.0004578,0.50019527,4.8138064)">
		<rect
   x="0"
   stroke-miterlimit="10"
   width="499.9935"
   height="512"
   id="rect4"
   y="0"
   style="fill:none;stroke:#a9ccdb;stroke-width:0.98820537;stroke-miterlimit:10" />
		<line
   stroke-miterlimit="10"
   x1="0"
   y1="32"
   x2="499.87729"
   y2="32"
   id="line6"
   style="fill:none;stroke:#a9ccdb;stroke-width:0.98809052;stroke-miterlimit:10" />
		<line
   stroke-miterlimit="10"
   x1="0"
   y1="64"
   x2="499.53094"
   y2="64"
   id="line8"
   style="fill:none;stroke:#a9ccdb;stroke-width:0.98774815;stroke-miterlimit:10" />
		<line
   stroke-miterlimit="10"
   x1="0"
   y1="96"
   x2="499.53094"
   y2="96"
   id="line10"
   style="fill:none;stroke:#a9ccdb;stroke-width:0.98774815;stroke-miterlimit:10" />
		<line
   stroke-miterlimit="10"
   x1="0"
   y1="128"
   x2="499.87729"
   y2="128"
   id="line12"
   style="fill:none;stroke:#a9ccdb;stroke-width:0.98809052;stroke-miterlimit:10" />
		<line
   stroke-miterlimit="10"
   x1="0"
   y1="160"
   x2="499.87729"
   y2="160"
   id="line14"
   style="fill:none;stroke:#a9ccdb;stroke-width:0.98809052;stroke-miterlimit:10" />
		<line
   stroke-miterlimit="10"
   x1="0"
   y1="192"
   x2="498.8382"
   y2="192"
   id="line16"
   style="fill:none;stroke:#a9ccdb;stroke-width:0.98706299;stroke-miterlimit:10" />
		<line
   stroke-miterlimit="10"
   x1="0"
   y1="224"
   x2="500.22366"
   y2="224"
   id="line18"
   style="fill:none;stroke:#a9ccdb;stroke-width:0.98843277;stroke-miterlimit:10" />
		<line
   stroke-miterlimit="10"
   x1="0"
   y1="256"
   x2="499.53094"
   y2="256"
   id="line20"
   style="fill:none;stroke:#a9ccdb;stroke-width:0.98774815;stroke-miterlimit:10" />
		<line
   stroke-miterlimit="10"
   x1="0"
   y1="288"
   x2="499.87729"
   y2="288"
   id="line22"
   style="fill:none;stroke:#a9ccdb;stroke-width:0.98809052;stroke-miterlimit:10" />
		<line
   stroke-miterlimit="10"
   x1="0"
   y1="320"
   x2="499.53094"
   y2="320"
   id="line24"
   style="fill:none;stroke:#a9ccdb;stroke-width:0.98774815;stroke-miterlimit:10" />
		<line
   stroke-miterlimit="10"
   x1="0"
   y1="352"
   x2="499.18457"
   y2="352"
   id="line26"
   style="fill:none;stroke:#a9ccdb;stroke-width:0.9874056;stroke-miterlimit:10" />
		<line
   stroke-miterlimit="10"
   x1="0"
   y1="384"
   x2="499.18457"
   y2="384"
   id="line28"
   style="fill:none;stroke:#a9ccdb;stroke-width:0.9874056;stroke-miterlimit:10" />
		<line
   stroke-miterlimit="10"
   x1="0"
   y1="416"
   x2="500.22366"
   y2="416"
   id="line30"
   style="fill:none;stroke:#a9ccdb;stroke-width:0.98843277;stroke-miterlimit:10" />
		<line
   stroke-miterlimit="10"
   x1="0"
   y1="448"
   x2="499.53091"
   y2="448"
   id="line32"
   style="fill:none;stroke:#ff0000;stroke-width:0.98774809;stroke-miterlimit:10" />
		<line
   stroke-miterlimit="10"
   x1="0.34636551"
   y1="480"
   x2="499.53094"
   y2="480"
   id="line34"
   style="fill:none;stroke:#a9ccdb;stroke-width:0.98740566;stroke-miterlimit:10" />
		<line
   stroke-miterlimit="10"
   x1="32"
   y1="0"
   x2="32"
   y2="512"
   id="line36"
   style="fill:none;stroke:#a9ccdb;stroke-miterlimit:10" />
		<line
   stroke-miterlimit="10"
   x1="64"
   y1="0"
   x2="64"
   y2="512"
   id="line38"
   style="fill:none;stroke:#a9ccdb;stroke-miterlimit:10" />
		<line
   stroke-miterlimit="10"
   x1="96"
   y1="0"
   x2="96"
   y2="512"
   id="line40"
   style="fill:none;stroke:#a9ccdb;stroke-miterlimit:10" />
		<line
   stroke-miterlimit="10"
   x1="128"
   y1="0"
   x2="128"
   y2="512"
   id="line42"
   style="fill:none;stroke:#a9ccdb;stroke-miterlimit:10" />
		<line
   stroke-miterlimit="10"
   x1="160"
   y1="0"
   x2="160"
   y2="512"
   id="line44"
   style="fill:none;stroke:#a9ccdb;stroke-miterlimit:10" />
		<line
   stroke-miterlimit="10"
   x1="192"
   y1="0"
   x2="192"
   y2="512"
   id="line46"
   style="fill:none;stroke:#a9ccdb;stroke-miterlimit:10" />
		<line
   stroke-miterlimit="10"
   x1="224"
   y1="0"
   x2="224"
   y2="512"
   id="line48"
   style="fill:none;stroke:#a9ccdb;stroke-miterlimit:10" />
		<line
   stroke-miterlimit="10"
   x1="256"
   y1="0"
   x2="256"
   y2="512"
   id="line50"
   style="fill:none;stroke:#a9ccdb;stroke-miterlimit:10" />
		<line
   stroke-miterlimit="10"
   x1="288"
   y1="0"
   x2="288"
   y2="512"
   id="line52"
   style="fill:none;stroke:#a9ccdb;stroke-miterlimit:10" />
		<line
   stroke-miterlimit="10"
   x1="320"
   y1="0"
   x2="320"
   y2="512"
   id="line54"
   style="fill:none;stroke:#a9ccdb;stroke-miterlimit:10" />
		<line
   stroke-miterlimit="10"
   x1="352"
   y1="0"
   x2="352"
   y2="512"
   id="line56"
   style="fill:none;stroke:#a9ccdb;stroke-miterlimit:10" />
		<line
   stroke-miterlimit="10"
   x1="384"
   y1="0"
   x2="384"
   y2="512"
   id="line58"
   style="fill:none;stroke:#a9ccdb;stroke-miterlimit:10" />
		<line
   stroke-miterlimit="10"
   x1="416"
   y1="0"
   x2="416"
   y2="512"
   id="line60"
   style="fill:none;stroke:#a9ccdb;stroke-miterlimit:10" />
		<line
   stroke-miterlimit="10"
   x1="448"
   y1="0"
   x2="448"
   y2="512"
   id="line62"
   style="fill:none;stroke:#a9ccdb;stroke-miterlimit:10" />
		<line
   stroke-miterlimit="10"
   x1="480"
   y1="0"
   x2="480"
   y2="512"
   id="line64"
   style="fill:none;stroke:#a9ccdb;stroke-miterlimit:10" />
	</g>
     
 <path
   style="fill:#c65a17;fill-opacity:0.71304345"
   d="m 270.27995,176.44151 c -5.0403,4.2947 -3.6926,16.1045 3.3967,29.7634 3.6441,7.0207 3.2064,19.37761 3.1221,24.47821 -2.1572,12.4039 -3.6648,14.77689 -5.6937,27.08359 -18.7379,50.63494 -38.9804,101.3312 -60.4578,151.30751 -11.7521,27.3464 -23.8741,54.47723 -36.3216,81.2645 -10.5997,22.81072 -21.4354,45.3723 -32.48,67.60571 -18.3657,36.97109 -37.3087,73.03475 -56.703801,107.82757 -7.0376,11.1462 -14.4346,47.91242 -8.6715,57.46212 12.15736,17.01956 27.346711,29.94987 41.001141,43.73242 5.10817,5.15609 10.18708,10.2459 15.26311,15.26266 17.45142,17.24768 34.86875,33.6319 53.32374,48.87783 3.87961,3.205 7.74989,6.41487 11.60283,9.64504 10.41869,8.73466 20.06019,18.26813 30.17467,27.49662 4.57167,4.09106 24.6129,20.44263 27.40855,19.83203 22.74363,-12.32711 50.69475,-28.98969 71.40222,-50.12729 2.00884,-2.05057 3.94951,-4.14325 5.81064,-6.27817 16.56841,-19.0058 31.13168,-40.49966 42.43749,-63.21788 10.642,-21.38437 18.39782,-43.85354 22.22302,-66.3536 -1.34074,-21.68168 -7.10395,-42.24885 -15.71295,-61.54694 -9.29568,-20.83739 -21.90923,-40.19516 -35.85576,-57.87873 -6.73041,-6.92125 -9.36711,-12.94156 -9.52091,-18.44994 -0.3699,-13.24783 2.5247,-27.0024 8.46981,-39.73979 7.44532,-13.97051 21.09422,-47.99031 27.26593,-62.87514 15.28942,-36.87475 37.56277,-79.27579 49.71172,-116.84988 6.17997,-32.98178 26.91171,-62.53924 35.95186,-89.38465 14.13361,-14.94721 11.96245,-28.18997 1.37677,-41.0899 -18.80466,-22.85956 -45.64931,-47.08994 -71.91337,-57.07594 -28.27164,-8.84345 -54.03101,-10.32821 -78.24791,-2.41154 -13.1932,4.31295 -25.9286,11.41624 -38.363,21.64018 z"
   id="path3760"
   inkscape:connector-curvature="0"
   sodipodi:nodetypes="csccsssccssssccssscscscsccccsc" />
     
</svg>